<?xml version="1.0" standalone="no"?>
<!DOCTYPE svg PUBLIC "-//W3C//DTD SVG 1.1//EN" "http://www.w3.org/Graphics/SVG/1.1/DTD/svg11.dtd" >
<svg>
<metadata>
Created by FontForge 20090622 at Mon Aug 19 18:01:52 2019
 By deploy user
Copyright 2000, 2002, 2004 Adobe Systems Incorporated. All Rights Reserved. (Latin design U.S. Patent Des. 337,604; Arabic design U.S. Patent Pending.)
</metadata>
<defs>
<font id="AdobeArabic-Regular" horiz-adv-x="0" >
  <font-face 
    font-family="Adobe Arabic"
    font-weight="400"
    font-stretch="normal"
    units-per-em="2048"
    panose-1="2 4 5 3 5 2 1 2 2 3"
    ascent="1368"
    descent="-680"
    x-height="638"
    cap-height="951"
    bbox="-894 -1122 3555 1792"
    underline-thickness="50"
    underline-position="-50"
    unicode-range="U+0020-U+FEFC"
  />
<missing-glyph horiz-adv-x="728" 
d="M0 0v1020h728v-1020h-728zM117 947l247 -372l248 372h-495zM655 881l-247 -371l247 -372v743zM612 73l-248 371l-247 -371h495zM73 138l247 372l-247 371v-743z" />
    <glyph glyph-name="uniFC64" unicode="&#xfe8c;&#xfeae;" horiz-adv-x="910" arabic-form="final" 
d="M832 696q-19 -39 -39 -68q-146 -23 -260 -75l-2 3l24 42q19 24 46 33v3q-78 23 -78 87q0 41 47 88q64 57 121 57q63 0 63 -49q0 -17 -10 -35q-6 -12 -22 -30h-2q-18 35 -32 39q-10 3 -31 3q-25 0 -48 -12q-22 -11 -22 -23q0 -33 49 -50q40 -14 94 -14q23 0 51 1l51 3v-3z
M704 479q2 -11 9 -54l18 -102q11 -62 31 -104q22 -49 54 -69q41 -22 81 -22h13v-128h-18q-89 0 -134 47t-75 169l-25 102h-5q-24 -49 -60 -78q-41 -32 -88 -29q8 -35 12 -71q2 -28 2 -67l-2 -52q-2 -20 -15 -52q-16 -43 -42 -82q-103 -152 -197 -152q-61 0 -127 22
q-54 17 -134 57l14 32q24 -11 44 -17q27 -8 50 -8q154 0 274 142q39 46 58 77q23 38 23 64q-15 42 -52 88q-14 18 -35 41l-38 41l33 128h9q46 -42 73 -63q32 -22 84 -22q38 0 71 27q19 14 42 57l19 38q13 24 23 40h10z" />
    <glyph glyph-name="uniFE8B_uniFEE4.liga" unicode="&#xfe8b;&#xfee4;" horiz-adv-x="811" 
d="M9 128q73 0 125 17q60 20 119 71q12 79 44 144q34 70 89 121q106 95 212 95q56 0 94 -27q39 -29 39 -73q0 -49 -20 -101l-7 -1q-39 75 -124 75q-66 0 -134 -39q-97 -65 -118 -150l3 -3q53 24 101 24q82 0 130 -53q48 -51 48 -121q0 -31 -4 -55q-6 -29 -20 -57
q-52 -98 -137 -98q-83 0 -142 70q-53 58 -54 128h-5q-50 -51 -112 -74q-55 -21 -126 -21h-10q-37 0 -55 23q-15 18 -15 44q0 23 15 40q19 21 55 21h9zM384 52q46 -40 99 -40q52 0 64 28q0 53 -42 90q-43 37 -104 37q-42 0 -76 -19q13 -57 59 -96zM732 786q-19 -39 -39 -68
q-146 -23 -260 -75l-2 3l24 42q19 24 46 33v3q-78 23 -78 87q0 41 47 88q64 57 121 57q63 0 63 -49q0 -17 -10 -35q-6 -12 -22 -30h-2q-18 35 -32 39q-10 3 -31 3q-25 0 -48 -12q-22 -11 -22 -23q0 -33 49 -50q40 -14 94 -14q23 0 51 1l51 3v-3z" />
    <glyph glyph-name="uniFC67" unicode="&#xfe8c;&#xfee6;" horiz-adv-x="1120" arabic-form="final" 
d="M310 640q23 31 41 53q21 28 40 49q60 -44 120 -107q-35 -57 -83 -98q-25 24 -59 53zM1057 696q-19 -39 -39 -68q-146 -23 -260 -75l-2 3l24 42q19 24 46 33v3q-78 23 -78 87q0 41 47 88q64 57 121 57q63 0 63 -49q0 -17 -10 -35q-6 -12 -22 -30h-2q-18 35 -32 39
q-10 3 -31 3q-25 0 -48 -12q-22 -11 -22 -23q0 -33 49 -50q40 -14 94 -14q23 0 51 1l51 3v-3zM914 489q1 -6 4 -21l25 -133q12 -65 30 -108q23 -53 54 -72l39 -19q21 -8 40 -8h14v-128h-16q-88 0 -135 52q-44 50 -75 173l-26 103h-5q-50 -101 -141 -104q30 -75 30 -188
q0 -42 -6 -80q-7 -42 -23 -82q-39 -58 -106 -107q-107 -68 -225 -68q-137 0 -218 89q-79 87 -79 227q0 68 15 131q12 51 35 105l35 -13q-13 -42 -19 -75q-8 -45 -8 -88q0 -106 74 -175q70 -66 165 -66q104 0 201 56q104 72 104 124q0 37 -22 100q-16 43 -52 89
q-15 19 -36 41q-15 17 -38 40l36 130l10 1q47 -44 74 -64q30 -21 81 -21q40 0 70 24q19 14 42 57l19 38q13 24 23 40h10z" />
    <glyph glyph-name="uniFE8B_uniFEF0.liga" unicode="&#xfe8b;&#xfef0;" horiz-adv-x="999" 
d="M741 653q47 -92 71 -160q27 -78 27 -131q0 -43 -15 -87q-13 -39 -39 -82q85 -20 114 -53q25 -29 25 -95q0 -55 -41 -135q-57 -55 -118 -96q-57 -38 -116 -62q-55 -23 -112 -34q-52 -10 -104 -10q-69 0 -134 28q-61 25 -105 66q-104 111 -104 268q0 83 22 167q10 36 24 75
q12 33 29 72l39 -15q-22 -61 -32 -106q-13 -56 -13 -104q0 -114 58 -197q93 -114 228 -114q77 0 146 17q77 19 142 58q43 27 74 50q37 27 53 49q0 27 -102 52q-92 22 -213 31l-7 9l48 104q79 12 124 32q36 16 56 41q-13 53 -41 118q-25 59 -65 133q37 60 74 111h7zM848 846
q-19 -39 -39 -68q-146 -23 -260 -75l-2 3l24 42q19 24 46 33v3q-78 23 -78 87q0 41 47 88q64 57 121 57q63 0 63 -49q0 -17 -10 -35q-6 -12 -22 -30h-2q-18 35 -32 39q-10 3 -31 3q-25 0 -48 -12q-22 -11 -22 -23q0 -33 49 -50q40 -14 94 -14q23 0 51 1l51 3v-3z" />
    <glyph glyph-name="uniFE8B_uniFEF2.liga" unicode="&#xfe8b;&#xfef2;" horiz-adv-x="999" 
d="M741 653q47 -92 71 -160q27 -78 27 -131q0 -43 -15 -87q-13 -39 -39 -82q85 -20 114 -53q25 -29 25 -95q0 -55 -41 -135q-57 -55 -118 -96q-57 -38 -116 -62q-55 -23 -112 -34q-52 -10 -104 -10q-69 0 -134 28q-61 25 -105 66q-104 111 -104 268q0 83 22 167q10 36 24 75
q12 33 29 72l39 -15q-22 -61 -32 -106q-13 -56 -13 -104q0 -114 58 -197q93 -114 228 -114q77 0 146 17q77 19 142 58q43 27 74 50q37 27 53 49q0 27 -102 52q-92 22 -213 31l-7 9l48 104q79 12 124 32q36 16 56 41q-13 53 -41 118q-25 59 -65 133q37 60 74 111h7zM848 846
q-19 -39 -39 -68q-146 -23 -260 -75l-2 3l24 42q19 24 46 33v3q-78 23 -78 87q0 41 47 88q64 57 121 57q63 0 63 -49q0 -17 -10 -35q-6 -12 -22 -30h-2q-18 35 -32 39q-10 3 -31 3q-25 0 -48 -12q-22 -11 -22 -23q0 -33 49 -50q40 -14 94 -14q23 0 51 1l51 3v-3z" />
    <glyph glyph-name="uniFC6A" unicode="&#xfe92;&#xfeae;" horiz-adv-x="910" arabic-form="final" 
d="M585 -301q23 31 41 53q21 28 40 49q60 -43 120 -107q-35 -56 -83 -98q-25 24 -59 53zM704 479q2 -11 9 -54l18 -102q11 -62 31 -104q22 -49 54 -69q41 -22 81 -22h13v-128h-18q-89 0 -134 47t-75 169l-25 102h-5q-24 -49 -60 -78q-41 -32 -88 -29q8 -35 12 -71
q2 -28 2 -67l-2 -52q-2 -20 -15 -52q-16 -43 -42 -82q-103 -152 -197 -152q-61 0 -127 22q-54 17 -134 57l14 32q24 -11 44 -17q27 -8 50 -8q154 0 274 142q39 46 58 77q23 38 23 64q-15 42 -52 88q-14 18 -35 41l-38 41l33 128h9q46 -42 73 -63q32 -22 84 -22q38 0 71 27
q19 14 42 57l19 38q13 24 23 40h10z" />
    <glyph glyph-name="uniFE91_uniFEE4.liga" unicode="&#xfe91;&#xfee4;" horiz-adv-x="810" 
d="M495 -331q23 31 41 53q21 28 40 49q60 -43 120 -107q-35 -56 -83 -98q-25 24 -59 53zM9 128q73 0 125 17q60 20 119 71q12 79 44 144q34 70 89 121q106 95 212 95q56 0 94 -27q39 -29 39 -73q0 -49 -20 -101l-7 -1q-39 75 -124 75q-66 0 -134 -39q-97 -65 -118 -150l3 -3
q53 24 101 24q82 0 130 -53q48 -51 48 -121q0 -31 -4 -55q-6 -29 -20 -57q-52 -98 -137 -98q-83 0 -142 70q-53 58 -54 128h-5q-50 -51 -112 -74q-55 -21 -126 -21h-10q-37 0 -55 23q-15 18 -15 44q0 23 15 40q19 21 55 21h9zM384 52q46 -40 99 -40q52 0 64 28q0 53 -42 90
q-43 37 -104 37q-42 0 -76 -19q13 -57 59 -96z" />
    <glyph glyph-name="uniFE92_uniFEE6.liga" unicode="&#xfe92;&#xfee6;" horiz-adv-x="1120" 
d="M310 640q23 31 41 53q21 28 40 49q60 -44 120 -107q-35 -57 -83 -98q-25 24 -59 53zM820 -301q23 31 41 53q21 28 40 49q60 -43 120 -107q-35 -56 -83 -98q-25 24 -59 53zM914 489q1 -6 4 -21l25 -133q12 -65 30 -108q23 -53 54 -72l39 -19q21 -8 40 -8h14v-128h-16
q-88 0 -135 52q-44 50 -75 173l-26 103h-5q-50 -101 -141 -104q30 -75 30 -188q0 -42 -6 -80q-7 -42 -23 -82q-39 -58 -106 -107q-107 -68 -225 -68q-137 0 -218 89q-79 87 -79 227q0 68 15 131q12 51 35 105l35 -13q-13 -42 -19 -75q-8 -45 -8 -88q0 -106 74 -175
q70 -66 165 -66q104 0 201 56q104 72 104 124q0 37 -22 100q-16 43 -52 89q-15 19 -36 41q-15 17 -38 40l36 130l10 1q47 -44 74 -64q30 -21 81 -21q40 0 70 24q19 14 42 57l19 38q13 24 23 40h10z" />
    <glyph glyph-name="uniFE91_uniFEF0.liga" unicode="&#xfe91;&#xfef0;" horiz-adv-x="999" 
d="M741 653q47 -92 71 -160q27 -78 27 -131q0 -43 -15 -87q-13 -39 -39 -82q85 -20 114 -53q25 -29 25 -95q0 -55 -41 -135q-57 -55 -118 -96q-57 -38 -116 -62q-55 -23 -112 -34q-52 -10 -104 -10q-69 0 -134 28q-61 25 -105 66q-104 111 -104 268q0 83 22 167q10 36 24 75
q12 33 29 72l39 -15q-22 -61 -32 -106q-13 -56 -13 -104q0 -114 58 -197q93 -114 228 -114q77 0 146 17q77 19 142 58q43 27 74 50q37 27 53 49q0 27 -102 52q-92 22 -213 31l-7 9l48 104q79 12 124 32q36 16 56 41q-13 53 -41 118q-25 59 -65 133q37 60 74 111h7zM681 -431
q23 31 41 53q21 28 40 49q60 -43 120 -107q-35 -56 -83 -98q-25 24 -59 53z" />
    <glyph glyph-name="uniFE91_uniFEF2.liga" unicode="&#xfe91;&#xfef2;" horiz-adv-x="1011" 
d="M741 653q47 -92 71 -160q27 -78 27 -131q0 -43 -15 -87q-13 -39 -39 -82q85 -20 114 -53q25 -29 25 -95q0 -55 -41 -135q-57 -55 -118 -96q-57 -38 -116 -62q-55 -23 -112 -34q-52 -10 -104 -10q-69 0 -134 28q-61 25 -105 66q-104 111 -104 268q0 83 22 167q10 36 24 75
q12 33 29 72l39 -15q-22 -61 -32 -106q-13 -56 -13 -104q0 -114 58 -197q93 -114 228 -114q77 0 146 17q77 19 142 58q43 27 74 50q37 27 53 49q0 27 -102 52q-92 22 -213 31l-7 9l48 104q79 12 124 32q36 16 56 41q-13 53 -41 118q-25 59 -65 133q37 60 74 111h7zM751 -381
q23 31 41 53q21 28 40 49q60 -43 120 -107q-35 -56 -83 -98q-25 24 -59 53z" />
    <glyph glyph-name="uniFC70" unicode="&#xfe98;&#xfeae;" horiz-adv-x="910" arabic-form="final" 
d="M775 600q-59 56 -117 104q37 52 79 95q53 -42 114 -107q-43 -61 -76 -92zM582 587q-59 56 -117 104q37 52 79 95q53 -42 114 -107q-43 -61 -76 -92zM704 479q2 -11 9 -54l18 -102q11 -62 31 -104q22 -49 54 -69q41 -22 81 -22h13v-128h-18q-89 0 -134 47t-75 169l-25 102
h-5q-24 -49 -60 -78q-41 -32 -88 -29q8 -35 12 -71q2 -28 2 -67l-2 -52q-2 -20 -15 -52q-16 -43 -42 -82q-103 -152 -197 -152q-61 0 -127 22q-54 17 -134 57l14 32q24 -11 44 -17q27 -8 50 -8q154 0 274 142q39 46 58 77q23 38 23 64q-15 42 -52 88q-14 18 -35 41l-38 41
l33 128h9q46 -42 73 -63q32 -22 84 -22q38 0 71 27q19 14 42 57l19 38q13 24 23 40h10z" />
    <glyph glyph-name="uniFE97_uniFEE4.liga" unicode="&#xfe97;&#xfee4;" horiz-adv-x="820" 
d="M665 680q-59 56 -117 104q37 52 79 95q53 -42 114 -107q-43 -61 -76 -92zM472 667q-59 56 -117 104q37 52 79 95q53 -42 114 -107q-43 -61 -76 -92zM9 128q73 0 125 17q60 20 119 71q12 79 44 144q34 70 89 121q106 95 212 95q56 0 94 -27q39 -29 39 -73q0 -49 -20 -101
l-7 -1q-39 75 -124 75q-66 0 -134 -39q-97 -65 -118 -150l3 -3q53 24 101 24q82 0 130 -53q48 -51 48 -121q0 -31 -4 -55q-6 -29 -20 -57q-52 -98 -137 -98q-83 0 -142 70q-53 58 -54 128h-5q-50 -51 -112 -74q-55 -21 -126 -21h-10q-37 0 -55 23q-15 18 -15 44q0 23 15 40
q19 21 55 21h9zM384 52q46 -40 99 -40q52 0 64 28q0 53 -42 90q-43 37 -104 37q-42 0 -76 -19q13 -57 59 -96z" />
    <glyph glyph-name="uniFE98_uniFEE6.liga" unicode="&#xfe98;&#xfee6;" horiz-adv-x="1120" 
d="M310 640q23 31 41 53q21 28 40 49q60 -44 120 -107q-35 -57 -83 -98q-25 24 -59 53zM990 610q-59 56 -117 104q37 52 79 95q53 -42 114 -107q-43 -61 -76 -92zM797 597q-59 56 -117 104q37 52 79 95q53 -42 114 -107q-43 -61 -76 -92zM914 489q1 -6 4 -21l25 -133
q12 -65 30 -108q23 -53 54 -72l39 -19q21 -8 40 -8h14v-128h-16q-88 0 -135 52q-44 50 -75 173l-26 103h-5q-50 -101 -141 -104q30 -75 30 -188q0 -42 -6 -80q-7 -42 -23 -82q-39 -58 -106 -107q-107 -68 -225 -68q-137 0 -218 89q-79 87 -79 227q0 68 15 131q12 51 35 105
l35 -13q-13 -42 -19 -75q-8 -45 -8 -88q0 -106 74 -175q70 -66 165 -66q104 0 201 56q104 72 104 124q0 37 -22 100q-16 43 -52 89q-15 19 -36 41q-15 17 -38 40l36 130l10 1q47 -44 74 -64q30 -21 81 -21q40 0 70 24q19 14 42 57l19 38q13 24 23 40h10z" />
    <glyph glyph-name="uniFE97_uniFEF0.liga" unicode="&#xfe97;&#xfef0;" horiz-adv-x="1004" 
d="M741 653q47 -92 71 -160q27 -78 27 -131q0 -43 -15 -87q-13 -39 -39 -82q85 -20 114 -53q25 -29 25 -95q0 -55 -41 -135q-57 -55 -118 -96q-57 -38 -116 -62q-55 -23 -112 -34q-52 -10 -104 -10q-69 0 -134 28q-61 25 -105 66q-104 111 -104 268q0 83 22 167q10 36 24 75
q12 33 29 72l39 -15q-22 -61 -32 -106q-13 -56 -13 -104q0 -114 58 -197q93 -114 228 -114q77 0 146 17q77 19 142 58q43 27 74 50q37 27 53 49q0 27 -102 52q-92 22 -213 31l-7 9l48 104q79 12 124 32q36 16 56 41q-13 53 -41 118q-25 59 -65 133q37 60 74 111h7zM791 750
q-59 56 -117 104q37 52 79 95q53 -42 114 -107q-43 -61 -76 -92zM598 737q-59 56 -117 104q37 52 79 95q53 -42 114 -107q-43 -61 -76 -92z" />
    <glyph glyph-name="uniFE97_uniFEF2.liga" unicode="&#xfe97;&#xfef2;" horiz-adv-x="1004" 
d="M741 653q47 -92 71 -160q27 -78 27 -131q0 -43 -15 -87q-13 -39 -39 -82q85 -20 114 -53q25 -29 25 -95q0 -55 -41 -135q-57 -55 -118 -96q-57 -38 -116 -62q-55 -23 -112 -34q-52 -10 -104 -10q-69 0 -134 28q-61 25 -105 66q-104 111 -104 268q0 83 22 167q10 36 24 75
q12 33 29 72l39 -15q-22 -61 -32 -106q-13 -56 -13 -104q0 -114 58 -197q93 -114 228 -114q77 0 146 17q77 19 142 58q43 27 74 50q37 27 53 49q0 27 -102 52q-92 22 -213 31l-7 9l48 104q79 12 124 32q36 16 56 41q-13 53 -41 118q-25 59 -65 133q37 60 74 111h7zM791 750
q-59 56 -117 104q37 52 79 95q53 -42 114 -107q-43 -61 -76 -92zM598 737q-59 56 -117 104q37 52 79 95q53 -42 114 -107q-43 -61 -76 -92z" />
    <glyph glyph-name="uniFE9C_uniFEAE.liga" unicode="&#xfe9c;&#xfeae;" horiz-adv-x="910" 
d="M582 587q-59 56 -117 104q37 52 79 95q53 -42 114 -107q-43 -61 -76 -92zM636 800q-59 56 -117 104q37 52 79 95q53 -42 114 -107q-43 -61 -76 -92zM775 600q-59 56 -117 104q37 52 79 95q53 -42 114 -107q-43 -61 -76 -92zM704 479q2 -11 9 -54l18 -102q11 -62 31 -104
q22 -49 54 -69q41 -22 81 -22h13v-128h-18q-89 0 -134 47t-75 169l-25 102h-5q-24 -49 -60 -78q-41 -32 -88 -29q8 -35 12 -71q2 -28 2 -67l-2 -52q-2 -20 -15 -52q-16 -43 -42 -82q-103 -152 -197 -152q-61 0 -127 22q-54 17 -134 57l14 32q24 -11 44 -17q27 -8 50 -8
q154 0 274 142q39 46 58 77q23 38 23 64q-15 42 -52 88q-14 18 -35 41l-38 41l33 128h9q46 -42 73 -63q32 -22 84 -22q38 0 71 27q19 14 42 57l19 38q13 24 23 40h10z" />
    <glyph glyph-name="uniFE9B_uniFEE4.liga" unicode="&#xfe9b;&#xfee4;" horiz-adv-x="820" 
d="M472 647q-59 56 -117 104q37 52 79 95q53 -42 114 -107q-43 -61 -76 -92zM526 860q-59 56 -117 104q37 52 79 95q53 -42 114 -107q-43 -61 -76 -92zM665 660q-59 56 -117 104q37 52 79 95q53 -42 114 -107q-43 -61 -76 -92zM9 128q73 0 125 17q60 20 119 71q12 79 44 144
q34 70 89 121q106 95 212 95q56 0 94 -27q39 -29 39 -73q0 -49 -20 -101l-7 -1q-39 75 -124 75q-66 0 -134 -39q-97 -65 -118 -150l3 -3q53 24 101 24q82 0 130 -53q48 -51 48 -121q0 -31 -4 -55q-6 -29 -20 -57q-52 -98 -137 -98q-83 0 -142 70q-53 58 -54 128h-5
q-50 -51 -112 -74q-55 -21 -126 -21h-10q-37 0 -55 23q-15 18 -15 44q0 23 15 40q19 21 55 21h9zM384 52q46 -40 99 -40q52 0 64 28q0 53 -42 90q-43 37 -104 37q-42 0 -76 -19q13 -57 59 -96z" />
    <glyph glyph-name="uniFE9C_uniFEE6.liga" unicode="&#xfe9c;&#xfee6;" horiz-adv-x="1120" 
d="M310 640q23 31 41 53q21 28 40 49q60 -44 120 -107q-35 -57 -83 -98q-25 24 -59 53zM797 597q-59 56 -117 104q37 52 79 95q53 -42 114 -107q-43 -61 -76 -92zM851 810q-59 56 -117 104q37 52 79 95q53 -42 114 -107q-43 -61 -76 -92zM990 610q-59 56 -117 104
q37 52 79 95q53 -42 114 -107q-43 -61 -76 -92zM914 489q1 -6 4 -21l25 -133q12 -65 30 -108q23 -53 54 -72l39 -19q21 -8 40 -8h14v-128h-16q-88 0 -135 52q-44 50 -75 173l-26 103h-5q-50 -101 -141 -104q30 -75 30 -188q0 -42 -6 -80q-7 -42 -23 -82q-39 -58 -106 -107
q-107 -68 -225 -68q-137 0 -218 89q-79 87 -79 227q0 68 15 131q12 51 35 105l35 -13q-13 -42 -19 -75q-8 -45 -8 -88q0 -106 74 -175q70 -66 165 -66q104 0 201 56q104 72 104 124q0 37 -22 100q-16 43 -52 89q-15 19 -36 41q-15 17 -38 40l36 130l10 1q47 -44 74 -64
q30 -21 81 -21q40 0 70 24q19 14 42 57l19 38q13 24 23 40h10z" />
    <glyph glyph-name="uniFE9B_uniFEF0.liga" unicode="&#xfe9b;&#xfef0;" horiz-adv-x="1004" 
d="M741 653q47 -92 71 -160q27 -78 27 -131q0 -43 -15 -87q-13 -39 -39 -82q85 -20 114 -53q25 -29 25 -95q0 -55 -41 -135q-57 -55 -118 -96q-57 -38 -116 -62q-55 -23 -112 -34q-52 -10 -104 -10q-69 0 -134 28q-61 25 -105 66q-104 111 -104 268q0 83 22 167q10 36 24 75
q12 33 29 72l39 -15q-22 -61 -32 -106q-13 -56 -13 -104q0 -114 58 -197q93 -114 228 -114q77 0 146 17q77 19 142 58q43 27 74 50q37 27 53 49q0 27 -102 52q-92 22 -213 31l-7 9l48 104q79 12 124 32q36 16 56 41q-13 53 -41 118q-25 59 -65 133q37 60 74 111h7zM598 727
q-59 56 -117 104q37 52 79 95q53 -42 114 -107q-43 -61 -76 -92zM652 940q-59 56 -117 104q37 52 79 95q53 -42 114 -107q-43 -61 -76 -92zM791 740q-59 56 -117 104q37 52 79 95q53 -42 114 -107q-43 -61 -76 -92z" />
    <glyph glyph-name="uniFE9B_uniFEF2.liga" unicode="&#xfe9b;&#xfef2;" horiz-adv-x="1004" 
d="M741 653q47 -92 71 -160q27 -78 27 -131q0 -43 -15 -87q-13 -39 -39 -82q85 -20 114 -53q25 -29 25 -95q0 -55 -41 -135q-57 -55 -118 -96q-57 -38 -116 -62q-55 -23 -112 -34q-52 -10 -104 -10q-69 0 -134 28q-61 25 -105 66q-104 111 -104 268q0 83 22 167q10 36 24 75
q12 33 29 72l39 -15q-22 -61 -32 -106q-13 -56 -13 -104q0 -114 58 -197q93 -114 228 -114q77 0 146 17q77 19 142 58q43 27 74 50q37 27 53 49q0 27 -102 52q-92 22 -213 31l-7 9l48 104q79 12 124 32q36 16 56 41q-13 53 -41 118q-25 59 -65 133q37 60 74 111h7zM598 727
q-59 56 -117 104q37 52 79 95q53 -42 114 -107q-43 -61 -76 -92zM652 940q-59 56 -117 104q37 52 79 95q53 -42 114 -107q-43 -61 -76 -92zM791 740q-59 56 -117 104q37 52 79 95q53 -42 114 -107q-43 -61 -76 -92z" />
    <glyph glyph-name="uniFD0E" unicode="&#xfeb3;&#xfeae;" horiz-adv-x="1490" arabic-form="isolated" 
d="M1039 157q30 23 71 159l60 35l6 -4q-13 -52 -13 -98q0 -53 34 -86q30 -29 70 -29q53 0 53 45q0 27 -8 74q-6 37 -17 88q42 50 90 90l6 -3q8 -53 13 -101q3 -42 3 -77q0 -32 -11 -72q-10 -36 -25 -65q-30 -50 -66 -79q-40 -31 -82 -31q-66 0 -125 83h-8q-16 -18 -30 -30
q-18 -17 -35 -28q-45 -28 -93 -28q-73 0 -119 52q-47 53 -46 139l-69 -22q-35 -11 -60 -20q-61 -21 -103 -42q12 -37 12 -74q0 -28 -1 -63l-3 -63q-4 -101 -77 -190q-62 -64 -118 -94q-52 -28 -103 -28q-104 0 -242 97l15 28q57 -26 122 -26q68 0 135 31q60 27 123 80
q99 103 99 163q0 23 -22 56q-17 27 -51 64q9 56 30 121q90 37 181 66q96 31 192 52l2 -7q-6 -24 -6 -60q0 -51 38 -91q39 -41 89 -41q48 0 89 29z" />
    <glyph glyph-name="uniFD2A" unicode="&#xfeb4;&#xfeae;" horiz-adv-x="1601" arabic-form="final" 
d="M635 275q96 31 192 52l2 -7q-6 -24 -6 -60q0 -51 38 -91q39 -41 89 -41t84 26q22 15 38 46q19 35 41 107l67 35l4 -4l-19 -94q-8 -40 -8 -58q0 -58 56 -58q22 0 41 7q13 5 28 15q38 26 58 96l8 29q6 23 12 50l76 51l4 -3q-11 -36 -17 -71q-8 -40 -8 -66q0 -56 46 -84
q42 -24 118 -24h22v-128h-25q-88 0 -140 26q-46 23 -66 68h-6q-80 -94 -171 -94q-38 0 -63 15q-33 20 -45 68h-5q-61 -83 -150 -83q-72 0 -117 52q-47 54 -46 139l-69 -22q-35 -11 -60 -20q-61 -21 -103 -42q12 -37 12 -74q0 -28 -1 -63l-3 -63q-4 -101 -77 -190
q-62 -64 -118 -94q-52 -28 -103 -28q-104 0 -242 97l15 28q57 -26 122 -26q68 0 135 31q60 27 123 80q99 103 99 163q0 23 -22 56q-17 27 -51 64q9 56 30 121q90 37 181 66z" />
    <glyph glyph-name="uniFCFB" unicode="&#xfeb3;&#xfef0;" horiz-adv-x="1587" arabic-form="isolated" 
d="M1136 157q30 23 71 159l60 35l6 -4q-13 -52 -13 -98q0 -53 34 -86q30 -29 70 -29q53 0 53 45q0 27 -8 74q-6 37 -17 88q42 50 90 90l6 -3q8 -53 13 -101q3 -42 3 -77q0 -32 -11 -72q-10 -36 -25 -65q-30 -50 -66 -79q-40 -31 -82 -31q-66 0 -125 83h-8q-39 -42 -71 -61
q-42 -25 -93 -25q-67 0 -114 59q-45 56 -45 129q0 30 -29 52t-68 22q-65 0 -132 -51q-67 -50 -67 -96q0 -55 164 -83q122 -21 145 -78q12 -30 12 -60q0 -38 -32 -110q-31 -49 -136 -106q-158 -82 -299 -82q-148 0 -238 87q-97 94 -97 267q0 128 65 276l42 -19
q-41 -87 -41 -195q0 -133 87 -212q82 -75 209 -75q84 0 191 39q67 27 111 52q49 28 74 57q0 12 -44 25l-43 10l-34 6q-2 1 -6 1q-1 1 -5 1q-46 8 -76 17q-38 11 -62 27q-56 38 -56 113q0 44 25 105q28 69 71 113q97 102 205 102q56 0 83 -37q11 -16 20 -42q6 -19 13 -52
q32 -134 131 -134q48 0 89 29z" />
    <glyph glyph-name="uniFD17" unicode="&#xfeb4;&#xfef0;" horiz-adv-x="1697" arabic-form="final" 
d="M883 356q11 -16 20 -42q6 -19 13 -52q32 -134 131 -134q49 0 87 28q42 37 73 154l70 36l6 -4l-17 -74q-3 -11 -4 -19q-9 -40 -9 -63q0 -58 56 -58q22 0 41 7q13 5 28 15q38 26 58 96l8 29q6 23 12 50l76 51l4 -3q-11 -36 -17 -71q-8 -40 -8 -66q0 -56 46 -84
q42 -24 118 -24h22v-128h-25q-88 0 -140 26q-46 23 -66 68h-6q-80 -94 -171 -94q-39 0 -65 15q-33 20 -44 68h-4q-35 -42 -64 -60q-38 -23 -89 -23q-67 0 -114 59q-45 56 -45 129q0 30 -29 52t-68 22q-65 0 -132 -51q-67 -50 -67 -96q0 -55 164 -83q122 -21 145 -78
q12 -30 12 -60q0 -38 -32 -110q-31 -49 -136 -106q-158 -82 -299 -82q-148 0 -238 87q-97 94 -97 267q0 128 65 276l42 -19q-41 -87 -41 -195q0 -133 87 -212q82 -75 209 -75q84 0 191 39q67 27 111 52q49 28 74 57q0 12 -44 25l-43 10l-34 6q-2 1 -6 1q-1 1 -5 1
q-46 8 -76 17q-38 11 -62 27q-56 38 -56 113q0 44 25 105q28 69 71 113q97 102 205 102q56 0 83 -37z" />
    <glyph glyph-name="uniFCFC" unicode="&#xfeb3;&#xfef2;" horiz-adv-x="1587" arabic-form="isolated" 
d="M1136 157q30 23 71 159l60 35l6 -4q-13 -52 -13 -98q0 -53 34 -86q30 -29 70 -29q53 0 53 45q0 27 -8 74q-6 37 -17 88q42 50 90 90l6 -3q8 -53 13 -101q3 -42 3 -77q0 -32 -11 -72q-10 -36 -25 -65q-30 -50 -66 -79q-40 -31 -82 -31q-66 0 -125 83h-8q-39 -42 -71 -61
q-42 -25 -93 -25q-67 0 -114 59q-45 56 -45 129q0 30 -29 52t-68 22q-65 0 -132 -51q-67 -50 -67 -96q0 -55 164 -83q122 -21 145 -78q12 -30 12 -60q0 -38 -32 -110q-31 -49 -136 -106q-158 -82 -299 -82q-148 0 -238 87q-97 94 -97 267q0 128 65 276l42 -19
q-41 -87 -41 -195q0 -133 87 -212q82 -75 209 -75q84 0 191 39q67 27 111 52q49 28 74 57q0 12 -44 25l-43 10l-34 6q-2 1 -6 1q-1 1 -5 1q-46 8 -76 17q-38 11 -62 27q-56 38 -56 113q0 44 25 105q28 69 71 113q97 102 205 102q56 0 83 -37q11 -16 20 -42q6 -19 13 -52
q32 -134 131 -134q48 0 89 29z" />
    <glyph glyph-name="uniFD18" unicode="&#xfeb4;&#xfef2;" horiz-adv-x="1697" arabic-form="final" 
d="M883 356q11 -16 20 -42q6 -19 13 -52q32 -134 131 -134q49 0 87 28q42 37 73 154l70 36l6 -4l-17 -74q-3 -11 -4 -19q-9 -40 -9 -63q0 -58 56 -58q22 0 41 7q13 5 28 15q38 26 58 96l8 29q6 23 12 50l76 51l4 -3q-11 -36 -17 -71q-8 -40 -8 -66q0 -56 46 -84
q42 -24 118 -24h22v-128h-25q-88 0 -140 26q-46 23 -66 68h-6q-80 -94 -171 -94q-39 0 -65 15q-33 20 -44 68h-4q-35 -42 -64 -60q-38 -23 -89 -23q-67 0 -114 59q-45 56 -45 129q0 30 -29 52t-68 22q-65 0 -132 -51q-67 -50 -67 -96q0 -55 164 -83q122 -21 145 -78
q12 -30 12 -60q0 -38 -32 -110q-31 -49 -136 -106q-158 -82 -299 -82q-148 0 -238 87q-97 94 -97 267q0 128 65 276l42 -19q-41 -87 -41 -195q0 -133 87 -212q82 -75 209 -75q84 0 191 39q67 27 111 52q49 28 74 57q0 12 -44 25l-43 10l-34 6q-2 1 -6 1q-1 1 -5 1
q-46 8 -76 17q-38 11 -62 27q-56 38 -56 113q0 44 25 105q28 69 71 113q97 102 205 102q56 0 83 -37z" />
    <glyph glyph-name="uniFD0D" unicode="&#xfeb7;&#xfeae;" horiz-adv-x="1490" arabic-form="isolated" 
d="M1039 157q30 23 71 159l60 35l6 -4q-13 -52 -13 -98q0 -53 34 -86q30 -29 70 -29q53 0 53 45q0 27 -8 74q-6 37 -17 88q42 50 90 90l6 -3q8 -53 13 -101q3 -42 3 -77q0 -32 -11 -72q-10 -36 -25 -65q-30 -50 -66 -79q-40 -31 -82 -31q-66 0 -125 83h-8q-16 -18 -30 -30
q-18 -17 -35 -28q-45 -28 -93 -28q-73 0 -119 52q-47 53 -46 139l-69 -22q-35 -11 -60 -20q-61 -21 -103 -42q12 -37 12 -74q0 -28 -1 -63l-3 -63q-4 -101 -77 -190q-62 -64 -118 -94q-52 -28 -103 -28q-104 0 -242 97l15 28q57 -26 122 -26q68 0 135 31q60 27 123 80
q99 103 99 163q0 23 -22 56q-17 27 -51 64q9 56 30 121q90 37 181 66q96 31 192 52l2 -7q-6 -24 -6 -60q0 -51 38 -91q39 -41 89 -41q48 0 89 29zM1096 710q-59 56 -117 104q37 52 79 95q53 -42 114 -107q-43 -61 -76 -92zM1042 497q-59 56 -117 104q37 52 79 95
q53 -42 114 -107q-43 -61 -76 -92zM1235 510q-59 56 -117 104q37 52 79 95q53 -42 114 -107q-43 -61 -76 -92z" />
    <glyph glyph-name="uniFD29" unicode="&#xfeb8;&#xfeae;" horiz-adv-x="1601" arabic-form="final" 
d="M635 275q96 31 192 52l2 -7q-6 -24 -6 -60q0 -51 38 -91q39 -41 89 -41t84 26q22 15 38 46q19 35 41 107l67 35l4 -4l-19 -94q-8 -40 -8 -58q0 -58 56 -58q22 0 41 7q13 5 28 15q38 26 58 96l8 29q6 23 12 50l76 51l4 -3q-11 -36 -17 -71q-8 -40 -8 -66q0 -56 46 -84
q42 -24 118 -24h22v-128h-25q-88 0 -140 26q-46 23 -66 68h-6q-80 -94 -171 -94q-38 0 -63 15q-33 20 -45 68h-5q-61 -83 -150 -83q-72 0 -117 52q-47 54 -46 139l-69 -22q-35 -11 -60 -20q-61 -21 -103 -42q12 -37 12 -74q0 -28 -1 -63l-3 -63q-4 -101 -77 -190
q-62 -64 -118 -94q-52 -28 -103 -28q-104 0 -242 97l15 28q57 -26 122 -26q68 0 135 31q60 27 123 80q99 103 99 163q0 23 -22 56q-17 27 -51 64q9 56 30 121q90 37 181 66zM1126 710q-59 56 -117 104q37 52 79 95q53 -42 114 -107q-43 -61 -76 -92zM1072 497
q-59 56 -117 104q37 52 79 95q53 -42 114 -107q-43 -61 -76 -92zM1265 510q-59 56 -117 104q37 52 79 95q53 -42 114 -107q-43 -61 -76 -92z" />
    <glyph glyph-name="uniFCFD" unicode="&#xfeb7;&#xfef0;" horiz-adv-x="1587" arabic-form="isolated" 
d="M1136 157q30 23 71 159l60 35l6 -4q-13 -52 -13 -98q0 -53 34 -86q30 -29 70 -29q53 0 53 45q0 27 -8 74q-6 37 -17 88q42 50 90 90l6 -3q8 -53 13 -101q3 -42 3 -77q0 -32 -11 -72q-10 -36 -25 -65q-30 -50 -66 -79q-40 -31 -82 -31q-66 0 -125 83h-8q-39 -42 -71 -61
q-42 -25 -93 -25q-67 0 -114 59q-45 56 -45 129q0 30 -29 52t-68 22q-65 0 -132 -51q-67 -50 -67 -96q0 -55 164 -83q122 -21 145 -78q12 -30 12 -60q0 -38 -32 -110q-31 -49 -136 -106q-158 -82 -299 -82q-148 0 -238 87q-97 94 -97 267q0 128 65 276l42 -19
q-41 -87 -41 -195q0 -133 87 -212q82 -75 209 -75q84 0 191 39q67 27 111 52q49 28 74 57q0 12 -44 25l-43 10l-34 6q-2 1 -6 1q-1 1 -5 1q-46 8 -76 17q-38 11 -62 27q-56 38 -56 113q0 44 25 105q28 69 71 113q97 102 205 102q56 0 83 -37q11 -16 20 -42q6 -19 13 -52
q32 -134 131 -134q48 0 89 29zM1186 710q-59 56 -117 104q37 52 79 95q53 -42 114 -107q-43 -61 -76 -92zM1132 497q-59 56 -117 104q37 52 79 95q53 -42 114 -107q-43 -61 -76 -92zM1325 510q-59 56 -117 104q37 52 79 95q53 -42 114 -107q-43 -61 -76 -92z" />
    <glyph glyph-name="uniFD19" unicode="&#xfeb8;&#xfef0;" horiz-adv-x="1697" arabic-form="final" 
d="M883 356q11 -16 20 -42q6 -19 13 -52q32 -134 131 -134q49 0 87 28q42 37 73 154l70 36l6 -4l-17 -74q-3 -11 -4 -19q-9 -40 -9 -63q0 -58 56 -58q22 0 41 7q13 5 28 15q38 26 58 96l8 29q6 23 12 50l76 51l4 -3q-11 -36 -17 -71q-8 -40 -8 -66q0 -56 46 -84
q42 -24 118 -24h22v-128h-25q-88 0 -140 26q-46 23 -66 68h-6q-80 -94 -171 -94q-39 0 -65 15q-33 20 -44 68h-4q-35 -42 -64 -60q-38 -23 -89 -23q-67 0 -114 59q-45 56 -45 129q0 30 -29 52t-68 22q-65 0 -132 -51q-67 -50 -67 -96q0 -55 164 -83q122 -21 145 -78
q12 -30 12 -60q0 -38 -32 -110q-31 -49 -136 -106q-158 -82 -299 -82q-148 0 -238 87q-97 94 -97 267q0 128 65 276l42 -19q-41 -87 -41 -195q0 -133 87 -212q82 -75 209 -75q84 0 191 39q67 27 111 52q49 28 74 57q0 12 -44 25l-43 10l-34 6q-2 1 -6 1q-1 1 -5 1
q-46 8 -76 17q-38 11 -62 27q-56 38 -56 113q0 44 25 105q28 69 71 113q97 102 205 102q56 0 83 -37zM1216 710q-59 56 -117 104q37 52 79 95q53 -42 114 -107q-43 -61 -76 -92zM1162 497q-59 56 -117 104q37 52 79 95q53 -42 114 -107q-43 -61 -76 -92zM1355 510
q-59 56 -117 104q37 52 79 95q53 -42 114 -107q-43 -61 -76 -92z" />
    <glyph glyph-name="uniFCFE" unicode="&#xfeb7;&#xfef2;" horiz-adv-x="1587" arabic-form="isolated" 
d="M1136 157q30 23 71 159l60 35l6 -4q-13 -52 -13 -98q0 -53 34 -86q30 -29 70 -29q53 0 53 45q0 27 -8 74q-6 37 -17 88q42 50 90 90l6 -3q8 -53 13 -101q3 -42 3 -77q0 -32 -11 -72q-10 -36 -25 -65q-30 -50 -66 -79q-40 -31 -82 -31q-66 0 -125 83h-8q-39 -42 -71 -61
q-42 -25 -93 -25q-67 0 -114 59q-45 56 -45 129q0 30 -29 52t-68 22q-65 0 -132 -51q-67 -50 -67 -96q0 -55 164 -83q122 -21 145 -78q12 -30 12 -60q0 -38 -32 -110q-31 -49 -136 -106q-158 -82 -299 -82q-148 0 -238 87q-97 94 -97 267q0 128 65 276l42 -19
q-41 -87 -41 -195q0 -133 87 -212q82 -75 209 -75q84 0 191 39q67 27 111 52q49 28 74 57q0 12 -44 25l-43 10l-34 6q-2 1 -6 1q-1 1 -5 1q-46 8 -76 17q-38 11 -62 27q-56 38 -56 113q0 44 25 105q28 69 71 113q97 102 205 102q56 0 83 -37q11 -16 20 -42q6 -19 13 -52
q32 -134 131 -134q48 0 89 29zM1186 710q-59 56 -117 104q37 52 79 95q53 -42 114 -107q-43 -61 -76 -92zM1132 497q-59 56 -117 104q37 52 79 95q53 -42 114 -107q-43 -61 -76 -92zM1325 510q-59 56 -117 104q37 52 79 95q53 -42 114 -107q-43 -61 -76 -92z" />
    <glyph glyph-name="uniFD1A" unicode="&#xfeb8;&#xfef2;" horiz-adv-x="1697" arabic-form="final" 
d="M883 356q11 -16 20 -42q6 -19 13 -52q32 -134 131 -134q49 0 87 28q42 37 73 154l70 36l6 -4l-17 -74q-3 -11 -4 -19q-9 -40 -9 -63q0 -58 56 -58q22 0 41 7q13 5 28 15q38 26 58 96l8 29q6 23 12 50l76 51l4 -3q-11 -36 -17 -71q-8 -40 -8 -66q0 -56 46 -84
q42 -24 118 -24h22v-128h-25q-88 0 -140 26q-46 23 -66 68h-6q-80 -94 -171 -94q-39 0 -65 15q-33 20 -44 68h-4q-35 -42 -64 -60q-38 -23 -89 -23q-67 0 -114 59q-45 56 -45 129q0 30 -29 52t-68 22q-65 0 -132 -51q-67 -50 -67 -96q0 -55 164 -83q122 -21 145 -78
q12 -30 12 -60q0 -38 -32 -110q-31 -49 -136 -106q-158 -82 -299 -82q-148 0 -238 87q-97 94 -97 267q0 128 65 276l42 -19q-41 -87 -41 -195q0 -133 87 -212q82 -75 209 -75q84 0 191 39q67 27 111 52q49 28 74 57q0 12 -44 25l-43 10l-34 6q-2 1 -6 1q-1 1 -5 1
q-46 8 -76 17q-38 11 -62 27q-56 38 -56 113q0 44 25 105q28 69 71 113q97 102 205 102q56 0 83 -37zM1216 710q-59 56 -117 104q37 52 79 95q53 -42 114 -107q-43 -61 -76 -92zM1162 497q-59 56 -117 104q37 52 79 95q53 -42 114 -107q-43 -61 -76 -92zM1355 510
q-59 56 -117 104q37 52 79 95q53 -42 114 -107q-43 -61 -76 -92z" />
    <glyph glyph-name="uniFD0F" unicode="&#xfebb;&#xfeae;" horiz-adv-x="1690" arabic-form="isolated" 
d="M997 239q24 34 48 64q54 68 114 122q54 48 111 76q67 33 129 33q67 0 119 -34q43 -30 67 -76q14 -29 20 -60q5 -26 5 -57q0 -41 -19 -95q-43 -127 -208 -181q-90 -31 -249 -31q-120 0 -190 33q-21 -29 -44 -66l-40 -70l-21 12q10 40 21 76q12 41 27 80q-85 63 -94 153
q-154 -49 -246 -94q12 -37 12 -73q0 -32 -1 -67l-4 -71q-6 -95 -87 -193q-63 -64 -119 -94q-52 -28 -102 -28q-104 0 -242 97l15 28q57 -26 122 -26q68 0 135 31q60 27 123 80q108 112 108 181q0 23 -21 55q-16 25 -50 62q9 56 30 121q166 69 362 134q8 -64 33 -105
q30 -52 92 -82zM1190 128q68 0 141 17q66 15 119 40q82 39 82 72q-10 65 -57 108q-49 44 -115 44q-86 0 -184 -73q-92 -70 -173 -187q63 -21 187 -21z" />
    <glyph glyph-name="uniFD2B" unicode="&#xfebc;&#xfeae;" horiz-adv-x="1689" arabic-form="final" 
d="M559 51q0 -32 -1 -67l-4 -71q-6 -95 -87 -193q-63 -64 -119 -94q-52 -28 -102 -28q-104 0 -242 97l15 28q57 -26 122 -26q68 0 135 31q60 27 123 80q108 112 108 181q0 23 -21 55q-16 25 -50 62q9 56 30 121q166 69 362 134q8 -64 33 -105q30 -52 92 -82l44 65
q24 35 46 63q54 69 114 121q55 49 103 73q60 30 121 30q103 0 166 -67q60 -62 60 -154q0 -40 -15 -88q-12 -42 -36 -89h133v-128h-26q-151 0 -299 35q-53 -17 -101 -25q-61 -10 -132 -10q-117 0 -187 33q-21 -29 -44 -66l-40 -70l-21 12q10 40 21 76q12 41 27 80
q-85 63 -94 153q-154 -49 -246 -94q12 -37 12 -73zM1078 134q48 -6 111 -6q71 0 148 14q68 13 112 31q82 33 82 75q-10 64 -65 107q-54 42 -122 42q-85 0 -172 -67q-78 -61 -166 -181q29 -10 72 -15z" />
    <glyph glyph-name="uniFD05" unicode="&#xfebb;&#xfef0;" horiz-adv-x="1765" arabic-form="isolated" 
d="M1072 239q24 34 48 64q54 68 114 122q54 48 111 76q67 33 129 33q67 0 119 -34q43 -30 67 -76q14 -29 20 -60q5 -26 5 -57q0 -41 -19 -95q-43 -127 -208 -181q-90 -31 -249 -31h-5q-100 0 -168 26l-55 -106l-14 3q5 71 16 130q-26 11 -57 46q-36 41 -55 91
q-29 72 -105 72q-65 0 -132 -51q-66 -50 -66 -96q0 -55 164 -83q122 -21 145 -78q12 -30 12 -60q0 -38 -32 -110q-31 -49 -136 -106q-158 -82 -299 -82q-148 0 -238 87q-97 94 -97 267q0 128 65 276l42 -19q-41 -87 -41 -195q0 -133 87 -212q82 -75 209 -75q84 0 191 39
q67 27 111 52q49 28 74 57q0 12 -44 25l-43 10l-34 6q-2 1 -6 1q-1 1 -5 1q-46 8 -76 17q-38 11 -62 27q-56 38 -56 113q0 44 25 105q28 69 71 113q98 103 205 103q75 0 101 -71q20 -50 56 -91q33 -36 71 -58zM1264 128q68 0 141 17q66 15 119 40q82 39 82 72
q-10 65 -57 108q-49 44 -115 44q-86 0 -184 -73q-92 -70 -173 -187q63 -21 187 -21z" />
    <glyph glyph-name="uniFD21" unicode="&#xfebc;&#xfef0;" horiz-adv-x="1762" arabic-form="final" 
d="M184 -317q-97 94 -97 267q0 128 65 276l42 -19q-41 -87 -41 -195q0 -133 87 -212q82 -75 209 -75q84 0 191 39q67 27 111 52q49 28 74 57q0 12 -44 25l-43 10l-34 6q-2 1 -6 1q-1 1 -5 1q-46 8 -76 17q-38 11 -62 27q-56 38 -56 113q0 44 25 105q28 69 71 113
q98 103 205 103q75 0 101 -71q20 -50 56 -91q33 -36 71 -58l43 65l46 63q54 69 113 121q55 49 103 73q60 30 121 30q103 0 166 -67q60 -62 60 -154q0 -40 -15 -88q-12 -42 -36 -89h133v-128h-26q-151 0 -299 35q-53 -17 -101 -25q-61 -10 -132 -10q-100 0 -168 26l-55 -106
l-14 3q5 71 16 130q-26 11 -57 46q-36 41 -55 91q-29 72 -105 72q-65 0 -132 -51q-66 -50 -66 -96q0 -55 164 -83q122 -21 145 -78q12 -30 12 -60q0 -38 -32 -110q-31 -49 -136 -106q-158 -82 -299 -82q-148 0 -238 87zM1152 135q48 -7 110 -7q71 0 148 14q68 13 112 31
q82 33 82 75q-10 64 -65 107q-54 42 -122 42q-85 0 -171 -66q-78 -60 -165 -180q31 -10 71 -16z" />
    <glyph glyph-name="uniFD06" unicode="&#xfebb;&#xfef2;" horiz-adv-x="1765" arabic-form="isolated" 
d="M1072 239q24 34 48 64q54 68 114 122q54 48 111 76q67 33 129 33q67 0 119 -34q43 -30 67 -76q14 -29 20 -60q5 -26 5 -57q0 -41 -19 -95q-43 -127 -208 -181q-90 -31 -249 -31h-5q-100 0 -168 26l-55 -106l-14 3q5 71 16 130q-26 11 -57 46q-36 41 -55 91
q-29 72 -105 72q-65 0 -132 -51q-66 -50 -66 -96q0 -55 164 -83q122 -21 145 -78q12 -30 12 -60q0 -38 -32 -110q-31 -49 -136 -106q-158 -82 -299 -82q-148 0 -238 87q-97 94 -97 267q0 128 65 276l42 -19q-41 -87 -41 -195q0 -133 87 -212q82 -75 209 -75q84 0 191 39
q67 27 111 52q49 28 74 57q0 12 -44 25l-43 10l-34 6q-2 1 -6 1q-1 1 -5 1q-46 8 -76 17q-38 11 -62 27q-56 38 -56 113q0 44 25 105q28 69 71 113q98 103 205 103q75 0 101 -71q20 -50 56 -91q33 -36 71 -58zM1264 128q68 0 141 17q66 15 119 40q82 39 82 72
q-10 65 -57 108q-49 44 -115 44q-86 0 -184 -73q-92 -70 -173 -187q63 -21 187 -21z" />
    <glyph glyph-name="uniFD22" unicode="&#xfebc;&#xfef2;" horiz-adv-x="1762" arabic-form="final" 
d="M184 -317q-97 94 -97 267q0 128 65 276l42 -19q-41 -87 -41 -195q0 -133 87 -212q82 -75 209 -75q84 0 191 39q67 27 111 52q49 28 74 57q0 12 -44 25l-43 10l-34 6q-2 1 -6 1q-1 1 -5 1q-46 8 -76 17q-38 11 -62 27q-56 38 -56 113q0 44 25 105q28 69 71 113
q98 103 205 103q75 0 101 -71q20 -50 56 -91q33 -36 71 -58l43 65l46 63q54 69 113 121q55 49 103 73q60 30 121 30q103 0 166 -67q60 -62 60 -154q0 -40 -15 -88q-12 -42 -36 -89h133v-128h-26q-151 0 -299 35q-53 -17 -101 -25q-61 -10 -132 -10q-100 0 -168 26l-55 -106
l-14 3q5 71 16 130q-26 11 -57 46q-36 41 -55 91q-29 72 -105 72q-65 0 -132 -51q-66 -50 -66 -96q0 -55 164 -83q122 -21 145 -78q12 -30 12 -60q0 -38 -32 -110q-31 -49 -136 -106q-158 -82 -299 -82q-148 0 -238 87zM1152 135q48 -7 110 -7q71 0 148 14q68 13 112 31
q82 33 82 75q-10 64 -65 107q-54 42 -122 42q-85 0 -171 -66q-78 -60 -165 -180q31 -10 71 -16z" />
    <glyph glyph-name="uniFD10" unicode="&#xfebf;&#xfeae;" horiz-adv-x="1690" arabic-form="isolated" 
d="M997 239q24 34 48 64q54 68 114 122q54 48 111 76q67 33 129 33q67 0 119 -34q43 -30 67 -76q14 -29 20 -60q5 -26 5 -57q0 -41 -19 -95q-43 -127 -208 -181q-90 -31 -249 -31q-120 0 -190 33q-21 -29 -44 -66l-40 -70l-21 12q10 40 21 76q12 41 27 80q-85 63 -94 153
q-154 -49 -246 -94q12 -37 12 -73q0 -32 -1 -67l-4 -71q-6 -95 -87 -193q-63 -64 -119 -94q-52 -28 -102 -28q-104 0 -242 97l15 28q57 -26 122 -26q68 0 135 31q60 27 123 80q108 112 108 181q0 23 -21 55q-16 25 -50 62q9 56 30 121q166 69 362 134q8 -64 33 -105
q30 -52 92 -82zM1190 128q68 0 141 17q66 15 119 40q82 39 82 72q-10 65 -57 108q-49 44 -115 44q-86 0 -184 -73q-92 -70 -173 -187q63 -21 187 -21zM1095 769q23 31 41 53q21 28 40 49q60 -44 120 -107q-35 -57 -83 -98q-25 24 -59 53z" />
    <glyph glyph-name="uniFD2C" unicode="&#xfec0;&#xfeae;" horiz-adv-x="1689" arabic-form="final" 
d="M559 51q0 -32 -1 -67l-4 -71q-6 -95 -87 -193q-63 -64 -119 -94q-52 -28 -102 -28q-104 0 -242 97l15 28q57 -26 122 -26q68 0 135 31q60 27 123 80q108 112 108 181q0 23 -21 55q-16 25 -50 62q9 56 30 121q166 69 362 134q8 -64 33 -105q30 -52 92 -82l44 65
q24 35 46 63q54 69 114 121q55 49 103 73q60 30 121 30q103 0 166 -67q60 -62 60 -154q0 -40 -15 -88q-12 -42 -36 -89h133v-128h-26q-151 0 -299 35q-53 -17 -101 -25q-61 -10 -132 -10q-117 0 -187 33q-21 -29 -44 -66l-40 -70l-21 12q10 40 21 76q12 41 27 80
q-85 63 -94 153q-154 -49 -246 -94q12 -37 12 -73zM1078 134q48 -6 111 -6q71 0 148 14q68 13 112 31q82 33 82 75q-10 64 -65 107q-54 42 -122 42q-85 0 -172 -67q-78 -61 -166 -181q29 -10 72 -15zM1085 769q23 31 41 53q21 28 40 49q60 -44 120 -107q-35 -57 -83 -98
q-25 24 -59 53z" />
    <glyph glyph-name="uniFD07" unicode="&#xfebf;&#xfef0;" horiz-adv-x="1765" arabic-form="isolated" 
d="M1072 239q24 34 48 64q54 68 114 122q54 48 111 76q67 33 129 33q67 0 119 -34q43 -30 67 -76q14 -29 20 -60q5 -26 5 -57q0 -41 -19 -95q-43 -127 -208 -181q-90 -31 -249 -31h-5q-100 0 -168 26l-55 -106l-14 3q5 71 16 130q-26 11 -57 46q-36 41 -55 91
q-29 72 -105 72q-65 0 -132 -51q-66 -50 -66 -96q0 -55 164 -83q122 -21 145 -78q12 -30 12 -60q0 -38 -32 -110q-31 -49 -136 -106q-158 -82 -299 -82q-148 0 -238 87q-97 94 -97 267q0 128 65 276l42 -19q-41 -87 -41 -195q0 -133 87 -212q82 -75 209 -75q84 0 191 39
q67 27 111 52q49 28 74 57q0 12 -44 25l-43 10l-34 6q-2 1 -6 1q-1 1 -5 1q-46 8 -76 17q-38 11 -62 27q-56 38 -56 113q0 44 25 105q28 69 71 113q98 103 205 103q75 0 101 -71q20 -50 56 -91q33 -36 71 -58zM1264 128q68 0 141 17q66 15 119 40q82 39 82 72
q-10 65 -57 108q-49 44 -115 44q-86 0 -184 -73q-92 -70 -173 -187q63 -21 187 -21zM1155 769q23 31 41 53q21 28 40 49q60 -44 120 -107q-35 -57 -83 -98q-25 24 -59 53z" />
    <glyph glyph-name="uniFD23" unicode="&#xfec0;&#xfef0;" horiz-adv-x="1762" arabic-form="final" 
d="M184 -317q-97 94 -97 267q0 128 65 276l42 -19q-41 -87 -41 -195q0 -133 87 -212q82 -75 209 -75q84 0 191 39q67 27 111 52q49 28 74 57q0 12 -44 25l-43 10l-34 6q-2 1 -6 1q-1 1 -5 1q-46 8 -76 17q-38 11 -62 27q-56 38 -56 113q0 44 25 105q28 69 71 113
q98 103 205 103q75 0 101 -71q20 -50 56 -91q33 -36 71 -58l43 65l46 63q54 69 113 121q55 49 103 73q60 30 121 30q103 0 166 -67q60 -62 60 -154q0 -40 -15 -88q-12 -42 -36 -89h133v-128h-26q-151 0 -299 35q-53 -17 -101 -25q-61 -10 -132 -10q-100 0 -168 26l-55 -106
l-14 3q5 71 16 130q-26 11 -57 46q-36 41 -55 91q-29 72 -105 72q-65 0 -132 -51q-66 -50 -66 -96q0 -55 164 -83q122 -21 145 -78q12 -30 12 -60q0 -38 -32 -110q-31 -49 -136 -106q-158 -82 -299 -82q-148 0 -238 87zM1152 135q48 -7 110 -7q71 0 148 14q68 13 112 31
q82 33 82 75q-10 64 -65 107q-54 42 -122 42q-85 0 -171 -66q-78 -60 -165 -180q31 -10 71 -16zM1145 769q23 31 41 53q21 28 40 49q60 -44 120 -107q-35 -57 -83 -98q-25 24 -59 53z" />
    <glyph glyph-name="uniFD08" unicode="&#xfebf;&#xfef2;" horiz-adv-x="1765" arabic-form="isolated" 
d="M1072 239q24 34 48 64q54 68 114 122q54 48 111 76q67 33 129 33q67 0 119 -34q43 -30 67 -76q14 -29 20 -60q5 -26 5 -57q0 -41 -19 -95q-43 -127 -208 -181q-90 -31 -249 -31h-5q-100 0 -168 26l-55 -106l-14 3q5 71 16 130q-26 11 -57 46q-36 41 -55 91
q-29 72 -105 72q-65 0 -132 -51q-66 -50 -66 -96q0 -55 164 -83q122 -21 145 -78q12 -30 12 -60q0 -38 -32 -110q-31 -49 -136 -106q-158 -82 -299 -82q-148 0 -238 87q-97 94 -97 267q0 128 65 276l42 -19q-41 -87 -41 -195q0 -133 87 -212q82 -75 209 -75q84 0 191 39
q67 27 111 52q49 28 74 57q0 12 -44 25l-43 10l-34 6q-2 1 -6 1q-1 1 -5 1q-46 8 -76 17q-38 11 -62 27q-56 38 -56 113q0 44 25 105q28 69 71 113q98 103 205 103q75 0 101 -71q20 -50 56 -91q33 -36 71 -58zM1264 128q68 0 141 17q66 15 119 40q82 39 82 72
q-10 65 -57 108q-49 44 -115 44q-86 0 -184 -73q-92 -70 -173 -187q63 -21 187 -21zM1155 769q23 31 41 53q21 28 40 49q60 -44 120 -107q-35 -57 -83 -98q-25 24 -59 53z" />
    <glyph glyph-name="uniFD24" unicode="&#xfec0;&#xfef2;" horiz-adv-x="1762" arabic-form="final" 
d="M184 -317q-97 94 -97 267q0 128 65 276l42 -19q-41 -87 -41 -195q0 -133 87 -212q82 -75 209 -75q84 0 191 39q67 27 111 52q49 28 74 57q0 12 -44 25l-43 10l-34 6q-2 1 -6 1q-1 1 -5 1q-46 8 -76 17q-38 11 -62 27q-56 38 -56 113q0 44 25 105q28 69 71 113
q98 103 205 103q75 0 101 -71q20 -50 56 -91q33 -36 71 -58l43 65l46 63q54 69 113 121q55 49 103 73q60 30 121 30q103 0 166 -67q60 -62 60 -154q0 -40 -15 -88q-12 -42 -36 -89h133v-128h-26q-151 0 -299 35q-53 -17 -101 -25q-61 -10 -132 -10q-100 0 -168 26l-55 -106
l-14 3q5 71 16 130q-26 11 -57 46q-36 41 -55 91q-29 72 -105 72q-65 0 -132 -51q-66 -50 -66 -96q0 -55 164 -83q122 -21 145 -78q12 -30 12 -60q0 -38 -32 -110q-31 -49 -136 -106q-158 -82 -299 -82q-148 0 -238 87zM1152 135q48 -7 110 -7q71 0 148 14q68 13 112 31
q82 33 82 75q-10 64 -65 107q-54 42 -122 42q-85 0 -171 -66q-78 -60 -165 -180q31 -10 71 -16zM1145 769q23 31 41 53q21 28 40 49q60 -44 120 -107q-35 -57 -83 -98q-25 24 -59 53z" />
    <glyph glyph-name="uniFC31" unicode="&#xfed3;&#xfef0;" horiz-adv-x="1013" arabic-form="isolated" 
d="M519 949q23 31 41 53q21 28 40 49q60 -44 120 -107q-35 -57 -83 -98q-25 24 -59 53zM805 338q-44 -11 -104 -11q-85 0 -140 23q-60 25 -83 77q-14 33 -14 68q0 113 70 185q59 62 121 62q110 0 180 -185q38 -102 38 -235q0 -74 -46 -142q67 -22 88 -51q18 -24 18 -81
q0 -60 -27 -114q-30 -57 -123 -119q-157 -107 -342 -107q-146 0 -248 95q-103 110 -103 267q0 87 18 167q16 73 48 147l40 -15q-38 -107 -38 -210q0 -114 58 -197q93 -114 237 -114q85 0 156 19q65 18 133 55q89 49 132 102q0 28 -113 51q-111 23 -242 23l-4 7l44 103
q249 29 249 99zM634 619q-43 0 -79 -29q-35 -29 -35 -59q0 -36 60 -62q57 -25 130 -25h21q11 0 20 1q24 0 41 3q-55 171 -158 171z" />
    <glyph glyph-name="uniFC32" unicode="&#xfed3;&#xfef2;" horiz-adv-x="1013" arabic-form="isolated" 
d="M519 949q23 31 41 53q21 28 40 49q60 -44 120 -107q-35 -57 -83 -98q-25 24 -59 53zM805 338q-44 -11 -104 -11q-85 0 -140 23q-60 25 -83 77q-14 33 -14 68q0 113 70 185q59 62 121 62q110 0 180 -185q38 -102 38 -235q0 -74 -46 -142q67 -22 88 -51q18 -24 18 -81
q0 -60 -27 -114q-30 -57 -123 -119q-157 -107 -342 -107q-146 0 -248 95q-103 110 -103 267q0 87 18 167q16 73 48 147l40 -15q-38 -107 -38 -210q0 -114 58 -197q93 -114 237 -114q85 0 156 19q65 18 133 55q89 49 132 102q0 28 -113 51q-111 23 -242 23l-4 7l44 103
q249 29 249 99zM634 619q-43 0 -79 -29q-35 -29 -35 -59q0 -36 60 -62q57 -25 130 -25h21q11 0 20 1q24 0 41 3q-55 171 -158 171z" />
    <glyph glyph-name="uniFEDB_uniFEF0.liga" unicode="&#xfedb;&#xfef0;" horiz-adv-x="1116" 
d="M823 303q-19 36 -48 76q-18 25 -41 52q-27 32 -59 66q-37 38 -81 79q-48 45 -104 91q-36 30 -36 92q0 26 21 64q17 30 77 61q81 41 227 94l146 51l165 55l7 -8q-15 -28 -36 -61q-16 -27 -39 -62q-79 -20 -161 -49q-77 -27 -161 -61q-80 -31 -168 -70v-3l164 -61l-23 -51
q231 -231 231 -364q0 -58 -13 -97q-18 -52 -65 -91l-1 -4q108 -31 108 -134q0 -57 -39 -133q-57 -55 -120 -96q-59 -38 -122 -63q-58 -23 -118 -34q-54 -11 -106 -11q-142 0 -238 91q-106 113 -106 268q0 83 23 168q9 37 24 77q12 33 29 72l38 -17q-22 -59 -33 -107
q-13 -55 -13 -104q0 -112 59 -197q93 -113 228 -113q150 0 289 74q52 28 87 51q45 30 61 51q0 24 -115 49q-108 23 -227 30l-8 10l46 104q118 17 197 49q75 31 75 59q0 17 -21 57z" />
    <glyph glyph-name="uniFEDC_uniFEF0.liga" unicode="&#xfedc;&#xfef0;" horiz-adv-x="1343" 
d="M893 283l-5 10q-3 6 -4 10q-29 62 -99 146q-30 36 -70 78l-114 118q-17 18 -27 30l-5 27q-2 16 -2 28q0 38 27 86q11 20 36 37q72 47 243 110q76 28 175 61l197 63l4 -6q-30 -61 -77 -123q-42 -11 -106 -31l-123 -43l-88 -34l-82 -32q-84 -35 -133 -61v-3q36 -23 82 -45
q17 -9 38 -18l34 -15l-30 -50q75 -68 174 -175l95 -106l100 -115q87 -102 193 -102h17v-128h-20q-84 0 -149 46q-28 20 -57 51q-23 25 -53 65l-54 70q-26 33 -49 58l-4 -1q-10 -142 -112 -196l1 -5q87 -34 87 -122q0 -55 -39 -131q-57 -55 -120 -96q-59 -38 -122 -63
q-58 -23 -118 -34q-54 -11 -106 -11q-142 0 -238 91q-106 113 -106 268q0 83 23 168q9 37 24 77q12 33 29 72l38 -17q-22 -59 -33 -107q-13 -55 -13 -104q0 -112 59 -197q93 -113 228 -113q150 0 289 74l44 25q25 14 43 25q46 30 61 50q0 28 -100 52q-97 23 -212 27l-7 10
l45 106q123 19 206 52q89 36 90 73q0 9 -5 20z" />
    <glyph glyph-name="uniFEDB_uniFEF2.liga" unicode="&#xfedb;&#xfef2;" horiz-adv-x="1116" 
d="M823 303q-19 36 -48 76q-18 25 -41 52q-27 32 -59 66q-37 38 -81 79q-48 45 -104 91q-36 30 -36 92q0 26 21 64q17 30 77 61q81 41 227 94l146 51l165 55l7 -8q-15 -28 -36 -61q-16 -27 -39 -62q-79 -20 -161 -49q-77 -27 -161 -61q-80 -31 -168 -70v-3l164 -61l-23 -51
q231 -231 231 -364q0 -58 -13 -97q-18 -52 -65 -91l-1 -4q108 -31 108 -134q0 -57 -39 -133q-57 -55 -120 -96q-59 -38 -122 -63q-58 -23 -118 -34q-54 -11 -106 -11q-142 0 -238 91q-106 113 -106 268q0 83 23 168q9 37 24 77q12 33 29 72l38 -17q-22 -59 -33 -107
q-13 -55 -13 -104q0 -112 59 -197q93 -113 228 -113q150 0 289 74q52 28 87 51q45 30 61 51q0 24 -115 49q-108 23 -227 30l-8 10l46 104q118 17 197 49q75 31 75 59q0 17 -21 57zM598 -645q-59 57 -117 104q37 52 79 95q53 -41 114 -107q-43 -61 -76 -92zM405 -658
q-59 57 -117 104q37 52 79 95q53 -41 114 -107q-43 -61 -76 -92z" />
    <glyph glyph-name="uniFEDC_uniFEF2.liga" unicode="&#xfedc;&#xfef2;" horiz-adv-x="1343" 
d="M893 283l-5 10q-3 6 -4 10q-29 62 -99 146q-30 36 -70 78l-114 118q-17 18 -27 30l-5 27q-2 16 -2 28q0 38 27 86q11 20 36 37q72 47 243 110q76 28 175 61l197 63l4 -6q-30 -61 -77 -123q-42 -11 -106 -31l-123 -43l-88 -34l-82 -32q-84 -35 -133 -61v-3q36 -23 82 -45
q17 -9 38 -18l34 -15l-30 -50q75 -68 174 -175l95 -106l100 -115q87 -102 193 -102h17v-128h-20q-84 0 -149 46q-28 20 -57 51q-23 25 -53 65l-54 70q-26 33 -49 58l-4 -1q-10 -142 -112 -196l1 -5q87 -34 87 -122q0 -55 -39 -131q-57 -55 -120 -96q-59 -38 -122 -63
q-58 -23 -118 -34q-54 -11 -106 -11q-142 0 -238 91q-106 113 -106 268q0 83 23 168q9 37 24 77q12 33 29 72l38 -17q-22 -59 -33 -107q-13 -55 -13 -104q0 -112 59 -197q93 -113 228 -113q150 0 289 74l44 25q25 14 43 25q46 30 61 50q0 28 -100 52q-97 23 -212 27l-7 10
l45 106q123 19 206 52q89 36 90 73q0 9 -5 20zM598 -645q-59 57 -117 104q37 52 79 95q53 -41 114 -107q-43 -61 -76 -92zM405 -658q-59 57 -117 104q37 52 79 95q53 -41 114 -107q-43 -61 -76 -92z" />
    <glyph glyph-name="uniFEFB" unicode="&#xfedf;&#xfe8e;" horiz-adv-x="813" arabic-form="isolated" 
d="M670 1024q-1 -7 -1 -10q-1 -6 -1 -11q0 -41 23 -95q19 -44 58 -108q-15 -14 -27 -24q-17 -14 -34 -25q4 -96 6 -179q2 -92 2 -180q0 -48 -10 -102q-8 -49 -23 -93q-41 -117 -111 -169q-115 -85 -251 -85q-63 0 -132 15q-29 6 -60 15l-55 16v11q299 40 448 130
q-3 27 -37 84q-13 23 -35 57l-41 63l-50 74l-168 246q-99 145 -99 186q0 14 18 49q14 26 28 47l5 1q26 -34 71 -83l92 -92l-32 -57l131 -204l58 -91l49 -83q42 -75 43 -174l6 -1q37 27 57 69q23 48 23 113q0 74 -7 175q-6 93 -19 229l-10 119q-2 22 -2 37q0 44 21 71
q11 15 27 33l32 31z" />
    <glyph glyph-name="uniFEFC" unicode="&#xfee0;&#xfe8e;" horiz-adv-x="849" arabic-form="final" 
d="M684 1029q5 -156 7 -293q3 -154 3 -293q0 -39 1 -64q1 -33 3 -59q6 -61 22 -100q16 -38 48 -64q34 -28 73 -28h8v-128h-19q-80 0 -138 66q-32 36 -50 86q-19 55 -19 124l-7 1q-27 -100 -89 -167q-50 -55 -129 -91q-103 -40 -204 -40l-109 10l-4 7q117 44 215 93
q91 45 166 94q-24 139 -288 489l-38 50q-22 29 -33 45q-33 47 -33 69q0 16 9 45l18 47h5q35 -36 89 -75q22 -16 50 -34l50 -33l-34 -59l80 -114q42 -64 80 -128q36 -62 55 -110q24 -60 24 -104q0 -14 -1 -31l-3 -32l3 -1q43 41 72 86q28 44 35 113q3 31 4 82q1 21 1 51v60
q0 40 -1 86q-1 39 -4 87q0 19 -2 44l-6 131q24 30 39 46q21 22 43 39z" />
    <glyph glyph-name="uniFEF5" unicode="&#xfedf;&#xfe82;" horiz-adv-x="905" arabic-form="isolated" 
d="M469 1144q-2 -5 -4 -11l-10 -30q-9 -23 -15 -34q-57 -48 -140 -48q-21 0 -48 3q-18 1 -49 6l-47 5q-24 3 -41 3q-11 0 -26 -23q-6 -9 -14 -25l-16 -29h-7l-34 61q0 43 19 73q24 38 72 38q29 0 71 -8l32 -7q3 0 5 -1q23 -5 37 -7q44 -8 76 -7q42 0 78 14q30 12 56 32z
M762 1024q-1 -7 -1 -10q-1 -6 -1 -11q0 -41 23 -95q19 -44 58 -108q-15 -14 -27 -24q-17 -14 -34 -25q4 -96 6 -179q2 -92 2 -180q0 -48 -10 -102q-8 -49 -23 -93q-41 -117 -111 -169q-115 -85 -251 -85q-63 0 -132 15q-29 6 -60 15l-55 16v11q299 40 448 130q-3 27 -37 84
q-13 23 -35 57l-41 63l-50 74l-168 246q-99 145 -99 186q0 14 18 49q14 26 28 47l5 1q26 -34 71 -83l92 -92l-32 -57l131 -204l58 -91l49 -83q42 -75 43 -174l6 -1q37 27 57 69q23 48 23 113q0 74 -7 175q-6 93 -19 229l-10 119q-2 22 -2 37q0 44 21 71q11 15 27 33l32 31z
" />
    <glyph glyph-name="uniFEF6" unicode="&#xfee0;&#xfe82;" horiz-adv-x="923" arabic-form="final" 
d="M469 1154q-2 -5 -4 -11l-10 -30q-9 -23 -15 -34q-57 -48 -140 -48q-21 0 -48 3q-18 1 -49 6l-47 5q-24 3 -41 3q-11 0 -26 -23q-6 -9 -14 -25l-16 -29h-7l-34 61q0 43 19 73q24 38 72 38q29 0 71 -8l32 -7q3 0 5 -1q23 -5 37 -7q44 -8 76 -7q42 0 78 14q30 12 56 32z
M758 1029q5 -156 7 -293q3 -154 3 -293q0 -39 1 -64q1 -33 3 -59q6 -61 22 -100q16 -38 48 -64q34 -28 73 -28h8v-128h-19q-80 0 -138 66q-32 36 -50 86q-19 55 -19 124l-7 1q-27 -100 -89 -167q-50 -55 -129 -91q-103 -40 -204 -40l-109 10l-4 7q117 44 215 93
q91 45 166 94q-24 139 -288 489l-38 50q-22 29 -33 45q-33 47 -33 69q0 16 9 45l18 47h5q35 -36 89 -75q22 -16 50 -34l50 -33l-34 -59l80 -114q42 -64 80 -128q36 -62 55 -110q24 -60 24 -104q0 -14 -1 -31l-3 -32l3 -1q43 41 72 86q28 44 35 113q3 31 4 82q1 21 1 51v60
q0 40 -1 86q-1 39 -4 87q0 19 -2 44l-6 131q24 30 39 46q21 22 43 39z" />
    <glyph glyph-name="uniFEF7" unicode="&#xfedf;&#xfe84;" horiz-adv-x="813" arabic-form="isolated" 
d="M331 1113q-19 -39 -39 -68q-146 -23 -260 -75l-2 3l24 42q19 24 46 33v3q-78 23 -78 87q0 41 47 88q64 57 121 57q63 0 63 -49q0 -17 -10 -35q-6 -12 -22 -30h-2q-18 35 -32 39q-10 3 -31 3q-25 0 -48 -12q-22 -11 -22 -23q0 -33 49 -50q40 -14 94 -14q23 0 51 1l51 3v-3
zM670 1024q-1 -7 -1 -10q-1 -6 -1 -11q0 -41 23 -95q19 -44 58 -108q-15 -14 -27 -24q-17 -14 -34 -25q4 -96 6 -179q2 -92 2 -180q0 -48 -10 -102q-8 -49 -23 -93q-41 -117 -111 -169q-115 -85 -251 -85q-63 0 -132 15q-29 6 -60 15l-55 16v11q299 40 448 130q-3 27 -37 84
q-13 23 -35 57l-41 63l-50 74l-168 246q-99 145 -99 186q0 14 18 49q14 26 28 47l5 1q26 -34 71 -83l92 -92l-32 -57l131 -204l58 -91l49 -83q42 -75 43 -174l6 -1q37 27 57 69q23 48 23 113q0 74 -7 175q-6 93 -19 229l-10 119q-2 22 -2 37q0 44 21 71q11 15 27 33l32 31z
" />
    <glyph glyph-name="uniFEF8" unicode="&#xfee0;&#xfe84;" horiz-adv-x="855" arabic-form="final" 
d="M327 1116q-19 -39 -39 -68q-146 -23 -260 -75l-2 3l24 42q19 24 46 33v3q-78 23 -78 87q0 41 47 88q64 57 121 57q63 0 63 -49q0 -17 -10 -35q-6 -12 -22 -30h-2q-18 35 -32 39q-10 3 -31 3q-25 0 -48 -12q-22 -11 -22 -23q0 -33 49 -50q40 -14 94 -14q23 0 51 1l51 3v-3
zM690 1029q5 -156 7 -293q3 -154 3 -293q0 -39 1 -64q1 -33 3 -59q6 -61 22 -100q16 -38 48 -64q34 -28 73 -28h8v-128h-19q-80 0 -138 66q-32 36 -50 86q-19 55 -19 124l-7 1q-27 -100 -89 -167q-50 -55 -129 -91q-103 -40 -204 -40l-109 10l-4 7q117 44 215 93
q91 45 166 94q-24 139 -288 489l-38 50q-22 29 -33 45q-33 47 -33 69q0 16 9 45l18 47h5q35 -36 89 -75q22 -16 50 -34l50 -33l-34 -59l80 -114q42 -64 80 -128q36 -62 55 -110q24 -60 24 -104q0 -14 -1 -31l-3 -32l3 -1q43 41 72 86q28 44 35 113q3 31 4 82q1 21 1 51v60
q0 40 -1 86q-1 39 -4 87q0 19 -2 44l-6 131q24 30 39 46q21 22 43 39z" />
    <glyph glyph-name="uniFEF9" unicode="&#xfedf;&#xfe88;" horiz-adv-x="813" arabic-form="isolated" 
d="M392 -294q-19 -39 -39 -68q-146 -23 -260 -75l-2 3l24 42q19 24 46 33v3q-78 24 -78 87q0 41 47 88q64 57 121 57q63 0 63 -49q0 -17 -10 -35q-6 -11 -22 -30h-2q-18 36 -32 39q-10 3 -31 3q-25 0 -48 -11q-22 -12 -22 -24q0 -32 49 -50q40 -14 94 -14q23 0 51 2
q17 0 51 2v-3zM670 1024q-1 -7 -1 -10q-1 -6 -1 -11q0 -41 23 -95q19 -44 58 -108q-15 -14 -27 -24q-17 -14 -34 -25q4 -96 6 -179q2 -92 2 -180q0 -48 -10 -102q-8 -49 -23 -93q-41 -117 -111 -169q-115 -85 -251 -85q-63 0 -132 15q-29 6 -60 15l-55 16v11q299 40 448 130
q-3 27 -37 84q-13 23 -35 57l-41 63l-50 74l-168 246q-99 145 -99 186q0 14 18 49q14 26 28 47l5 1q26 -34 71 -83l92 -92l-32 -57l131 -204l58 -91l49 -83q42 -75 43 -174l6 -1q37 27 57 69q23 48 23 113q0 74 -7 175q-6 93 -19 229l-10 119q-2 22 -2 37q0 44 21 71
q11 15 27 33l32 31z" />
    <glyph glyph-name="uniFEFA" unicode="&#xfee0;&#xfe88;" horiz-adv-x="849" arabic-form="final" 
d="M441 -249q-19 -39 -39 -68q-146 -23 -260 -75l-2 3l24 42q19 24 46 33v3q-78 24 -78 87q0 41 47 88q64 57 121 57q63 0 63 -49q0 -17 -10 -35q-6 -11 -22 -30h-2q-18 36 -32 39q-10 3 -31 3q-25 0 -48 -11q-22 -12 -22 -24q0 -32 49 -50q40 -14 94 -14q23 0 51 2
q17 0 51 2v-3zM684 1029q5 -156 7 -293q3 -154 3 -293q0 -39 1 -64q1 -33 3 -59q6 -61 22 -100q16 -38 48 -64q34 -28 73 -28h8v-128h-19q-80 0 -138 66q-32 36 -50 86q-19 55 -19 124l-7 1q-27 -100 -89 -167q-50 -55 -129 -91q-103 -40 -204 -40l-109 10l-4 7
q117 44 215 93q91 45 166 94q-24 139 -288 489l-38 50q-22 29 -33 45q-33 47 -33 69q0 16 9 45l18 47h5q35 -36 89 -75q22 -16 50 -34l50 -33l-34 -59l80 -114q42 -64 80 -128q36 -62 55 -110q24 -60 24 -104q0 -14 -1 -31l-3 -32l3 -1q43 41 72 86q28 44 35 113q3 31 4 82
q1 21 1 51v60q0 40 -1 86q-1 39 -4 87q0 19 -2 44l-6 131q24 30 39 46q21 22 43 39z" />
    <glyph glyph-name="uniFEDF_uniFB51.rlig" unicode="&#xfedf;&#xfb51;" horiz-adv-x="892" 
d="M749 1024q-1 -7 -1 -10q-1 -6 -1 -11q0 -41 23 -95q19 -44 58 -108q-15 -14 -27 -24q-17 -14 -34 -25q4 -96 6 -179q2 -92 2 -180q0 -48 -10 -102q-8 -49 -23 -93q-41 -117 -111 -169q-115 -85 -251 -85q-63 0 -132 15q-29 6 -60 15l-55 16v11q299 40 448 130
q-3 27 -37 84q-13 23 -35 57l-41 63l-50 74l-168 246q-99 145 -99 186q0 14 18 49q14 26 28 47l5 1q26 -34 71 -83l92 -92l-32 -57l131 -204l58 -91l49 -83q42 -75 43 -174l6 -1q37 27 57 69q23 48 23 113q0 74 -7 175q-6 93 -19 229l-10 119q-2 22 -2 37q0 44 21 71
q11 15 27 33l32 31zM24 998l5 73q32 63 59 63q15 0 39 -12q45 63 82 94q44 36 86 36t69 -30q28 -33 28 -90q0 -52 -37 -89q-40 -38 -101 -38q-35 0 -67 7q-26 6 -50 16q-9 3 -19 8l-14 7q-14 7 -17 7q-4 0 -11 -6q-7 -5 -16 -14q-15 -15 -30 -35zM263 1081q32 0 60 12
q30 13 31 32q-16 57 -70 59q-62 0 -126 -79q50 -24 105 -24z" />
    <glyph glyph-name="uniFEE0_uniFB51.rlig" unicode="&#xfee0;&#xfb51;" horiz-adv-x="918" 
d="M753 1029q5 -156 7 -293q3 -154 3 -293q0 -39 1 -64q1 -33 3 -59q6 -61 22 -100q16 -38 48 -64q34 -28 73 -28h8v-128h-19q-80 0 -138 66q-32 36 -50 86q-19 55 -19 124l-7 1q-27 -100 -89 -167q-50 -55 -129 -91q-103 -40 -204 -40l-109 10l-4 7q117 44 215 93
q91 45 166 94q-24 139 -288 489l-38 50q-22 29 -33 45q-33 47 -33 69q0 16 9 45l18 47h5q35 -36 89 -75q22 -16 50 -34l50 -33l-34 -59l80 -114q42 -64 80 -128q36 -62 55 -110q24 -60 24 -104q0 -14 -1 -31l-3 -32l3 -1q43 41 72 86q28 44 35 113q3 31 4 82q1 21 1 51v60
q0 40 -1 86q-1 39 -4 87q0 19 -2 44l-6 131q24 30 39 46q21 22 43 39zM24 998l5 73q32 63 59 63q15 0 39 -12q45 63 82 94q44 36 86 36t69 -30q28 -33 28 -90q0 -52 -37 -89q-40 -38 -101 -38q-35 0 -67 7q-26 6 -50 16q-9 3 -19 8l-14 7q-14 7 -17 7q-4 0 -11 -6
q-7 -5 -16 -14q-15 -15 -30 -35zM263 1081q32 0 60 12q30 13 31 32q-16 57 -70 59q-62 0 -126 -79q50 -24 105 -24z" />
    <glyph glyph-name="uniFEDF_uniFEE2.liga" unicode="&#xfedf;&#xfee2;" horiz-adv-x="804" 
d="M212 178q-52 -43 -52 -80q0 -60 24 -151q10 -37 25 -85l13 -43l14 -44l28 -85l25 -81q23 -86 23 -137t-23 -124h-17q0 41 -29 135q-12 37 -31 90l-69 197q-19 54 -31 94q-30 101 -30 151q-1 75 35 154q71 144 211 192l-8 149q-3 65 -5 126l-4 155q0 13 -2 36l-13 86
q-3 24 -3 40q0 52 27 82q20 24 56 52l10 -6l-2 -23v-19q0 -25 19 -65q20 -45 67 -118l-74 -48q0 -113 4 -221q3 -123 10 -208q46 13 105 13q95 0 155 -52q61 -54 61 -145q0 -87 -54 -148q-52 -59 -121 -59q-56 0 -100 27q-38 23 -66 66q-23 36 -39 84q-12 39 -19 81
q-69 -25 -120 -68zM481 152q49 -45 110 -45q44 0 73 26q3 68 -59 108q-51 34 -117 34q-21 0 -32 -1q-20 -1 -36 -6q11 -69 61 -116z" />
    <glyph glyph-name="uniFCCC" unicode="&#xfedf;&#xfee4;" horiz-adv-x="689" arabic-form="initial" 
d="M242 86q-103 -86 -228 -86h-14q-37 0 -55 23q-15 18 -15 44q0 23 15 40q19 21 55 21h9q71 0 128 19q49 17 99 52q-6 70 -11 146q-4 69 -7 143q-2 66 -3 137l-2 158l-6 79q-1 22 -1 38q0 53 31 88q20 24 56 52l10 -6q-2 -12 -3 -23v-19q1 -49 24 -104q17 -44 53 -100
l-73 -51q0 -231 4 -329q3 -90 13 -158l4 -2q62 35 128 35q67 0 114 -55q48 -54 48 -138q0 -87 -52 -142q-46 -50 -106 -50q-144 0 -210 189zM406 47q47 -38 97 -38q28 0 49 18q0 48 -37 93q-36 45 -94 45q-47 0 -81 -22q18 -57 66 -96z" />
    <glyph glyph-name="uniFC43" unicode="&#xfedf;&#xfef0;" horiz-adv-x="1003" arabic-form="isolated" 
d="M817 1024q-3 -90 81 -229q-31 -29 -66 -54l11 -260q1 -46 1 -84q0 -88 -12 -148q-15 -70 -53 -136q85 -20 114 -53q25 -29 25 -95q0 -55 -41 -135q-57 -55 -118 -96q-57 -38 -116 -62q-55 -23 -112 -34q-52 -10 -104 -10q-69 0 -134 28q-61 25 -105 66q-104 111 -104 268
q0 83 22 167q10 36 24 75q12 33 29 72l39 -15q-22 -61 -32 -106q-13 -56 -13 -104q0 -114 58 -197q93 -114 228 -114q77 0 146 17q77 19 142 58q43 27 74 50q37 28 53 49q0 27 -102 52q-92 22 -213 31l-7 9l48 104q79 12 124 32q36 16 56 41l2 55v54q-2 94 -8 207
q-6 122 -18 255l-7 66q-4 37 -4 59q0 34 30 67q21 26 55 55z" />
    <glyph glyph-name="uniFC86" unicode="&#xfee0;&#xfef0;" horiz-adv-x="1240" arabic-form="final" 
d="M1037 1037q4 -77 7 -160l4 -161l2 -162v-163q0 -69 13 -120q14 -57 46 -98q46 -45 117 -45h14v-128h-18q-122 0 -187 84q-56 73 -58 192h-5q-16 -61 -58 -107q-34 -38 -92 -72v-3q96 -25 96 -129q0 -55 -41 -135q-57 -55 -118 -96q-57 -38 -116 -62q-55 -23 -112 -34
q-52 -10 -104 -10q-69 0 -134 28q-61 25 -105 66q-104 111 -104 268q0 83 22 167q10 36 24 75q12 33 29 72l39 -15q-22 -61 -32 -106q-13 -56 -13 -104q0 -114 58 -197q93 -114 228 -114q76 0 146 18q77 19 142 57q43 26 74 50q37 28 53 49q0 27 -101 52q-91 21 -212 30
l-5 9l53 110q164 23 269 86q67 49 84 98q16 47 16 186q0 48 -2 104l-3 108q-3 45 -6 110l-6 114l41 49q23 25 45 45z" />
    <glyph glyph-name="uniFC44" unicode="&#xfedf;&#xfef2;" horiz-adv-x="1003" arabic-form="isolated" 
d="M817 1024q-3 -90 81 -229q-31 -29 -66 -54l11 -260q1 -46 1 -84q0 -88 -12 -148q-15 -70 -53 -136q85 -20 114 -53q25 -29 25 -95q0 -55 -41 -135q-57 -55 -118 -96q-57 -38 -116 -62q-55 -23 -112 -34q-52 -10 -104 -10q-69 0 -134 28q-61 25 -105 66q-104 111 -104 268
q0 83 22 167q10 36 24 75q12 33 29 72l39 -15q-22 -61 -32 -106q-13 -56 -13 -104q0 -114 58 -197q93 -114 228 -114q77 0 146 17q77 19 142 58q43 27 74 50q37 28 53 49q0 27 -102 52q-92 22 -213 31l-7 9l48 104q79 12 124 32q36 16 56 41l2 55v54q-2 94 -8 207
q-6 122 -18 255l-7 66q-4 37 -4 59q0 34 30 67q21 26 55 55z" />
    <glyph glyph-name="uniFC87" unicode="&#xfee0;&#xfef2;" horiz-adv-x="1240" arabic-form="final" 
d="M1037 1037q4 -77 7 -160l4 -161l2 -162v-163q0 -69 13 -120q14 -57 46 -98q46 -45 117 -45h14v-128h-18q-122 0 -187 84q-56 73 -58 192h-5q-16 -61 -58 -107q-34 -38 -92 -72v-3q96 -25 96 -129q0 -55 -41 -135q-57 -55 -118 -96q-57 -38 -116 -62q-55 -23 -112 -34
q-52 -10 -104 -10q-69 0 -134 28q-61 25 -105 66q-104 111 -104 268q0 83 22 167q10 36 24 75q12 33 29 72l39 -15q-22 -61 -32 -106q-13 -56 -13 -104q0 -114 58 -197q93 -114 228 -114q76 0 146 18q77 19 142 57q43 26 74 50q37 28 53 49q0 27 -101 52q-91 21 -212 30
l-5 9l53 110q164 23 269 86q67 49 84 98q16 47 16 186q0 48 -2 104l-3 108q-3 45 -6 110l-6 114l41 49q23 25 45 45z" />
    <glyph glyph-name="uniFEE4_uniFE8E.liga" unicode="&#xfee4;&#xfe8e;" horiz-adv-x="1059" 
d="M344 128q48 0 89 23q37 20 65 65q11 17 25 44l63 123q23 39 53 80h10q49 -65 91 -115q49 -59 99 -112q102 -108 208 -108h12v-128h-12q-115 0 -203 104l-3 -1v-16q0 -96 -41 -155q-36 -52 -84 -52q-72 0 -134 64q-60 62 -77 151h-5q-30 -45 -69 -68q-45 -27 -101 -27
q-92 0 -150 58q-43 44 -56 108q-6 30 -8 74q-2 35 -2 97q0 133 -7 292l-9 152q-4 72 -10 157q31 34 49 52q25 25 45 41l7 -4q6 -78 9 -171q3 -82 5 -181q1 -44 1 -93q1 -43 1 -93v-243q0 -44 23 -72q18 -23 52 -35q17 -6 37 -9l15 -2h12zM618 327q-27 -50 -36 -74
q-13 -34 -13 -62q0 -63 44 -118q47 -60 112 -60q54 0 54 73q0 41 -34 87q-13 18 -29 38q-12 16 -30 38q-4 6 -16 19l-47 59h-5z" />
    <glyph glyph-name="uniFEE4_uniFE82.liga" unicode="&#xfee4;&#xfe82;" horiz-adv-x="1131" 
d="M416 128q48 0 89 23q37 20 65 65q11 17 25 44l63 123q23 39 53 80h10q49 -65 91 -115q49 -59 99 -112q102 -108 208 -108h12v-128h-12q-115 0 -203 104l-3 -1v-16q0 -96 -41 -155q-36 -52 -84 -52q-72 0 -134 64q-60 62 -77 151h-5q-30 -45 -69 -68q-45 -27 -101 -27
q-92 0 -150 58q-43 44 -56 108q-6 30 -8 74q-2 35 -2 97q0 133 -7 292l-9 152q-4 72 -10 157q31 34 49 52q25 25 45 41l7 -4q6 -78 9 -171q3 -82 5 -181q1 -44 1 -93q1 -43 1 -93v-243q0 -44 23 -72q18 -23 52 -35q17 -6 37 -9l15 -2h12zM690 327q-27 -50 -36 -74
q-13 -34 -13 -62q0 -63 44 -118q47 -60 112 -60q54 0 54 73q0 41 -34 87q-13 18 -29 38q-12 16 -30 38q-4 6 -16 19l-47 59h-5zM469 1214q-2 -5 -4 -11l-10 -30q-9 -23 -15 -34q-57 -48 -140 -48q-21 0 -48 3q-18 1 -49 6l-47 5q-24 3 -41 3q-11 0 -26 -23q-6 -9 -14 -25
l-16 -29h-7l-34 61q0 43 19 73q24 38 72 38q23 0 52 -5q17 -2 54 -10q35 -7 55 -10q31 -5 56 -5q46 0 82 14q30 12 56 32z" />
    <glyph glyph-name="uniFEE4_uniFE84.liga" unicode="&#xfee4;&#xfe84;" horiz-adv-x="1103" 
d="M388 128q48 0 89 23q37 20 65 65q11 17 25 44l63 123q23 39 53 80h10q49 -65 91 -115q49 -59 99 -112q102 -108 208 -108h12v-128h-12q-115 0 -203 104l-3 -1v-16q0 -96 -41 -155q-36 -52 -84 -52q-72 0 -134 64q-60 62 -77 151h-5q-30 -45 -69 -68q-45 -27 -101 -27
q-92 0 -150 58q-43 44 -56 108q-6 30 -8 74q-2 35 -2 97q0 133 -7 292l-9 152q-4 72 -10 157q31 34 49 52q25 25 45 41l7 -4q6 -78 9 -171q3 -82 5 -181q1 -44 1 -93q1 -43 1 -93v-243q0 -44 23 -72q18 -23 52 -35q17 -6 37 -9l15 -2h12zM662 327q-27 -50 -36 -74
q-13 -34 -13 -62q0 -63 44 -118q47 -60 112 -60q54 0 54 73q0 41 -34 87q-13 18 -29 38q-12 16 -30 38q-4 6 -16 19l-47 59h-5zM344 1166q-19 -39 -39 -68q-146 -23 -260 -75l-2 3l24 42q19 24 46 33v3q-78 23 -78 87q0 41 47 88q64 57 121 57q63 0 63 -49q0 -17 -10 -35
q-6 -12 -22 -30h-2q-18 35 -32 39q-10 3 -31 3q-25 0 -48 -12q-22 -11 -22 -23q0 -33 49 -50q40 -14 94 -14q23 0 51 1l51 3v-3z" />
    <glyph glyph-name="uniFEE4_uniFE88.liga" unicode="&#xfee4;&#xfe88;" horiz-adv-x="1059" 
d="M361 -224q-19 -39 -39 -68q-146 -23 -260 -75l-2 3l24 42q19 24 46 33v3q-78 24 -78 87q0 41 47 88q64 57 121 57q63 0 63 -49q0 -17 -10 -35q-6 -11 -22 -30h-2q-18 36 -32 39q-10 3 -31 3q-25 0 -48 -11q-22 -12 -22 -24q0 -32 49 -50q40 -14 94 -14q23 0 51 2
q17 0 51 2v-3zM344 128q48 0 89 23q37 20 65 65q11 17 25 44l63 123q23 39 53 80h10q49 -65 91 -115q49 -59 99 -112q102 -108 208 -108h12v-128h-12q-115 0 -203 104l-3 -1v-16q0 -96 -41 -155q-36 -52 -84 -52q-72 0 -134 64q-60 62 -77 151h-5q-30 -45 -69 -68
q-45 -27 -101 -27q-92 0 -150 58q-43 44 -56 108q-6 30 -8 74q-2 35 -2 97q0 133 -7 292l-9 152q-4 72 -10 157q31 34 49 52q25 25 45 41l7 -4q6 -78 9 -171q3 -82 5 -181q1 -44 1 -93q1 -43 1 -93v-243q0 -44 23 -72q18 -23 52 -35q17 -6 37 -9l15 -2h12zM618 327
q-27 -50 -36 -74q-13 -34 -13 -62q0 -63 44 -118q47 -60 112 -60q54 0 54 73q0 41 -34 87q-13 18 -29 38q-12 16 -30 38q-4 6 -16 19l-47 59h-5z" />
    <glyph glyph-name="uniFEE8_uniFEAE.liga" unicode="&#xfee8;&#xfeae;" horiz-adv-x="910" 
d="M555 710q23 31 41 53q21 28 40 49q60 -44 120 -107q-35 -57 -83 -98q-25 24 -59 53zM704 479q2 -11 9 -54l18 -102q11 -62 31 -104q22 -49 54 -69q41 -22 81 -22h13v-128h-18q-89 0 -134 47t-75 169l-25 102h-5q-24 -49 -60 -78q-41 -32 -88 -29q8 -35 12 -71
q2 -28 2 -67l-2 -52q-2 -20 -15 -52q-16 -43 -42 -82q-103 -152 -197 -152q-61 0 -127 22q-54 17 -134 57l14 32q24 -11 44 -17q27 -8 50 -8q154 0 274 142q39 46 58 77q23 38 23 64q-15 42 -52 88q-14 18 -35 41l-38 41l33 128h9q46 -42 73 -63q32 -22 84 -22q38 0 71 27
q19 14 42 57l19 38q13 24 23 40h10z" />
    <glyph glyph-name="uniFEE7_uniFEE4.liga" unicode="&#xfee7;&#xfee4;" horiz-adv-x="810" 
d="M445 800q23 31 41 53q21 28 40 49q60 -44 120 -107q-35 -57 -83 -98q-25 24 -59 53zM9 128q73 0 125 17q60 20 119 71q12 79 44 144q34 70 89 121q106 95 212 95q56 0 94 -27q39 -29 39 -73q0 -49 -20 -101l-7 -1q-39 75 -124 75q-66 0 -134 -39q-97 -65 -118 -150l3 -3
q53 24 101 24q82 0 130 -53q48 -51 48 -121q0 -31 -4 -55q-6 -29 -20 -57q-52 -98 -137 -98q-83 0 -142 70q-53 58 -54 128h-5q-50 -51 -112 -74q-55 -21 -126 -21h-10q-37 0 -55 23q-15 18 -15 44q0 23 15 40q19 21 55 21h9zM384 52q46 -40 99 -40q52 0 64 28q0 53 -42 90
q-43 37 -104 37q-42 0 -76 -19q13 -57 59 -96z" />
    <glyph glyph-name="uniFEE7_uniFEF0.liga" unicode="&#xfee7;&#xfef0;" horiz-adv-x="999" 
d="M741 653q47 -92 71 -160q27 -78 27 -131q0 -43 -15 -87q-13 -39 -39 -82q85 -20 114 -53q25 -29 25 -95q0 -55 -41 -135q-57 -55 -118 -96q-57 -38 -116 -62q-55 -23 -112 -34q-52 -10 -104 -10q-69 0 -134 28q-61 25 -105 66q-104 111 -104 268q0 83 22 167q10 36 24 75
q12 33 29 72l39 -15q-22 -61 -32 -106q-13 -56 -13 -104q0 -114 58 -197q93 -114 228 -114q77 0 146 17q77 19 142 58q43 27 74 50q37 27 53 49q0 27 -102 52q-92 22 -213 31l-7 9l48 104q79 12 124 32q36 16 56 41q-13 53 -41 118q-25 59 -65 133q37 60 74 111h7zM581 870
q23 31 41 53q21 28 40 49q60 -44 120 -107q-35 -57 -83 -98q-25 24 -59 53z" />
    <glyph glyph-name="uniFEE7_uniFEF2.liga" unicode="&#xfee7;&#xfef2;" horiz-adv-x="999" 
d="M741 653q47 -92 71 -160q27 -78 27 -131q0 -43 -15 -87q-13 -39 -39 -82q85 -20 114 -53q25 -29 25 -95q0 -55 -41 -135q-57 -55 -118 -96q-57 -38 -116 -62q-55 -23 -112 -34q-52 -10 -104 -10q-69 0 -134 28q-61 25 -105 66q-104 111 -104 268q0 83 22 167q10 36 24 75
q12 33 29 72l39 -15q-22 -61 -32 -106q-13 -56 -13 -104q0 -114 58 -197q93 -114 228 -114q77 0 146 17q77 19 142 58q43 27 74 50q37 27 53 49q0 27 -102 52q-92 22 -213 31l-7 9l48 104q79 12 124 32q36 16 56 41q-13 53 -41 118q-25 59 -65 133q37 60 74 111h7zM581 870
q23 31 41 53q21 28 40 49q60 -44 120 -107q-35 -57 -83 -98q-25 24 -59 53z" />
    <glyph glyph-name="uniFEF4_uniFEAE.liga" unicode="&#xfef4;&#xfeae;" horiz-adv-x="910" 
d="M704 479q2 -11 9 -54l18 -102q11 -62 31 -104q22 -49 54 -69q41 -22 81 -22h13v-128h-18q-89 0 -134 47t-75 169l-25 102h-5q-24 -49 -60 -78q-41 -32 -88 -29q8 -35 12 -71q2 -28 2 -67l-2 -52q-2 -20 -15 -52q-16 -43 -42 -82q-103 -152 -197 -152q-61 0 -127 22
q-54 17 -134 57l14 32q24 -11 44 -17q27 -8 50 -8q154 0 274 142q39 46 58 77q23 38 23 64q-15 42 -52 88q-14 18 -35 41l-38 41l33 128h9q46 -42 73 -63q32 -22 84 -22q38 0 71 27q19 14 42 57l19 38q13 24 23 40h10zM778 -416q-59 57 -117 104q37 52 79 95
q53 -41 114 -107q-43 -61 -76 -92zM585 -429q-59 57 -117 104q37 52 79 95q53 -41 114 -107q-43 -61 -76 -92z" />
    <glyph glyph-name="uniFEF3_uniFEE4.liga" unicode="&#xfef3;&#xfee4;" horiz-adv-x="819" 
d="M465 -449q-59 57 -117 104q37 52 79 95q53 -41 114 -107q-43 -61 -76 -92zM658 -436q-59 57 -117 104q37 52 79 95q53 -41 114 -107q-43 -61 -76 -92zM9 128q73 0 125 17q60 20 119 71q12 79 44 144q34 70 89 121q106 95 212 95q56 0 94 -27q39 -29 39 -73
q0 -49 -20 -101l-7 -1q-39 75 -124 75q-66 0 -134 -39q-97 -65 -118 -150l3 -3q53 24 101 24q82 0 130 -53q48 -51 48 -121q0 -31 -4 -55q-6 -29 -20 -57q-52 -98 -137 -98q-83 0 -142 70q-53 58 -54 128h-5q-50 -51 -112 -74q-55 -21 -126 -21h-10q-37 0 -55 23
q-15 18 -15 44q0 23 15 40q19 21 55 21h9zM384 52q46 -40 99 -40q52 0 64 28q0 53 -42 90q-43 37 -104 37q-42 0 -76 -19q13 -57 59 -96z" />
    <glyph glyph-name="uniFEF4_uniFEE6.liga" unicode="&#xfef4;&#xfee6;" horiz-adv-x="1120" 
d="M914 489q1 -6 4 -21l25 -133q12 -65 30 -108q23 -53 54 -72l39 -19q21 -8 40 -8h14v-128h-16q-88 0 -135 52q-44 50 -75 173l-26 103h-5q-50 -101 -141 -104q30 -75 30 -188q0 -42 -6 -80q-7 -42 -23 -82q-39 -58 -106 -107q-107 -68 -225 -68q-137 0 -218 89
q-79 87 -79 227q0 68 15 131q12 51 35 105l35 -13q-13 -42 -19 -75q-8 -45 -8 -88q0 -106 74 -175q70 -66 165 -66q104 0 201 56q104 72 104 124q0 37 -22 100q-16 43 -52 89q-15 19 -36 41q-15 17 -38 40l36 130l10 1q47 -44 74 -64q30 -21 81 -21q40 0 70 24q19 14 42 57
l19 38q13 24 23 40h10zM998 -426q-59 57 -117 104q37 52 79 95q53 -41 114 -107q-43 -61 -76 -92zM805 -439q-59 57 -117 104q37 52 79 95q53 -41 114 -107q-43 -61 -76 -92zM309 640q23 31 41 53q21 28 40 49q60 -44 120 -107q-35 -57 -83 -98q-25 24 -59 53z" />
    <glyph glyph-name="T_h.liga" unicode="Th" horiz-adv-x="1624" 
d="M1273 0v41q64 5 80 24q15 18 15 88v237q0 179 -143 177q-88 0 -149 -73v-341q0 -70 16 -87q15 -18 81 -25v-41h-330v41q72 7 88 24q17 18 17 91v730q-104 10 -300 10h-97v-708q0 -94 23 -116q24 -23 125 -30v-42h-430v42q98 7 120 30q23 23 23 116v708h-87
q-100 0 -138 -11q-33 -9 -52 -37q-26 -40 -51 -131h-43l10 139q5 76 7 132h28q25 -37 86 -37h632q87 0 117 8q27 8 27 30v19q23 3 60 13q34 10 68 22v-494q46 47 97 74q58 31 112 32q99 2 153 -57q59 -65 59 -196v-248q0 -72 17 -90q15 -18 82 -23v-41h-323z" />
    <glyph glyph-name="f_b.liga" unicode="fb" horiz-adv-x="1215" 
d="M794 637q46 18 71 18q122 0 209 -88q88 -90 88 -217q0 -157 -113 -263q-111 -104 -267 -104q-50 0 -105 12q-63 13 -123 40v867q-59 67 -145 67q-33 0 -58 -16q-19 -13 -36 -37q-16 -25 -26 -74q-12 -59 -11 -143l2 -61h169q7 -13 2 -33q-5 -21 -20 -28h-151v-408
q0 -79 19 -99q20 -22 106 -29v-41h-357v41q66 7 83 25q19 20 19 90v421h-106l-6 17l42 44h70v32q0 68 16 119q6 19 12 33q10 22 21 42q15 25 34 48q22 26 50 49q84 69 176 79q68 -2 115 -35l25 7l26 9q32 10 51 19l7 -9v-440zM683 172q0 -28 7 -51q11 -30 42 -53
q38 -30 87 -30q91 -2 146 73t55 201q0 120 -68 194q-64 68 -158 68q-69 0 -111 -26v-376z" />
    <glyph glyph-name="f_f_b.liga" unicode="ffb" horiz-adv-x="1618" 
d="M1088 593l59 23l52 22q37 17 70 17q122 0 209 -88q88 -90 88 -217q0 -157 -115 -263q-112 -104 -268 -104q-49 0 -104 12q-61 13 -122 40v865q-57 74 -140 74q-33 0 -57 -15q-19 -12 -36 -36q-38 -53 -41 -225v-60h169q7 -12 2 -32q-5 -21 -18 -29h-153v-424
q0 -71 19 -89q18 -17 96 -25v-39h-333v39q59 9 73 25q16 19 16 89v424h-276v-424q0 -70 17 -88q16 -18 82 -26v-39h-329v41q68 7 84 25q18 18 18 87v424h-106l-5 16l41 45h70v17q0 56 20 111q7 19 14 34q11 22 24 41q33 49 86 88q88 66 190 76q62 -2 110 -24q38 -18 61 -46
q96 95 209 105q73 -2 116 -35q21 5 52 16q24 8 49 19l7 -7v-440zM554 664q0 105 43 188q-23 36 -61 60q-46 30 -100 30q-42 0 -73 -22q-27 -18 -44 -49q-39 -66 -39 -197v-36h274v26zM1088 173q0 -31 9 -51q9 -28 40 -52q39 -30 88 -31q85 -1 141 71q59 75 59 202
q0 122 -68 193q-62 67 -158 67q-66 0 -111 -24v-375z" />
    <glyph glyph-name="f_f.liga" unicode="ff" horiz-adv-x="852" 
d="M146 658q0 67 22 117q6 18 14 33q9 20 21 38q32 48 80 85q90 68 187 78q63 -1 113 -25q40 -18 67 -49q49 49 101 76q46 24 98 30q80 -3 125 -53q20 -23 8 -50q-9 -20 -34 -39q-26 -21 -46 1q-26 26 -54 43q-37 21 -69 21q-47 0 -74 -45q-13 -24 -20 -75q-9 -60 -8 -151
l2 -55h177q7 -11 3 -31q-3 -22 -16 -30h-166v-426q0 -70 20 -88q19 -17 103 -25v-38h-341v38q60 8 74 25q16 19 16 90v424h-274v-426q0 -69 17 -88q16 -17 82 -25v-38h-329v39q68 7 84 25q17 18 17 87v426h-107l-4 17l41 44h70v20zM549 669q0 63 12 106q8 29 27 71
q-25 41 -64 68q-48 33 -102 33q-38 0 -66 -20q-24 -17 -40 -46q-19 -33 -29 -77q-12 -54 -12 -127v-39h274v31z" />
    <glyph glyph-name="f_h.liga" unicode="fh" horiz-adv-x="1231" 
d="M880 0v41q64 7 80 25t16 87v237q0 177 -144 177q-90 0 -149 -73v-341q0 -68 16 -87q16 -18 79 -25v-41h-319v41q63 7 78 24q17 19 17 88v749q-25 29 -63 49q-42 21 -82 21q-31 0 -58 -17q-22 -14 -38 -37q-33 -50 -33 -222v-58h167q21 -38 -16 -63h-151v-409
q0 -80 16 -99q14 -18 78 -26v-41h-324v41q67 8 83 25q17 18 17 87v422h-103l-6 16l41 47h68v25q0 72 16 125q6 18 12 32q9 22 21 42q32 54 82 96q90 72 173 82q77 -1 118 -35q51 11 104 35l7 -7v-482q45 45 97 72q59 31 113 32q99 2 153 -57q58 -65 58 -196v-248
q0 -71 17 -89q15 -17 82 -24v-41h-323z" />
    <glyph glyph-name="f_f_h.liga" unicode="ffh" horiz-adv-x="1634" 
d="M1283 0v41q65 7 80 24q16 17 16 86v239q0 180 -144 180q-90 -4 -148 -75v-344q0 -68 16 -86q16 -17 80 -24v-41h-318v41q61 7 76 24q17 19 17 88v749q-27 31 -61 50q-40 22 -80 22q-66 0 -96 -55q-18 -26 -27 -76q-11 -56 -11 -145v-60h169q7 -12 3 -32q-5 -22 -19 -29
h-153v-426q0 -67 18 -86q17 -17 87 -24v-41h-323v41q58 7 73 25q16 19 16 87v424h-274v-424q0 -68 16 -87q16 -17 81 -25v-41h-325v41q64 7 81 26t17 86v424h-105l-4 16l41 45h68v17q0 51 22 111q14 39 39 75q34 51 83 88q88 68 194 76q60 -2 107 -24q37 -18 62 -46
q91 91 202 105q72 0 117 -35q54 11 103 35l8 -7v-482q45 45 97 73q59 30 112 31q99 2 154 -58q59 -66 59 -196v-251q0 -68 17 -86q16 -18 81 -23v-41h-324zM554 666q0 106 43 188q-22 35 -59 59q-46 29 -101 29q-43 0 -75 -23q-26 -18 -43 -51q-18 -32 -28 -76
q-11 -51 -11 -118v-36h274v28z" />
    <glyph glyph-name="uniFB01" unicode="fi" horiz-adv-x="811" 
d="M462 0v39q61 7 75 24q15 17 15 84v348q0 54 -11 67q-13 15 -68 15h-195v-430q0 -66 18 -84q17 -17 86 -24v-39h-337v39q70 8 87 25q18 17 18 83v430h-108l-7 17l42 44h73v36q0 34 6 66q5 27 14 54l14 33q11 21 24 41q34 53 85 92q94 73 189 80q61 -2 108 -28
q19 -9 34 -22q12 -10 20 -21q19 -28 7 -59q-13 -26 -35 -36q-27 -18 -45 1q-14 18 -28 32q-17 17 -35 30q-45 32 -94 32q-60 0 -92 -57q-44 -67 -44 -222v-52h123q45 0 79 1q40 1 74 3q74 4 128 15v-510q0 -68 16 -84q16 -17 87 -24v-39h-323z" />
    <glyph glyph-name="f_f_i.liga" unicode="ffi" horiz-adv-x="1209" 
d="M861 0v39q61 7 76 24q16 17 16 83v351q0 54 -12 66q-12 14 -66 14h-196v-431q0 -66 16 -83t81 -24v-39h-319v39q63 7 77 23q15 17 15 85v430h-274v-426q0 -70 16 -88q15 -17 82 -25v-38h-325v39q67 7 82 23q16 18 16 89v426h-105l-5 17l41 44h69v31q0 47 17 106
q16 42 42 78q33 47 86 87q45 32 86 49q48 20 101 25q65 -2 115 -26q42 -21 64 -53q108 102 226 106q62 -1 110 -26q33 -18 54 -45q24 -30 10 -57q-15 -26 -36 -39q-28 -22 -51 1l-25 30q-17 19 -33 31q-44 36 -95 36q-60 0 -97 -59q-41 -59 -41 -212v-63h124q45 0 79 1
q40 1 72 3q73 4 127 15v-511q0 -66 16 -82q16 -17 86 -25v-39h-322zM549 679q0 53 15 103q12 41 27 69q-24 40 -63 66q-48 33 -103 33q-40 0 -69 -20q-24 -16 -41 -47q-18 -32 -28 -79q-12 -55 -12 -124v-42h274v41z" />
    <glyph glyph-name="f_j.liga" unicode="fj" horiz-adv-x="791" 
d="M403 638q45 0 80 1q40 1 73 3q73 4 127 15v-494q0 -141 -35 -236q-19 -51 -45 -100q-23 -42 -50 -82q-23 -33 -48 -62q-19 -23 -37 -41q-22 -19 -43 -19q-17 0 -35 18q-20 20 -20 46t31 35q84 21 104 49q28 34 38 112q11 97 11 293v319q0 54 -12 67q-13 15 -67 15h-195
v-431q0 -66 17 -83t88 -24v-39h-340v39q73 8 89 24q17 17 17 83v431h-107l-6 17l42 44h71v36q0 64 21 120q6 17 14 33q10 22 23 42q34 53 84 92q93 72 189 79q61 -2 108 -27q19 -9 34 -22q12 -10 20 -21q21 -33 9 -60q-13 -21 -35 -36q-31 -16 -46 1q-15 18 -28 31
q-18 18 -36 30q-45 31 -94 31q-60 0 -92 -58q-20 -33 -31 -84q-11 -55 -11 -135v-52h123z" />
    <glyph glyph-name="f_f_j.liga" unicode="ffj" horiz-adv-x="1194" 
d="M807 638q45 0 79 1q40 1 72 3q73 4 127 15l2 -492q0 -78 -7 -127q-7 -55 -28 -109q-19 -51 -46 -102q-23 -44 -51 -85q-24 -35 -48 -64q-21 -24 -36 -38q-23 -17 -41 -17q-17 0 -34 20q-20 21 -20 47t31 35q81 20 103 49q25 33 34 108q13 102 13 287l-1 326q0 55 -10 67
q-12 15 -66 15h-198v-431q0 -66 16 -82q17 -17 91 -25v-39h-330v39q64 7 79 24q16 17 16 84v430h-274v-426q0 -70 15 -88q15 -17 82 -25v-38h-326v39q66 7 82 24q17 19 17 88v426h-106l-5 17l41 44h70v31q0 48 19 103q15 43 39 78q33 49 85 87q90 65 189 75q65 -2 115 -27
q42 -21 63 -53q109 102 224 109q63 -1 110 -27q18 -10 33 -23q12 -9 22 -21q21 -30 8 -57q-12 -24 -34 -40q-30 -20 -51 2l-9 10q-1 0 -1 1l-9 10q-3 4 -7 7q-17 19 -33 32q-46 35 -97 35q-57 0 -94 -58q-40 -61 -40 -211v-63h125zM554 679q0 61 14 106q11 34 28 63
q-24 40 -65 67q-49 33 -103 33q-74 0 -109 -67q-18 -31 -28 -78q-11 -53 -11 -123v-42h274v41z" />
    <glyph glyph-name="f_k.liga" unicode="fk" horiz-adv-x="1175" 
d="M993 -3l-63 69l-62 73l-121 146q-23 30 -41 30q-11 1 -24 -2v-157q0 -72 19 -91q17 -17 88 -24v-41h-336v41q68 7 84 24q17 19 17 91v749q-60 65 -142 65q-66 0 -97 -55q-16 -28 -26 -76q-12 -61 -11 -143l2 -58h167q7 -10 3 -32q-5 -23 -17 -31h-153v-406q0 -81 16 -101
q15 -19 81 -27v-41h-329v41q68 8 84 26q18 19 18 89v419h-106l-5 16l40 47h71v25q0 69 16 125q6 17 14 34q9 22 22 43q33 53 82 93q89 72 170 82q77 -2 117 -33q56 10 103 33l8 -7v-682q31 7 56 22q19 11 37 29q55 53 105 128q23 34 17 46q-7 13 -58 18v40l309 13v-40
q-71 -10 -110 -27q-36 -16 -81 -54q-26 -24 -55 -57l-73 -82q13 -19 45 -57l67 -79q83 -95 121 -132q76 -75 140 -78v-41z" />
    <glyph glyph-name="f_f_k.liga" unicode="ffk" horiz-adv-x="1579" 
d="M1398 -3q-29 30 -63 69l-63 74l-121 145q-25 30 -41 30q-11 1 -25 -2v-159q0 -70 19 -89q18 -17 90 -24v-41h-335v41q66 7 81 24q17 18 17 89v746q-28 32 -62 52q-38 21 -78 21q-62 0 -95 -52q-18 -27 -27 -77q-12 -59 -12 -146v-60h169q7 -12 2 -33t-18 -28h-153v-428
q0 -67 18 -84q16 -16 86 -24v-41h-325v41q61 8 75 24q17 18 17 84v428h-276v-426q0 -67 17 -85q16 -17 82 -25v-41h-329v42q68 7 84 24q18 18 18 85v426h-106l-6 14l42 47h70v16q0 49 22 115q6 17 14 32q10 20 23 39q34 50 84 88q89 69 196 77q61 -2 107 -24q38 -18 61 -46
q91 91 205 105q71 -2 112 -33q58 9 105 33l6 -7v-682q31 7 56 22q19 11 37 29q57 53 104 125q22 33 14 47q-9 14 -56 19v41l311 13v-40q-68 -9 -110 -28q-37 -18 -81 -56q-45 -40 -126 -136q12 -19 44 -57l67 -78q81 -93 120 -131q78 -76 140 -80v-41zM554 666q0 103 43 188
q-23 35 -61 59q-47 29 -100 29q-41 0 -72 -22q-26 -19 -46 -52q-18 -28 -27 -73q-11 -51 -11 -121v-36h274v28z" />
    <glyph glyph-name="uniFB02" unicode="fl" horiz-adv-x="808" 
d="M460 0v39q62 7 77 24t15 84v756q-44 70 -132 70q-60 0 -97 -50q-20 -27 -31 -72q-14 -54 -14 -129v-84h172q6 -11 1 -32q-4 -22 -17 -29h-156v-431q0 -67 16 -83q15 -17 83 -24v-39h-332v39q72 8 88 24q17 17 17 83v431h-106l-6 19l41 42h71v26q0 79 20 136l14 34
q11 21 24 40q33 50 85 92q81 63 176 74q75 0 128 -33q17 3 36 12q8 3 18 9l18 9l13 -9v-881q0 -67 17 -84q17 -16 89 -24v-39h-328z" />
    <glyph glyph-name="f_f_l.liga" unicode="ffl" horiz-adv-x="1213" 
d="M867 0v39q60 7 74 24q16 17 16 83v759q-42 71 -130 71q-62 0 -100 -48q-19 -24 -31 -76q-13 -59 -13 -140v-74h173q6 -10 2 -32q-5 -22 -18 -29h-155l-2 -430q0 -67 16 -84t82 -24v-39h-321v39q63 7 78 24q16 18 16 84v430h-274v-426q0 -69 16 -87q15 -17 80 -25v-39
h-325v39q66 7 82 24q17 19 17 88v426h-103l-6 17l41 44h68v29q0 57 20 106q15 39 38 73q33 47 83 86q91 70 196 77q62 -1 112 -25q39 -18 64 -47q97 97 208 103q76 1 136 -36q22 9 65 35l13 -9v-884q0 -66 17 -83q16 -17 88 -24v-39h-323zM554 669q0 38 5 70q3 26 11 50
q3 12 11 31q2 3 4 8l12 27q-22 38 -63 62q-46 27 -101 27q-77 0 -117 -69q-16 -31 -25 -73q-11 -52 -11 -125v-39h274v31z" />
    <glyph glyph-name="f_t.liga" unicode="ft" horiz-adv-x="881" 
d="M771 1q-19 -9 -37 -14q-15 -4 -26 -4q-154 0 -154 174v420h-274v-424q0 -70 16 -87q17 -18 91 -25v-41h-342v41q71 8 88 25q17 18 17 85v426h-106l-8 17l41 44h73v36q0 62 16 115q5 17 11 32q9 22 21 42q15 26 35 49q23 27 52 51q85 67 167 77q38 -1 70 -14
q27 -12 46 -31q24 -28 9 -57q-12 -24 -37 -39q-19 -13 -37 4q-53 57 -118 57q-49 0 -78 -44q-16 -24 -23 -75q-8 -60 -6 -162l2 -41h274v98l109 102l20 -6v-194h166q11 -11 8 -32t-18 -29h-156v-367q0 -79 30 -115q22 -27 58 -27q24 0 51 9q10 3 21 8l18 8l14 -41z" />
    <glyph glyph-name="f_f_t.liga" unicode="fft" horiz-adv-x="1289" 
d="M1173 0q-37 -17 -62 -17q-153 0 -153 174v421h-275v-429q0 -69 19 -86q17 -16 93 -24v-39h-330v39q59 8 73 25q16 18 16 86v428h-274v-429q0 -68 17 -85q15 -17 82 -25v-39h-332v41q69 7 86 23q17 18 17 85v429h-106l-6 16l41 44h71v17q0 58 20 110q7 18 15 34
q10 21 23 40q34 49 85 89q90 69 195 77q58 -2 106 -24q39 -19 63 -47q91 92 198 106q40 -1 72 -14q27 -12 46 -31q24 -28 9 -55t-38 -43q-18 -10 -35 6q-26 26 -56 42q-34 18 -65 18q-47 0 -76 -47q-14 -25 -21 -72q-9 -58 -8 -158v-48h275v95l110 103l19 -4v-194h167
q11 -11 8 -31t-18 -29h-157v-368q0 -79 29 -115q22 -27 58 -27q24 0 51 9q18 6 39 16l15 -41zM554 667q0 106 42 185q-23 35 -61 59q-47 30 -99 30q-41 0 -73 -21q-24 -16 -44 -45q-19 -30 -29 -77q-12 -54 -12 -124v-36h276v29z" />
    <glyph glyph-name="uniFE82" unicode="&#x622;" horiz-adv-x="432" arabic-form="final" 
d="M432 0h-11q-114 0 -171 57q-42 43 -54 108q-5 30 -7 75q-1 19 -1 45v52q0 133 -7 292l-9 152q-4 72 -10 157q31 34 49 52q25 25 45 41l7 -4q9 -124 13 -271q4 -137 4 -288l-1 -222q0 -44 23 -72q18 -23 52 -35q17 -6 37 -9l15 -2h26v-128zM469 1214q-2 -5 -4 -11l-10 -30
q-9 -23 -15 -34q-57 -48 -140 -48q-21 0 -48 3q-18 1 -49 6l-47 5q-24 3 -41 3q-11 0 -26 -23q-6 -9 -14 -25l-16 -29h-7l-34 61q0 43 19 73q24 38 72 38q23 0 52 -5q17 -2 54 -10q35 -7 55 -10q31 -5 56 -5q46 0 82 14q30 12 56 32z" />
    <glyph glyph-name="uniFE84" unicode="&#x623;" horiz-adv-x="402" arabic-form="final" 
d="M345 1166q-19 -39 -39 -68q-146 -23 -260 -75l-2 3l24 42q19 24 46 33v3q-78 23 -78 87q0 41 47 88q64 57 121 57q63 0 63 -49q0 -17 -10 -35q-6 -12 -22 -30h-2q-18 35 -32 39q-10 3 -31 3q-25 0 -48 -12q-22 -11 -22 -23q0 -33 49 -50q40 -14 94 -14q23 0 51 1l51 3v-3
zM402 0h-11q-114 0 -171 57q-42 43 -54 108q-5 30 -7 75q-1 19 -1 45v52q0 133 -7 292l-9 152q-4 72 -10 157q31 34 49 52q25 25 45 41l7 -4q6 -78 9 -171q3 -82 5 -181q1 -44 1 -93q1 -43 1 -93v-243q0 -44 23 -72q18 -23 52 -35q17 -6 37 -9l15 -2h26v-128z" />
    <glyph glyph-name="uniFE86" unicode="&#x624;" horiz-adv-x="690" arabic-form="final" 
d="M690 128v-128h-83q-8 -99 -79 -206q-29 -42 -64 -77q-31 -30 -65 -53q-63 -40 -109 -40q-65 0 -142 29q-69 25 -146 72l17 33q67 -36 147 -36q73 0 145 37q67 35 133 101q78 80 94 140h-51q-306 0 -306 205q0 48 15 91q12 36 36 70q30 44 68 69q41 27 86 27q71 0 132 -90
q63 -94 83 -244h89zM533 128q-17 89 -70 146q-50 56 -106 56q-41 0 -77 -29q-36 -28 -36 -59q0 -36 31 -61q27 -22 78 -37q40 -11 91 -14l45 -2h44zM472 716q-19 -39 -39 -68q-146 -23 -260 -75l-2 3l24 42q19 24 46 33v3q-78 23 -78 87q0 41 47 88q64 57 121 57
q63 0 63 -49q0 -17 -10 -35q-6 -12 -22 -30h-2q-18 35 -32 39q-10 3 -31 3q-25 0 -48 -12q-22 -11 -22 -23q0 -33 49 -50q40 -14 94 -14q23 0 51 1l51 3v-3z" />
    <glyph glyph-name="uniFE88" unicode="&#x625;" horiz-adv-x="358" arabic-form="final" 
d="M358 0h-11q-114 0 -171 57q-42 43 -54 108q-5 30 -7 75q-1 19 -1 45v52q0 133 -7 292l-9 152q-4 72 -10 157q31 34 49 52q25 25 45 41l7 -4q6 -78 9 -171q3 -82 5 -181q1 -44 1 -93q1 -43 1 -93v-243q0 -44 23 -72q18 -23 52 -35q17 -6 37 -9l15 -2h26v-128zM361 -224
q-19 -39 -39 -68q-146 -23 -260 -75l-2 3l24 42q19 24 46 33v3q-78 24 -78 87q0 41 47 88q64 57 121 57q63 0 63 -49q0 -17 -10 -35q-6 -11 -22 -30h-2q-18 36 -32 39q-10 3 -31 3q-25 0 -48 -11q-22 -12 -22 -24q0 -32 49 -50q40 -14 94 -14q23 0 51 2q17 0 51 2v-3z" />
    <glyph glyph-name="uniFE8B" unicode="&#x626;" horiz-adv-x="441" arabic-form="initial" 
d="M251 551q41 -72 67 -146q33 -91 33 -159q0 -52 -20 -101q-17 -41 -50 -85q-60 -60 -269 -60h-12q-37 0 -55 23q-15 18 -15 44q0 23 15 40q19 21 55 21h17q72 0 114 4q52 4 83 15q57 21 57 44q0 32 -30 103l-32 69l-38 75q37 66 75 113h5zM342 766q-19 -39 -39 -68
q-146 -23 -260 -75l-2 3l24 42q19 24 46 33v3q-78 23 -78 87q0 41 47 88q64 57 121 57q63 0 63 -49q0 -17 -10 -35q-6 -12 -22 -30h-2q-18 35 -32 39q-10 3 -31 3q-25 0 -48 -12q-22 -11 -22 -23q0 -33 49 -50q40 -14 94 -14q23 0 51 1l51 3v-3z" />
    <glyph glyph-name="uniFE8C" unicode="&#x626;" horiz-adv-x="451" arabic-form="medial" 
d="M22 128q61 0 109 23q52 24 63 65l29 108l69 50l6 -7q-22 -80 -22 -116q0 -57 33 -83q49 -40 124 -40h18v-128h-23q-77 0 -127 23q-55 25 -79 79h-4q-52 -102 -199 -102h-19q-37 0 -55 23q-15 18 -15 44q0 23 15 40q19 21 55 21h22zM382 626q-19 -39 -39 -68
q-146 -23 -260 -75l-2 3l24 42q19 24 46 33v3q-78 23 -78 87q0 41 47 88q64 57 121 57q63 0 63 -49q0 -17 -10 -35q-6 -12 -22 -30h-2q-18 35 -32 39q-10 3 -31 3q-25 0 -48 -12q-22 -11 -22 -23q0 -33 49 -50q40 -14 94 -14q23 0 51 1l51 3v-3z" />
    <glyph glyph-name="uniFE8A" unicode="&#x626;" horiz-adv-x="1017" arabic-form="final" 
d="M1017 128v-128h-58q4 -37 4 -72q0 -22 -18 -67q-14 -37 -27 -58q-95 -85 -226 -136q-127 -50 -240 -50q-92 0 -164 30q-65 28 -111 78q-45 51 -67 123q-20 68 -20 156q0 171 94 330l38 -17q-61 -148 -61 -251q0 -134 80 -218q91 -94 242 -94q143 0 319 86q80 45 90 69
q-44 91 -291 91l-6 14l69 114h353zM655 586q-19 -39 -39 -68q-146 -23 -260 -75l-2 3l24 42q19 24 46 33v3q-78 23 -78 87q0 41 47 88q64 57 121 57q63 0 63 -49q0 -17 -10 -35q-6 -12 -22 -30h-2q-18 35 -32 39q-10 3 -31 3q-25 0 -48 -12q-22 -11 -22 -23q0 -33 49 -50
q40 -14 94 -14q23 0 51 1l51 3v-3z" />
    <glyph glyph-name="uniFE8E" unicode="&#x627;" horiz-adv-x="358" arabic-form="final" 
d="M358 0h-11q-114 0 -171 57q-42 43 -54 108q-5 30 -7 75q-1 19 -1 45v52q0 133 -7 292l-9 152q-4 72 -10 157q31 34 49 52q25 25 45 41l7 -4q6 -78 9 -171q3 -82 5 -181q1 -44 1 -93q1 -43 1 -93v-243q0 -44 23 -72q18 -23 52 -35q17 -6 37 -9l15 -2h26v-128z" />
    <glyph glyph-name="uniFE91" unicode="&#x628;" horiz-adv-x="433" arabic-form="initial" 
d="M17 128q72 0 114 4q52 4 83 15q57 21 57 44q0 32 -30 103l-32 69l-38 75q37 66 75 113h5q41 -72 67 -146q33 -91 33 -159q0 -52 -20 -101q-17 -41 -50 -85q-60 -60 -269 -60h-12q-37 0 -55 23q-15 18 -15 44q0 23 15 40q19 21 55 21h17zM125 -291q23 31 41 53
q21 28 40 49q60 -43 120 -107q-35 -56 -83 -98q-25 24 -59 53z" />
    <glyph glyph-name="uniFE92" unicode="&#x628;" horiz-adv-x="451" arabic-form="medial" 
d="M22 128q61 0 109 23q52 24 63 65l29 108l69 50l6 -7q-22 -80 -22 -116q0 -57 33 -83q49 -40 124 -40h18v-128h-23q-77 0 -127 23q-55 25 -79 79h-4q-52 -102 -199 -102h-19q-37 0 -55 23q-15 18 -15 44q0 23 15 40q19 21 55 21h22zM125 -291q23 31 41 53q21 28 40 49
q60 -43 120 -107q-35 -56 -83 -98q-25 24 -59 53z" />
    <glyph glyph-name="uniFE90" unicode="&#x628;" horiz-adv-x="1361" arabic-form="final" 
d="M1361 0h-23q-78 0 -124 18q-53 20 -80 69q-28 -17 -63 -32q-43 -18 -93 -33q-93 -27 -191 -43q-109 -19 -197 -19q-108 0 -190 18q-89 19 -153 59q-69 44 -107 111q-40 71 -40 160q0 64 13 121q15 62 46 121l40 -17q-29 -87 -29 -152q0 -141 132 -221q58 -35 143 -50
q74 -14 175 -14q83 0 173 12q79 11 169 32q70 17 132 44l44 140l64 50l6 -7q-9 -27 -16 -56q-7 -34 -7 -56q0 -63 34 -89q48 -38 124 -38h18v-128zM544 -321q23 31 41 53q21 28 40 49q60 -43 120 -107q-35 -56 -83 -98q-25 24 -59 53z" />
    <glyph glyph-name="uniFE94" unicode="&#x629;" horiz-adv-x="699" arabic-form="final" 
d="M379 108q-52 -13 -107 -13q-82 0 -130 29q-52 30 -52 88q0 47 32 117q61 132 320 275l-6 75q43 50 79 82h11l4 -233q1 -52 1 -117l1 -116q0 -108 38 -141q30 -26 105 -26h24v-128h-22q-80 0 -126 27q-54 32 -81 112q-48 -21 -91 -31zM449 493q-271 -140 -271 -219
q0 -28 39 -43q34 -13 89 -13q61 0 148 28zM524 860q-59 56 -117 104q37 52 79 95q53 -42 114 -107q-43 -61 -76 -92zM331 847q-59 56 -117 104q37 52 79 95q53 -42 114 -107q-43 -61 -76 -92z" />
    <glyph glyph-name="uniFE97" unicode="&#x62a;" horiz-adv-x="441" arabic-form="initial" 
d="M17 128q72 0 114 4q52 4 83 15q57 21 57 44q0 32 -30 103l-32 69l-38 75q37 66 75 113h5q41 -72 67 -146q33 -91 33 -159q0 -52 -20 -101q-17 -41 -50 -85q-60 -60 -269 -60h-12q-37 0 -55 23q-15 18 -15 44q0 23 15 40q19 21 55 21h17zM285 650q-59 56 -117 104
q37 52 79 95q53 -42 114 -107q-43 -61 -76 -92zM92 637q-59 56 -117 104q37 52 79 95q53 -42 114 -107q-43 -61 -76 -92z" />
    <glyph glyph-name="uniFE98" unicode="&#x62a;" horiz-adv-x="451" arabic-form="medial" 
d="M132 507q-59 56 -117 104q37 52 79 95q53 -42 114 -107q-43 -61 -76 -92zM325 520q-59 56 -117 104q37 52 79 95q53 -42 114 -107q-43 -61 -76 -92zM22 128q61 0 109 23q52 24 63 65l29 108l69 50l6 -7q-22 -80 -22 -116q0 -57 33 -83q49 -40 124 -40h18v-128h-23
q-77 0 -127 23q-55 25 -79 79h-4q-52 -102 -199 -102h-19q-37 0 -55 23q-15 18 -15 44q0 23 15 40q19 21 55 21h22z" />
    <glyph glyph-name="uniFE96" unicode="&#x62a;" horiz-adv-x="1361" arabic-form="final" 
d="M784 640q-59 56 -117 104q37 52 79 95q53 -42 114 -107q-43 -61 -76 -92zM591 627q-59 56 -117 104q37 52 79 95q53 -42 114 -107q-43 -61 -76 -92zM1361 0h-23q-78 0 -124 18q-53 20 -80 69q-27 -16 -63 -32q-42 -17 -93 -32q-94 -27 -191 -44q-109 -19 -197 -19
q-108 0 -190 18q-89 19 -153 59q-69 44 -107 111q-40 71 -40 160q0 64 13 121q15 62 46 121l40 -17q-29 -87 -29 -152q0 -141 132 -221q58 -35 143 -50q74 -14 175 -14q82 0 173 13q77 11 168 32q77 18 133 43l44 140l68 49l6 -7q-24 -75 -24 -119q0 -52 35 -81
q45 -38 120 -38h18v-128z" />
    <glyph glyph-name="uniFE9B" unicode="&#x62b;" horiz-adv-x="441" arabic-form="initial" 
d="M17 128q72 0 114 4q52 4 83 15q57 21 57 44q0 32 -30 103l-32 69l-38 75q37 66 75 113h5q41 -72 67 -146q33 -91 33 -159q0 -52 -20 -101q-17 -41 -50 -85q-60 -60 -269 -60h-12q-37 0 -55 23q-15 18 -15 44q0 23 15 40q19 21 55 21h17zM92 637q-59 56 -117 104
q37 52 79 95q53 -42 114 -107q-43 -61 -76 -92zM146 850q-59 56 -117 104q37 52 79 95q53 -42 114 -107q-43 -61 -76 -92zM285 650q-59 56 -117 104q37 52 79 95q53 -42 114 -107q-43 -61 -76 -92z" />
    <glyph glyph-name="uniFE9C" unicode="&#x62b;" horiz-adv-x="451" arabic-form="medial" 
d="M186 720q-59 56 -117 104q37 52 79 95q53 -42 114 -107q-43 -61 -76 -92zM132 507q-59 56 -117 104q37 52 79 95q53 -42 114 -107q-43 -61 -76 -92zM325 520q-59 56 -117 104q37 52 79 95q53 -42 114 -107q-43 -61 -76 -92zM22 128q61 0 109 23q52 24 63 65l29 108l69 50
l6 -7q-22 -80 -22 -116q0 -57 33 -83q49 -40 124 -40h18v-128h-23q-77 0 -127 23q-55 25 -79 79h-4q-52 -102 -199 -102h-19q-37 0 -55 23q-15 18 -15 44q0 23 15 40q19 21 55 21h22z" />
    <glyph glyph-name="uniFE9A" unicode="&#x62b;" horiz-adv-x="1361" arabic-form="final" 
d="M784 640q-59 56 -117 104q37 52 79 95q53 -42 114 -107q-43 -61 -76 -92zM591 627q-59 56 -117 104q37 52 79 95q53 -42 114 -107q-43 -61 -76 -92zM645 840q-59 56 -117 104q37 52 79 95q53 -42 114 -107q-43 -61 -76 -92zM1361 0h-23q-78 0 -124 18q-53 20 -80 69
q-27 -16 -63 -32q-42 -17 -93 -32q-94 -27 -191 -44q-109 -19 -197 -19q-108 0 -190 18q-89 19 -153 59q-69 44 -107 111q-40 71 -40 160q0 64 13 121q15 62 46 121l40 -17q-29 -87 -29 -152q0 -141 132 -221q58 -35 143 -50q74 -14 175 -14q82 0 173 13q77 11 168 32
q77 18 133 43l44 140l68 49l6 -7q-24 -75 -24 -119q0 -52 35 -81q45 -38 120 -38h18v-128z" />
    <glyph glyph-name="uniFE9F" unicode="&#x62c;" horiz-adv-x="935" arabic-form="initial" 
d="M61 128q233 0 534 181l1 4q-92 34 -166 51q-82 19 -148 19q-83 0 -127 -50l12 -50l-30 -90h-10l-49 132q6 82 67 132q59 48 150 48q53 0 131 -20q85 -22 197 -67q77 -31 171 -32l81 1l3 -2l-53 -105q-59 1 -106 -10q-39 -9 -67 -27l-167 -109q-206 -134 -433 -134h-52
q-37 0 -55 23q-15 18 -15 44q0 23 15 40q19 21 55 21h61zM285 -251q23 31 41 53q21 28 40 49q60 -43 120 -107q-35 -56 -83 -98q-25 24 -59 53z" />
    <glyph glyph-name="uniFEA0" unicode="&#x62c;" horiz-adv-x="915" arabic-form="medial" 
d="M596 313q-92 34 -166 51q-82 19 -148 19q-83 0 -127 -50l12 -50l-30 -90h-10l-49 132q6 82 67 132q59 48 150 48q53 0 130 -19q85 -22 198 -67q83 -33 171 -33h87l2 -2l-62 -103q-57 0 -102 -11q-40 -10 -67 -27l-167 -109q-209 -134 -439 -134h-46q-37 0 -55 23
q-15 18 -15 44q0 23 15 40q19 21 55 21h61q233 0 534 181zM708 245l3 -1q3 -61 51 -90q44 -26 126 -26h27v-128h-31q-102 0 -156 38q-59 41 -59 127q0 28 3 56zM285 -251q23 31 41 53q21 28 40 49q60 -43 120 -107q-35 -56 -83 -98q-25 24 -59 53z" />
    <glyph glyph-name="uniFE9E" unicode="&#x62c;" horiz-adv-x="939" arabic-form="final" 
d="M560 327q-151 56 -278 56q-83 0 -127 -50l20 -84l-28 -79l-11 -3l-58 158q6 82 67 132q59 48 150 48q53 0 130 -19q85 -22 198 -68q40 -15 76 -22q43 -9 95 -10l88 1l1 -2l-60 -101q-24 -2 -64 -11q-35 -7 -78 -19q-81 -21 -125 -36q-172 -66 -268 -148
q-102 -88 -102 -185q0 -151 145 -242q138 -86 354 -86q64 0 132 7q59 5 125 15l3 -10q-23 -19 -39 -31q-22 -18 -41 -32q-46 -35 -83 -56q-43 -8 -87 -12q-52 -6 -102 -6q-210 0 -340 99q-68 52 -104 127q-38 79 -38 180q0 174 132 310q125 130 318 176zM435 -131
q23 31 41 53q21 28 40 49q60 -43 120 -107q-35 -56 -83 -98q-25 24 -59 53zM708 245l3 -1q3 -61 51 -90q44 -26 126 -26h51v-128h-55q-102 0 -156 38q-59 41 -59 127q0 28 3 56z" />
    <glyph glyph-name="uniFEA3" unicode="&#x62d;" horiz-adv-x="935" arabic-form="initial" 
d="M61 128q233 0 534 181l1 4q-92 34 -166 51q-82 19 -148 19q-83 0 -127 -50l12 -50l-30 -90h-10l-49 132q6 82 67 132q59 48 150 48q53 0 131 -20q85 -22 197 -67q77 -31 171 -32l81 1l3 -2l-53 -105q-59 1 -106 -10q-39 -9 -67 -27l-167 -109q-206 -134 -433 -134h-52
q-37 0 -55 23q-15 18 -15 44q0 23 15 40q19 21 55 21h61z" />
    <glyph glyph-name="uniFEA4" unicode="&#x62d;" horiz-adv-x="915" arabic-form="medial" 
d="M596 313q-92 34 -166 51q-82 19 -148 19q-83 0 -127 -50l12 -50l-30 -90h-10l-49 132q6 82 67 132q59 48 150 48q53 0 130 -19q85 -22 198 -67q83 -33 171 -33h87l2 -2l-62 -103q-57 0 -102 -11q-40 -10 -67 -27l-167 -109q-209 -134 -439 -134h-46q-37 0 -55 23
q-15 18 -15 44q0 23 15 40q19 21 55 21h61q233 0 534 181zM708 245l3 -1q3 -61 51 -90q44 -26 126 -26h27v-128h-31q-102 0 -156 38q-59 41 -59 127q0 28 3 56z" />
    <glyph glyph-name="uniFEA2" unicode="&#x62d;" horiz-adv-x="939" arabic-form="final" 
d="M560 327q-151 56 -278 56q-83 0 -127 -50l20 -84l-28 -79l-11 -3l-58 158q6 82 67 132q59 48 150 48q53 0 130 -19q85 -22 198 -68q40 -15 76 -22q43 -9 95 -10l88 1l1 -2l-60 -101q-24 -2 -64 -11q-35 -7 -78 -19q-81 -21 -125 -36q-172 -66 -268 -148
q-102 -88 -102 -185q0 -151 145 -242q138 -86 354 -86q64 0 132 7q59 5 125 15l3 -10q-23 -19 -39 -31q-22 -18 -41 -32q-46 -35 -83 -56q-43 -8 -87 -12q-52 -6 -102 -6q-210 0 -340 99q-68 52 -104 127q-38 79 -38 180q0 174 132 310q125 130 318 176zM708 245l3 -1
q3 -61 51 -90q44 -26 126 -26h51v-128h-55q-102 0 -156 38q-59 41 -59 127q0 28 3 56z" />
    <glyph glyph-name="uniFEA7" unicode="&#x62e;" horiz-adv-x="935" arabic-form="initial" 
d="M265 749q23 31 41 53q21 28 40 49q60 -44 120 -107q-35 -57 -83 -98q-25 24 -59 53zM61 128q233 0 534 181l1 4q-92 34 -166 51q-82 19 -148 19q-83 0 -127 -50l12 -50l-30 -90h-10l-49 132q6 82 67 132q59 48 150 48q53 0 131 -20q85 -22 197 -67q77 -31 171 -32l81 1
l3 -2l-53 -105q-59 1 -106 -10q-39 -9 -67 -27l-167 -109q-206 -134 -433 -134h-52q-37 0 -55 23q-15 18 -15 44q0 23 15 40q19 21 55 21h61z" />
    <glyph glyph-name="uniFEA8" unicode="&#x62e;" horiz-adv-x="915" arabic-form="medial" 
d="M265 749q23 31 41 53q21 28 40 49q60 -44 120 -107q-35 -57 -83 -98q-25 24 -59 53zM596 313q-92 34 -166 51q-82 19 -148 19q-83 0 -127 -50l12 -50l-30 -90h-10l-49 132q6 82 67 132q59 48 150 48q53 0 130 -19q85 -22 198 -67q83 -33 171 -33h87l2 -2l-62 -103
q-57 0 -102 -11q-40 -10 -67 -27l-167 -109q-209 -134 -439 -134h-46q-37 0 -55 23q-15 18 -15 44q0 23 15 40q19 21 55 21h61q233 0 534 181zM708 245l3 -1q3 -61 51 -90q44 -26 126 -26h27v-128h-31q-102 0 -156 38q-59 41 -59 127q0 28 3 56z" />
    <glyph glyph-name="uniFEA6" unicode="&#x62e;" horiz-adv-x="939" arabic-form="final" 
d="M560 327q-151 56 -278 56q-83 0 -127 -50l20 -84l-28 -79l-11 -3l-58 158q6 82 67 132q59 48 150 48q53 0 130 -19q85 -22 198 -68q40 -15 76 -22q43 -9 95 -10l88 1l1 -2l-60 -101q-24 -2 -64 -11q-35 -7 -78 -19q-81 -21 -125 -36q-172 -66 -268 -148
q-102 -88 -102 -185q0 -151 145 -242q138 -86 354 -86q64 0 132 7q59 5 125 15l3 -10q-23 -19 -39 -31q-22 -18 -41 -32q-46 -35 -83 -56q-43 -8 -87 -12q-52 -6 -102 -6q-210 0 -340 99q-68 52 -104 127q-38 79 -38 180q0 174 132 310q125 130 318 176zM345 749
q23 31 41 53q21 28 40 49q60 -44 120 -107q-35 -57 -83 -98q-25 24 -59 53zM708 245l3 -1q3 -61 51 -90q44 -26 126 -26h51v-128h-55q-102 0 -156 38q-59 41 -59 127q0 28 3 56z" />
    <glyph glyph-name="uniFEAA" unicode="&#x62f;" horiz-adv-x="770" arabic-form="final" 
d="M770 0h-19q-73 0 -121 35q-55 39 -83 128h-5q-13 -60 -72 -96q-53 -32 -100 -48q-53 -19 -101 -19q-174 0 -174 185q0 37 3 74l39 3q6 -134 141 -134q38 0 84 15q41 13 79 35q65 37 65 75q0 46 -24 147q-10 43 -26 104l-33 121l34 53q20 30 37 50l6 -4q26 -101 51 -221
l44 -224q27 -151 158 -151h17v-128z" />
    <glyph glyph-name="uniFEAC" unicode="&#x630;" horiz-adv-x="770" arabic-form="final" 
d="M318 939q23 31 41 53q21 28 40 49q60 -44 120 -107q-35 -57 -83 -98q-25 24 -59 53zM770 0h-19q-73 0 -121 35q-55 39 -83 128h-5q-13 -60 -72 -96q-53 -32 -100 -48q-53 -19 -101 -19q-174 0 -174 185q0 37 3 74l39 3q6 -134 141 -134q38 0 84 15q41 13 79 35
q65 37 65 75q0 46 -24 147q-10 43 -26 104l-33 121l34 53q20 30 37 50l6 -4q26 -101 51 -221l44 -224q27 -151 158 -151h17v-128z" />
    <glyph glyph-name="uniFEAE" unicode="&#x631;" horiz-adv-x="656" arabic-form="final" 
d="M413 344q23 -56 43 -92q23 -41 47 -67q54 -57 135 -57h18v-128h-21q-66 0 -101 32h-4q2 -24 2 -35q0 -83 -40 -155q-57 -100 -121 -151q-60 -48 -118 -48q-53 0 -122 23q-61 20 -128 55l15 34q46 -22 115 -22q102 0 208 95q108 96 124 205q-9 21 -27 45q-27 39 -49 77
q-19 32 -38 72q26 59 55 116z" />
    <glyph glyph-name="uniFEB0" unicode="&#x632;" horiz-adv-x="656" arabic-form="final" 
d="M245 590q23 31 41 53q21 28 40 49q60 -44 120 -107q-35 -57 -83 -98q-25 24 -59 53zM413 344q23 -56 43 -92q23 -41 47 -67q54 -57 135 -57h18v-128h-21q-66 0 -101 32h-4q2 -24 2 -35q0 -83 -40 -155q-57 -100 -121 -151q-60 -48 -118 -48q-53 0 -122 23q-61 20 -128 55
l15 34q46 -22 115 -22q102 0 208 95q108 96 124 205q-9 21 -27 45q-27 39 -49 77q-19 32 -38 72q26 59 55 116z" />
    <glyph glyph-name="uniFEB3" unicode="&#x633;" horiz-adv-x="905" arabic-form="initial" 
d="M806 428q8 -53 13 -101q3 -42 3 -77q0 -32 -11 -72q-10 -36 -25 -65q-30 -50 -66 -79q-40 -31 -82 -31q-66 0 -125 83h-8q-37 -40 -77 -61q-46 -25 -98 -25q-87 0 -96 85h-4q-42 -48 -104 -69q-47 -16 -109 -16h-17q-37 0 -55 23q-15 18 -15 44q0 23 15 40q19 21 55 21
h34q72 1 122 21q55 23 89 72l55 79l77 27l4 -5q-34 -54 -49 -85q-19 -38 -19 -59q0 -50 52 -50q48 0 89 29q30 23 71 159l60 35l6 -4q-13 -52 -13 -98q0 -53 34 -86q30 -29 70 -29q53 0 53 45q0 27 -8 74q-6 37 -17 88q42 50 90 90z" />
    <glyph glyph-name="uniFEB4" unicode="&#x633;" horiz-adv-x="1024" arabic-form="medial" 
d="M1024 0h-25q-88 0 -140 26q-46 23 -66 68h-6q-80 -94 -171 -94q-39 0 -65 15q-33 20 -44 68h-4q-36 -40 -76 -60q-44 -23 -97 -23q-87 0 -96 85h-4q-42 -48 -104 -69q-47 -16 -109 -16h-17q-37 0 -55 23q-15 18 -15 44q0 23 15 40q19 21 55 21h34q144 2 211 93l50 78
l77 27l4 -5l-26 -46q-13 -23 -21 -39q-18 -38 -18 -58q0 -50 54 -50q48 0 87 30q39 28 65 88l24 59l76 35l4 -4q-41 -104 -41 -150q0 -58 56 -58q22 0 41 7q13 5 28 15q38 26 58 96l8 29q6 23 12 50l76 51l4 -3q-11 -36 -17 -71q-8 -40 -8 -66q0 -56 46 -84q42 -24 118 -24
h22v-128z" />
    <glyph glyph-name="uniFEB2" unicode="&#x633;" horiz-adv-x="1467" arabic-form="final" 
d="M753 0q-8 -53 -16 -88q-10 -43 -22 -72q-38 -85 -135 -140q-95 -55 -201 -55q-141 0 -218 88q-73 83 -73 219q0 78 22 154q21 70 57 126l35 -18q-23 -52 -35 -95q-13 -49 -13 -92q0 -117 73 -182q66 -60 171 -60q112 0 207 72q90 68 90 140q0 108 -103 265q23 43 66 107
h4q26 -51 47 -101q19 -44 35 -90q21 -50 64 -50q21 0 43 9q18 7 33 19q17 11 31 29q17 23 27 50l26 74l68 31l4 -5q-30 -94 -30 -146q0 -61 69 -61q52 0 85 44q24 32 38 89l17 70l73 43l4 -5q-11 -41 -16 -72q-8 -40 -8 -65q0 -55 51 -82q43 -22 122 -22h22v-128h-25
q-174 0 -216 94h-6q-80 -94 -175 -94q-39 0 -64 15q-32 20 -43 68h-6q-55 -83 -159 -83h-20z" />
    <glyph glyph-name="uniFEB7" unicode="&#x634;" horiz-adv-x="905" arabic-form="initial" 
d="M516 710q-59 56 -117 104q37 52 79 95q53 -42 114 -107q-43 -61 -76 -92zM462 497q-59 56 -117 104q37 52 79 95q53 -42 114 -107q-43 -61 -76 -92zM655 510q-59 56 -117 104q37 52 79 95q53 -42 114 -107q-43 -61 -76 -92zM806 428q8 -53 13 -101q3 -42 3 -77
q0 -32 -11 -72q-10 -36 -25 -65q-30 -50 -66 -79q-40 -31 -82 -31q-66 0 -125 83h-8q-37 -40 -77 -61q-46 -25 -98 -25q-87 0 -96 85h-4q-42 -48 -104 -69q-47 -16 -109 -16h-17q-37 0 -55 23q-15 18 -15 44q0 23 15 40q19 21 55 21h34q72 1 122 21q55 23 89 72l55 79l77 27
l4 -5q-34 -54 -49 -85q-19 -38 -19 -59q0 -50 52 -50q48 0 89 29q30 23 71 159l60 35l6 -4q-13 -52 -13 -98q0 -53 34 -86q30 -29 70 -29q53 0 53 45q0 27 -8 74q-6 37 -17 88q42 50 90 90z" />
    <glyph glyph-name="uniFEB8" unicode="&#x634;" horiz-adv-x="1024" arabic-form="medial" 
d="M546 700q-59 56 -117 104q37 52 79 95q53 -42 114 -107q-43 -61 -76 -92zM492 487q-59 56 -117 104q37 52 79 95q53 -42 114 -107q-43 -61 -76 -92zM685 500q-59 56 -117 104q37 52 79 95q53 -42 114 -107q-43 -61 -76 -92zM1024 0h-25q-88 0 -140 26q-46 23 -66 68h-6
q-80 -94 -171 -94q-39 0 -65 15q-33 20 -44 68h-4q-36 -40 -76 -60q-44 -23 -97 -23q-87 0 -96 85h-4q-42 -48 -104 -69q-47 -16 -109 -16h-17q-37 0 -55 23q-15 18 -15 44q0 23 15 40q19 21 55 21h34q144 2 211 93l50 78l77 27l4 -5l-26 -46q-13 -23 -21 -39
q-18 -38 -18 -58q0 -50 54 -50q48 0 87 30q39 28 65 88l24 59l76 35l4 -4q-41 -104 -41 -150q0 -58 56 -58q22 0 41 7q13 5 28 15q38 26 58 96l8 29q6 23 12 50l76 51l4 -3q-11 -36 -17 -71q-8 -40 -8 -66q0 -56 46 -84q42 -24 118 -24h22v-128z" />
    <glyph glyph-name="uniFEB6" unicode="&#x634;" horiz-adv-x="1467" arabic-form="final" 
d="M1115 510q-59 56 -117 104q37 52 79 95q53 -42 114 -107q-43 -61 -76 -92zM922 497q-59 56 -117 104q37 52 79 95q53 -42 114 -107q-43 -61 -76 -92zM976 710q-59 56 -117 104q37 52 79 95q53 -42 114 -107q-43 -61 -76 -92zM753 0q-8 -53 -16 -88q-10 -43 -22 -72
q-38 -85 -135 -140q-95 -55 -201 -55q-141 0 -218 88q-73 83 -73 219q0 78 22 154q21 70 57 126l35 -18q-23 -52 -35 -95q-13 -49 -13 -92q0 -117 73 -182q66 -60 171 -60q112 0 207 72q90 68 90 140q0 108 -103 265q23 43 66 107h4q26 -51 47 -101q19 -44 35 -90
q21 -50 64 -50q21 0 43 9q18 7 33 19q17 11 31 29q17 23 27 50l26 74l68 31l4 -5q-30 -94 -30 -146q0 -61 69 -61q52 0 85 44q24 32 38 89l17 70l73 43l4 -5q-11 -41 -16 -72q-8 -40 -8 -65q0 -55 51 -82q43 -22 122 -22h22v-128h-25q-174 0 -216 94h-6q-80 -94 -175 -94
q-39 0 -64 15q-32 20 -43 68h-6q-55 -83 -159 -83h-20z" />
    <glyph glyph-name="uniFEBB" unicode="&#x635;" horiz-adv-x="1066" arabic-form="initial" 
d="M22 128q67 0 110 22q46 23 55 66q7 36 12 58q7 31 14 56q26 25 66 52l6 -6q-16 -57 -16 -94q0 -71 60 -111l44 65q25 36 48 65q55 71 114 124q54 48 111 76q67 33 129 33q67 0 119 -34q43 -30 67 -76q14 -29 20 -60q5 -26 5 -57q0 -41 -19 -95q-43 -127 -208 -181
q-90 -31 -249 -31q-211 0 -288 105h-3q-37 -57 -99 -84q-48 -21 -108 -21h-12q-37 0 -55 23q-15 18 -15 44q0 23 15 40q19 21 55 21h22zM568 128q68 0 141 17q66 15 119 40q82 39 82 72q-10 65 -57 108q-49 44 -115 44q-86 0 -184 -73q-92 -70 -173 -187q63 -21 187 -21z
" />
    <glyph glyph-name="uniFEBC" unicode="&#x635;" horiz-adv-x="1063" arabic-form="medial" 
d="M22 128q67 0 110 22q46 23 55 66q7 36 12 58q7 31 14 56q26 25 66 52l6 -6q-16 -57 -16 -94q0 -74 55 -111l44 65l48 65q55 70 115 122q55 49 103 73q60 30 121 30q103 0 166 -67q60 -62 60 -154q0 -40 -15 -88q-12 -42 -36 -89h133v-128h-26q-151 0 -299 35
q-53 -17 -101 -25q-61 -10 -132 -10q-205 0 -283 105h-3q-37 -57 -99 -84q-48 -21 -108 -21h-12q-37 0 -55 23q-15 18 -15 44q0 23 15 40q19 21 55 21h22zM452 134q48 -6 111 -6q71 0 148 14q68 13 112 31q82 33 82 75q-10 64 -65 107q-54 42 -122 42q-85 0 -172 -67
q-78 -61 -166 -181q29 -10 72 -15z" />
    <glyph glyph-name="uniFEBA" unicode="&#x635;" horiz-adv-x="1477" arabic-form="final" 
d="M782 236q25 35 48 64q55 69 115 122q27 23 49 40q28 20 54 33q60 31 121 31q103 0 166 -67q60 -62 60 -154q0 -40 -15 -88q-12 -42 -36 -89h133v-128h-38q-66 0 -136 8q-74 9 -151 27q-53 -17 -101 -25q-61 -10 -132 -10q-42 0 -75 3q-28 2 -49 6l-30 7l-17 6
q-15 -96 -39 -154q-38 -86 -131 -144t-197 -58q-140 0 -218 93q-73 86 -73 224q0 163 76 280l38 -18q-23 -52 -35 -95q-13 -49 -13 -92q0 -118 73 -187q68 -65 171 -65q87 0 171 60q78 56 110 127q-15 177 -108 318q26 48 74 107l8 -1q66 -107 83 -246q24 37 44 65zM866 134
q48 -6 111 -6q151 0 260 45q82 33 82 75q-10 64 -65 107q-54 42 -122 42q-85 0 -172 -67q-78 -61 -166 -181q29 -10 72 -15z" />
    <glyph glyph-name="uniFEBF" unicode="&#x636;" horiz-adv-x="1066" arabic-form="initial" 
d="M525 774q23 31 41 53q21 28 40 49q60 -44 120 -107q-35 -57 -83 -98q-25 24 -59 53zM22 128q67 0 110 22q46 23 55 66q7 36 12 58q7 31 14 56q26 25 66 52l6 -6q-16 -57 -16 -94q0 -71 60 -111l44 65q25 36 48 65q55 71 114 124q54 48 111 76q67 33 129 33q67 0 119 -34
q43 -30 67 -76q14 -29 20 -60q5 -26 5 -57q0 -41 -19 -95q-43 -127 -208 -181q-90 -31 -249 -31q-211 0 -288 105h-3q-37 -57 -99 -84q-48 -21 -108 -21h-12q-37 0 -55 23q-15 18 -15 44q0 23 15 40q19 21 55 21h22zM568 128q68 0 141 17q66 15 119 40q82 39 82 72
q-10 65 -57 108q-49 44 -115 44q-86 0 -184 -73q-92 -70 -173 -187q63 -21 187 -21z" />
    <glyph glyph-name="uniFEC0" unicode="&#x636;" horiz-adv-x="1063" arabic-form="medial" 
d="M525 769q23 31 41 53q21 28 40 49q60 -44 120 -107q-35 -57 -83 -98q-25 24 -59 53zM22 128q67 0 110 22q46 23 55 66q7 36 12 58q7 31 14 56q26 25 66 52l6 -6q-16 -57 -16 -94q0 -74 55 -111l44 65l48 65q55 70 115 122q55 49 103 73q60 30 121 30q103 0 166 -67
q60 -62 60 -154q0 -40 -15 -88q-12 -42 -36 -89h133v-128h-26q-151 0 -299 35q-53 -17 -101 -25q-61 -10 -132 -10q-205 0 -283 105h-3q-37 -57 -99 -84q-48 -21 -108 -21h-12q-37 0 -55 23q-15 18 -15 44q0 23 15 40q19 21 55 21h22zM452 134q48 -6 111 -6q71 0 148 14
q68 13 112 31q82 33 82 75q-10 64 -65 107q-54 42 -122 42q-85 0 -172 -67q-78 -61 -166 -181q29 -10 72 -15z" />
    <glyph glyph-name="uniFEBE" unicode="&#x636;" horiz-adv-x="1477" arabic-form="final" 
d="M859 769q23 31 41 53q21 28 40 49q60 -44 120 -107q-35 -57 -83 -98q-25 24 -59 53zM782 236q25 35 48 64q55 69 115 122q27 23 49 40q28 20 54 33q60 31 121 31q103 0 166 -67q60 -62 60 -154q0 -40 -15 -88q-12 -42 -36 -89h133v-128h-38q-66 0 -136 8q-74 9 -151 27
q-53 -17 -101 -25q-61 -10 -132 -10q-42 0 -75 3q-28 2 -49 6l-30 7l-17 6q-15 -96 -39 -154q-38 -86 -131 -144t-197 -58q-140 0 -218 93q-73 86 -73 224q0 163 76 280l38 -18q-23 -52 -35 -95q-13 -49 -13 -92q0 -118 73 -187q68 -65 171 -65q87 0 171 60q78 56 110 127
q-15 177 -108 318q26 48 74 107l8 -1q66 -107 83 -246q24 37 44 65zM866 134q48 -6 111 -6q151 0 260 45q82 33 82 75q-10 64 -65 107q-54 42 -122 42q-85 0 -172 -67q-78 -61 -166 -181q29 -10 72 -15z" />
    <glyph glyph-name="uniFEC3" unicode="&#x637;" horiz-adv-x="925" arabic-form="initial" 
d="M92 128l54 91q15 59 15 199q0 49 -2 113q-2 58 -6 125q-8 124 -17 221q-3 28 -4 49q-2 28 -2 49q0 56 78 115l7 -7q0 -84 85 -219l-65 -51l4 -81l2 -81q3 -87 3 -162q0 -63 -9 -113q-9 -45 -26 -87h4q58 59 113 106q59 51 107 81q96 60 188 60q90 0 149 -56
q75 -70 75 -177q0 -13 -7 -46q-7 -28 -16 -60q-18 -61 -87 -104q-59 -37 -156 -59q-42 -10 -91 -17q-44 -7 -93 -11q-43 -3 -90 -5q-39 -1 -80 -1h-225q-37 0 -55 23q-15 18 -15 44q0 23 15 40q19 21 55 21h92zM249 128q311 0 461 75q41 20 60 46q-1 56 -55 104
q-59 50 -137 50q-94 0 -203 -74q-102 -69 -214 -201h88z" />
    <glyph glyph-name="uniFEC4" unicode="&#x637;" horiz-adv-x="940" arabic-form="medial" 
d="M70 128l76 91q15 59 15 199q0 47 -2 111q-2 58 -6 125q-8 127 -17 223q-3 28 -4 49q-2 28 -2 49q0 56 78 115l7 -7q0 -83 85 -220l-65 -50l4 -81l2 -81q3 -87 3 -162q0 -63 -9 -113q-9 -45 -26 -87h4q58 62 108 106q55 47 104 77q89 55 186 55q96 0 166 -70
q73 -73 73 -176q0 -35 -15 -75q-12 -31 -37 -73q17 -3 47 -4q23 -1 56 -1h39v-128h-24q-169 0 -324 32q-97 -18 -234 -25q-63 -4 -138 -6q-67 -1 -149 -1h-71q-37 0 -55 23q-15 18 -15 44q0 23 15 40q19 21 55 21h70zM249 128q105 0 185 4q90 5 155 15q146 22 177 74
q0 65 -61 117q-63 53 -147 53q-92 0 -190 -68q-46 -32 -101 -82q-48 -45 -111 -113h93z" />
    <glyph glyph-name="uniFEC2" unicode="&#x637;" horiz-adv-x="1179" arabic-form="final" 
d="M385 219q15 59 15 199q0 51 -2 115q-2 59 -6 125q-7 119 -17 219q-3 28 -4 49q-2 28 -2 49q0 56 78 115l7 -7q0 -83 85 -220l-65 -50l4 -81l2 -81q3 -87 3 -162q0 -63 -9 -113q-9 -45 -26 -87h4q58 62 108 106q55 47 104 77q89 55 186 55q96 0 166 -70q73 -73 73 -176
q0 -35 -15 -75q-12 -31 -37 -73q17 -3 47 -4q23 -1 56 -1h39v-128h-24q-169 0 -324 32q-79 -15 -173 -23q-101 -9 -216 -9q-29 0 -56 1q-32 1 -55 3l-86 -121l-8 8q0 4 1 7l9 52q8 35 24 61l-76 9q-41 32 -73 61q-39 35 -72 69l4 12q144 -30 277 -34zM488 128q105 0 185 4
q90 5 155 15q146 22 177 74q0 65 -61 117q-63 53 -147 53q-92 0 -190 -68q-46 -32 -101 -82q-48 -45 -111 -113h93z" />
    <glyph glyph-name="uniFEC7" unicode="&#x638;" horiz-adv-x="925" arabic-form="initial" 
d="M425 774q23 31 41 53q21 28 40 49q60 -44 120 -107q-35 -57 -83 -98q-25 24 -59 53zM92 128l54 91q15 59 15 199q0 49 -2 113q-2 58 -6 125q-8 124 -17 221q-3 28 -4 49q-2 28 -2 49q0 56 78 115l7 -7q0 -83 85 -220l-65 -50l4 -81l2 -81q3 -87 3 -162q0 -63 -9 -113
q-9 -45 -26 -87h4q58 59 113 106q59 51 107 81q96 60 188 60q90 0 149 -56q75 -70 75 -177q0 -13 -7 -46q-7 -28 -16 -60q-18 -61 -87 -104q-59 -37 -156 -59q-42 -10 -91 -17q-44 -7 -93 -11q-43 -3 -90 -5q-39 -1 -80 -1h-225q-37 0 -55 23q-15 18 -15 44q0 23 15 40
q19 21 55 21h92zM249 128q311 0 461 75q41 20 60 46q-1 56 -55 104q-59 50 -137 50q-94 0 -203 -74q-102 -69 -214 -201h88z" />
    <glyph glyph-name="uniFEC8" unicode="&#x638;" horiz-adv-x="940" arabic-form="medial" 
d="M425 769q23 31 41 53q21 28 40 49q60 -44 120 -107q-35 -57 -83 -98q-25 24 -59 53zM70 128l76 91q15 59 15 199q0 47 -2 111q-2 58 -6 125q-8 127 -17 223q-3 28 -4 49q-2 28 -2 49q0 56 78 115l7 -7q0 -83 85 -220l-65 -50l4 -81l2 -81q3 -87 3 -162q0 -63 -9 -113
q-9 -45 -26 -87h4q58 62 108 106q55 47 104 77q89 55 186 55q96 0 166 -70q73 -73 73 -176q0 -35 -15 -75q-12 -31 -37 -73q17 -3 47 -4q23 -1 56 -1h39v-128h-24q-169 0 -324 32q-97 -18 -234 -25q-63 -4 -138 -6q-67 -1 -149 -1h-71q-37 0 -55 23q-15 18 -15 44
q0 23 15 40q19 21 55 21h70zM249 128q105 0 185 4q90 5 155 15q146 22 177 74q0 65 -61 117q-63 53 -147 53q-92 0 -190 -68q-46 -32 -101 -82q-48 -45 -111 -113h93z" />
    <glyph glyph-name="uniFEC6" unicode="&#x638;" horiz-adv-x="1179" arabic-form="final" 
d="M654 769q23 31 41 53q21 28 40 49q60 -44 120 -107q-35 -57 -83 -98q-25 24 -59 53zM385 219q15 59 15 199q0 51 -2 115q-2 59 -6 125q-7 119 -17 219q-3 28 -4 49q-2 28 -2 49q0 56 78 115l7 -7q0 -83 85 -220l-65 -50l4 -81l2 -81q3 -87 3 -162q0 -63 -9 -113
q-9 -45 -26 -87h4q58 62 108 106q55 47 104 77q89 55 186 55q96 0 166 -70q73 -73 73 -176q0 -35 -15 -75q-12 -31 -37 -73q17 -3 47 -4q23 -1 56 -1h39v-128h-24q-169 0 -324 32q-79 -15 -173 -23q-101 -9 -216 -9q-29 0 -56 1q-32 1 -55 3l-86 -121l-8 8q0 4 1 7l9 52
q8 35 24 61l-76 9q-41 32 -73 61q-39 35 -72 69l4 12q144 -30 277 -34zM488 128q105 0 185 4q90 5 155 15q146 22 177 74q0 65 -61 117q-63 53 -147 53q-92 0 -190 -68q-46 -32 -101 -82q-48 -45 -111 -113h93z" />
    <glyph glyph-name="uniFECB" unicode="&#x639;" horiz-adv-x="733" arabic-form="initial" 
d="M63 128q32 0 67 5q41 5 81 16v5q-56 37 -85 83q-32 51 -32 113q0 59 43 131q37 61 88 96q56 38 119 38q139 0 222 -163l-19 -20q-75 64 -179 64q-75 0 -131 -29q-52 -26 -52 -55q0 -75 86 -142q70 -54 121 -54t127 21q31 8 75 22l84 28l5 -5l-53 -124q-53 -19 -105 -34
q-36 -11 -86 -24l-39 -10q-24 -6 -40 -11q-46 -12 -85 -25l-63 -20q-35 -11 -61 -17q-67 -17 -120 -17h-31q-37 0 -55 23q-15 18 -15 44q0 23 15 40q19 21 55 21h63z" />
    <glyph glyph-name="uniFECC" unicode="&#x639;" horiz-adv-x="748" arabic-form="medial" 
d="M42 128q38 0 62 1q33 2 62 6q66 11 138 43v4q-27 18 -70 60q-6 7 -17 17l-18 18l-35 34q-46 42 -69 42h-31l-3 2l39 115l31 4q32 7 61 12q34 7 66 11q74 10 141 10q171 0 290 -50l-35 -109l-174 -161v-4q102 -55 228 -55h40v-128h-30q-182 0 -333 117h-4
q-89 -64 -176 -92q-79 -25 -174 -25h-31q-37 0 -55 23q-15 18 -15 44q0 23 15 40q19 21 55 21h42zM405 226q52 37 90 67q50 40 94 82v4q-50 12 -87 17q-51 8 -99 8q-88 0 -185 -18v-4l36 -34q5 -5 7 -8q9 -9 16 -15q50 -47 124 -99h4z" />
    <glyph glyph-name="uniFECA" unicode="&#x639;" horiz-adv-x="842" arabic-form="final" 
d="M443 128q-142 -72 -214 -140q-81 -76 -81 -154q0 -126 126 -204q127 -79 331 -79q142 0 255 29l7 -18l-80 -57q-45 -30 -88 -55q-52 -29 -171 -29q-195 0 -315 90q-64 48 -97 116q-36 74 -36 167q0 65 23 126q22 57 63 109q36 48 89 93q46 40 104 76q-25 19 -61 56
l-18 20l-58 58l-18 16q-19 16 -32 16q-10 0 -24 -4l-25 -8l-6 9l43 109l108 20q34 7 66 11q74 10 141 10q176 0 286 -46l-24 -113l-193 -166v-4q101 -54 240 -54h58v-129h-47q-86 0 -181 36q-90 35 -165 93h-6zM460 235l25 16l13 7l12 9q31 19 53 34q61 41 102 80v6
q-49 11 -90 16q-53 7 -101 7q-60 0 -108 -5q-38 -5 -84 -15v-5l174 -149z" />
    <glyph glyph-name="uniFECF" unicode="&#x63a;" horiz-adv-x="733" arabic-form="initial" 
d="M157 829q23 31 41 53q21 28 40 49q60 -44 120 -107q-35 -57 -83 -98q-25 24 -59 53zM63 128q32 0 67 5q41 5 81 16v5q-56 37 -85 83q-32 51 -32 113q0 59 43 131q37 61 88 96q56 38 119 38q139 0 222 -163l-19 -20q-75 64 -179 64q-75 0 -131 -29q-52 -26 -52 -55
q0 -75 86 -142q70 -54 121 -54t127 21q31 8 75 22l84 28l5 -5l-53 -124q-53 -19 -105 -34q-36 -11 -86 -24l-39 -10q-24 -6 -40 -11q-46 -12 -85 -25l-63 -20q-35 -11 -61 -17q-67 -17 -120 -17h-31q-37 0 -55 23q-15 18 -15 44q0 23 15 40q19 21 55 21h63z" />
    <glyph glyph-name="uniFED0" unicode="&#x63a;" horiz-adv-x="748" arabic-form="medial" 
d="M42 128q38 0 62 1q33 2 62 6q66 11 138 43v4q-27 18 -70 60q-6 7 -17 17l-18 18l-35 34q-46 42 -69 42h-31l-3 2l39 115l31 4q32 7 61 12q34 7 66 11q74 10 141 10q171 0 290 -50l-35 -109l-174 -161v-4q102 -55 228 -55h40v-128h-30q-182 0 -333 117h-4
q-89 -64 -176 -92q-79 -25 -174 -25h-31q-37 0 -55 23q-15 18 -15 44q0 23 15 40q19 21 55 21h42zM405 226q52 37 90 67q50 40 94 82v4q-50 12 -87 17q-51 8 -99 8q-88 0 -185 -18v-4l36 -34q5 -5 7 -8q9 -9 16 -15q50 -47 124 -99h4zM265 779q23 31 41 53q21 28 40 49
q60 -44 120 -107q-35 -57 -83 -98q-25 24 -59 53z" />
    <glyph glyph-name="uniFECE" unicode="&#x63a;" horiz-adv-x="842" arabic-form="final" 
d="M443 128q-142 -72 -214 -140q-81 -76 -81 -154q0 -126 126 -204q127 -79 331 -79q142 0 255 29l7 -18l-80 -57q-45 -30 -88 -55q-52 -29 -171 -29q-195 0 -315 90q-64 48 -97 116q-36 74 -36 167q0 65 23 126q22 57 63 109q36 48 89 93q46 40 104 76q-25 19 -61 56
l-18 20l-58 58l-18 16q-19 16 -32 16q-10 0 -24 -4l-25 -8l-6 9l43 109l108 20q34 7 66 11q74 10 141 10q176 0 286 -46l-24 -113l-193 -166v-4q101 -54 240 -54h58v-129h-47q-86 0 -181 36q-90 35 -165 93h-6zM460 235l25 16l13 7l12 9q31 19 53 34q61 41 102 80v6
q-49 11 -90 16q-53 7 -101 7q-60 0 -108 -5q-38 -5 -84 -15v-5l174 -149zM335 779q23 31 41 53q21 28 40 49q60 -44 120 -107q-35 -57 -83 -98q-25 24 -59 53z" />
    <glyph glyph-name="uniFED3" unicode="&#x641;" horiz-adv-x="574" arabic-form="initial" 
d="M84 128q74 0 120 4q59 4 98 16q48 14 83 39q35 24 35 44v11l-2 11q-24 -3 -56 -3q-20 -1 -57 -1q-91 0 -150 25q-65 27 -90 83q-15 35 -15 72q0 119 75 197q65 67 129 67q117 0 191 -198q20 -53 30 -108q12 -62 12 -130q0 -100 -49 -158q-87 -99 -357 -99h-81
q-37 0 -55 23q-15 18 -15 44q0 23 15 40q19 21 55 21h84zM340 501q-50 61 -108 61q-47 0 -85 -30q-35 -29 -35 -59q0 -57 86 -83q73 -23 204 -22q-16 76 -62 133zM130 909q23 31 41 53q21 28 40 49q60 -44 120 -107q-35 -57 -83 -98q-25 24 -59 53z" />
    <glyph glyph-name="uniFED4" unicode="&#x641;" horiz-adv-x="660" arabic-form="medial" 
d="M17 128q36 0 85 8q18 3 40 8l36 8q-22 37 -29 78q-6 29 -6 74q0 63 20 120q23 66 70 115q86 93 151 93q59 0 117 -111q38 -73 38 -142q0 -65 -18 -125q-16 -52 -49 -108q62 -18 156 -18h32v-128h-29q-146 0 -327 64q-181 -64 -286 -64h-18q-37 0 -55 23q-15 18 -15 44
q0 23 15 40q19 21 55 21h17zM431 234q53 40 53 70q0 24 -8 51q-6 19 -16 39q-46 90 -99 90q-55 0 -108 -56q-49 -51 -64 -111q11 -47 42 -78q34 -37 95 -55q53 11 105 50zM245 869q23 31 41 53q21 28 40 49q60 -44 120 -107q-35 -57 -83 -98q-25 24 -59 53z" />
    <glyph glyph-name="uniFED2" unicode="&#x641;" horiz-adv-x="1462" arabic-form="final" 
d="M865 -15q-151 -26 -275 -26q-108 0 -190 18q-89 19 -153 59q-69 44 -107 111q-40 71 -40 160q0 64 13 121q15 62 46 121l40 -17q-29 -87 -29 -152q0 -141 132 -221q58 -35 143 -50q74 -14 175 -14q187 0 368 44l-8 13q-22 37 -29 78q-6 29 -6 74q0 63 20 119
q22 65 70 116q88 93 151 93q60 0 117 -111q38 -73 38 -142q0 -65 -18 -125q-16 -52 -49 -108q62 -18 156 -18h32v-128h-29q-78 0 -138 10q-71 12 -161 44q-113 -43 -269 -69zM1236 232q50 41 50 72q0 24 -8 51q-6 19 -16 39q-46 90 -99 90q-55 0 -108 -56q-49 -51 -64 -111
q11 -47 45 -81q37 -40 98 -58q52 13 102 54zM1024 875q23 31 41 53q21 28 40 49q60 -44 120 -107q-35 -57 -83 -98q-25 24 -59 53z" />
    <glyph glyph-name="uniFED7" unicode="&#x642;" horiz-adv-x="574" arabic-form="initial" 
d="M310 800q-59 56 -117 104q37 52 79 95q53 -42 114 -107q-43 -61 -76 -92zM117 787q-59 56 -117 104q37 52 79 95q53 -42 114 -107q-43 -61 -76 -92zM84 128q74 0 120 4q59 4 98 16q48 14 83 39q35 24 35 44v11l-2 11q-24 -3 -56 -3q-20 -1 -57 -1q-91 0 -150 25
q-65 27 -90 83q-15 35 -15 72q0 119 75 197q65 67 129 67q117 0 191 -198q20 -53 30 -108q12 -62 12 -130q0 -100 -49 -158q-87 -99 -357 -99h-81q-37 0 -55 23q-15 18 -15 44q0 23 15 40q19 21 55 21h84zM340 501q-50 61 -108 61q-47 0 -85 -30q-35 -29 -35 -59
q0 -57 86 -83q73 -23 204 -22q-16 76 -62 133z" />
    <glyph glyph-name="uniFED8" unicode="&#x642;" horiz-adv-x="660" arabic-form="medial" 
d="M445 760q-59 56 -117 104q37 52 79 95q53 -42 114 -107q-43 -61 -76 -92zM252 747q-59 56 -117 104q37 52 79 95q53 -42 114 -107q-43 -61 -76 -92zM17 128q36 0 85 8q18 3 40 8l36 8q-22 37 -29 78q-6 29 -6 74q0 63 20 120q23 66 70 115q86 93 151 93q59 0 117 -111
q38 -73 38 -142q0 -65 -18 -125q-16 -52 -49 -108q62 -18 156 -18h32v-128h-29q-146 0 -327 64q-181 -64 -286 -64h-18q-37 0 -55 23q-15 18 -15 44q0 23 15 40q19 21 55 21h17zM431 234q53 40 53 70q0 24 -8 51q-6 19 -16 39q-46 90 -99 90q-55 0 -108 -56
q-49 -51 -64 -111q11 -47 42 -78q34 -37 95 -55q53 11 105 50z" />
    <glyph glyph-name="uniFED6" unicode="&#x642;" horiz-adv-x="1050" arabic-form="final" 
d="M976 0q0 -61 -16 -124q-13 -53 -74 -109q-82 -72 -182 -116q-56 -25 -113 -37q-62 -15 -124 -15q-157 0 -263 98q-55 50 -84 118q-32 74 -32 162q0 155 61 282l42 -11q-16 -48 -24 -86q-10 -44 -10 -80q0 -155 88 -248q86 -91 225 -91q77 0 149 20q85 23 172 76
q55 39 85 67q37 35 37 54q0 24 -8 40h-56q-309 0 -309 205q0 48 15 91q12 36 36 70q30 44 68 69q41 27 86 27q71 0 132 -90q63 -94 83 -244h90v-128h-74zM892 128q-17 89 -70 146q-50 56 -106 56q-41 0 -77 -29q-36 -28 -36 -59q0 -36 32 -62q28 -23 77 -37q38 -10 85 -13
l46 -2h49zM807 600q-59 56 -117 104q37 52 79 95q53 -42 114 -107q-43 -61 -76 -92zM614 587q-59 56 -117 104q37 52 79 95q53 -42 114 -107q-43 -61 -76 -92z" />
    <glyph glyph-name="uniFEDB" unicode="&#x643;" horiz-adv-x="641" arabic-form="initial" 
d="M622 1076q-15 -28 -36 -61q-16 -27 -39 -62q-79 -20 -161 -49q-77 -27 -161 -61q-80 -31 -168 -70v-3l163 -63l-24 -50q121 -98 186 -186q71 -95 71 -171q0 -141 -64 -207q-51 -45 -128 -67q-88 -26 -221 -26h-40q-37 0 -55 23q-15 18 -15 44q0 23 15 40q19 21 55 21h63
q87 0 147 10q73 13 120 42q55 34 55 54q0 31 -20 72q-17 34 -49 78q-37 51 -105 116q-39 38 -86 78l-110 89q-20 15 -28 42q-8 21 -8 50q0 25 23 64q9 15 25 29q19 16 50 32q81 41 227 94l146 51l165 55z" />
    <glyph glyph-name="uniFEDC" unicode="&#x643;" horiz-adv-x="770" arabic-form="medial" 
d="M770 0h-20q-84 0 -149 46q-28 20 -57 51q-23 25 -53 65l-6 8q-1 2 -3 4l-9 12q-4 4 -6 8q-14 17 -23 30q-25 31 -41 49h-4q-1 -128 -80 -195q-92 -78 -292 -78h-27q-37 0 -55 23q-15 18 -15 44q0 23 15 40q19 21 55 21h40q68 0 127 13q70 14 115 45q19 12 32 24
q8 7 12 13q5 7 5 12q0 24 -20 68q-29 62 -99 146q-30 36 -70 78l-114 118q-17 18 -27 30l-4 27q-3 16 -3 28q0 38 27 86q11 20 36 37q72 47 243 110q76 28 175 61l197 63l4 -6q-30 -61 -77 -123q-42 -11 -106 -31l-123 -43l-88 -34l-82 -32q-84 -35 -133 -61v-3
q36 -23 82 -45q17 -9 38 -18l34 -15l-30 -50q75 -68 174 -175l95 -106l100 -115q87 -102 193 -102h17v-128z" />
    <glyph glyph-name="uniFEDA" unicode="&#x643;" horiz-adv-x="1091" arabic-form="final" 
d="M907 1035q8 -130 11 -278q4 -155 4 -351q0 -32 1 -56q2 -30 5 -56q9 -63 33 -104q35 -62 111 -62h19v-128h-23q-163 0 -205 184h-5q-40 -65 -140 -115q-73 -37 -158 -54q-74 -15 -153 -15q-125 0 -209 72q-46 40 -71 98q-27 64 -27 147q0 109 55 217l43 -15
q-35 -78 -35 -146q0 -115 77 -177q72 -59 195 -59q86 0 166 22q33 8 65 21q27 11 53 24q85 42 112 87q5 18 5 55q0 69 -3 148q-2 73 -7 154q-4 72 -10 151q-5 68 -12 142q45 53 96 97zM590 702l-10 5q-89 -35 -108 -97h79q101 0 101 -77q0 -69 -58 -108q-52 -35 -125 -35
q-41 0 -65 5l-66 39v7q99 3 177 25q80 23 80 51q0 10 -90 10q-88 0 -88 13l-1 39q-1 58 64 138q68 80 112 80q23 0 23 -23q0 -11 -7 -32l-14 -40h-4z" />
    <glyph glyph-name="uniFEDF" unicode="&#x644;" horiz-adv-x="384" arabic-form="initial" 
d="M22 128q28 0 52 5q31 6 60 22q53 30 53 108q-1 115 -9 251q-7 122 -20 268l-5 50q-1 9 -1 16q-4 36 -4 59q0 34 30 67q21 26 55 55l7 -5q-3 -90 81 -229q-27 -25 -63 -51l12 -262q1 -47 1 -85q0 -168 -40 -251q-18 -43 -36 -68q-23 -32 -55 -48q-58 -30 -125 -30h-15
q-37 0 -55 23q-15 18 -15 44q0 23 15 40q19 21 55 21h22z" />
    <glyph glyph-name="uniFEE0" unicode="&#x644;" horiz-adv-x="430" arabic-form="medial" 
d="M20 128q59 0 116 31q48 27 48 120q0 73 -2 148l-5 147l-22 366l89 90l5 -2q7 -85 11 -179q4 -86 6 -187q2 -88 3 -201v-219q0 -43 31 -74q39 -40 117 -40h13v-128h-21q-149 0 -195 106h-4q-25 -46 -72 -74q-52 -32 -121 -32h-17q-37 0 -55 23q-15 18 -15 44q0 23 15 40
q19 21 55 21h20z" />
    <glyph glyph-name="uniFEDE" unicode="&#x644;" horiz-adv-x="907" arabic-form="final" 
d="M734 987q2 -50 3 -91l7 -263q2 -90 3 -173q1 -89 1 -176q0 -88 50 -128q34 -27 98 -28h11v-128h-19q-111 0 -157 75h-4q-6 -43 -13 -76q-9 -40 -22 -73q-22 -35 -53 -64q-26 -26 -62 -49q-94 -62 -208 -62q-133 0 -208 86q-71 82 -71 226q0 60 19 126q16 59 48 126
l36 -14q-42 -96 -42 -174q0 -89 51 -155q62 -81 173 -81q48 0 93 13q40 12 80 34q82 46 109 95l4 20q3 18 3 46q0 126 -7 315q-3 103 -9 222q-6 126 -14 268q51 56 92 88z" />
    <glyph glyph-name="uniFEE3" unicode="&#x645;" horiz-adv-x="674" arabic-form="initial" 
d="M22 128q117 0 168 177q16 58 74 121q63 58 126 58q86 0 145 -106q52 -95 65 -237q-30 -129 -106 -129q-72 0 -148 32q-71 29 -149 86h-7q-38 -130 -173 -130h-17q-37 0 -55 23q-15 18 -15 44q0 23 15 40q19 21 55 21h22zM290 212q34 -24 82 -44q32 -13 59 -20
q32 -9 60 -9q27 0 32 11q-21 108 -66 166q-41 52 -92 52q-91 0 -134 -98q21 -32 59 -58z" />
    <glyph glyph-name="uniFEE4" unicode="&#x645;" horiz-adv-x="776" arabic-form="medial" 
d="M29 128q74 0 113 38q31 31 56 109q28 90 82 142q50 48 103 48q74 0 120 -67q19 -28 39 -65q22 -40 61 -123q38 -82 156 -82h17v-128h-19q-47 0 -83 18q-41 22 -71 69h-4q-10 -51 -32 -76q-31 -33 -66 -33q-60 0 -140 37q-85 41 -143 103h-4q-23 -52 -69 -83
q-54 -35 -130 -35h-15q-37 0 -55 23q-15 18 -15 44q0 23 15 40q19 21 55 21h29zM294 198q34 -32 72 -53q76 -44 138 -44q37 0 37 25q0 28 -15 66q-14 34 -35 67q-59 90 -128 90q-84 0 -115 -90q7 -26 46 -61z" />
    <glyph glyph-name="uniFEE2" unicode="&#x645;" horiz-adv-x="847" arabic-form="final" 
d="M406 498q39 -30 80 -69q35 -34 77 -81q17 -19 34 -40l48 -63l10 -15q17 -23 30 -39q48 -63 146 -63h16v-128h-20q-102 0 -168 93l-6 -2q-6 -59 -43 -104q-38 -47 -85 -47q-103 0 -178 91q-74 90 -76 219q-117 -91 -117 -156q0 -64 49 -218l39 -123q21 -66 34 -112
q33 -114 33 -149q0 -32 -7 -75q-5 -34 -14 -72h-12q-16 73 -48 172q-13 42 -30 91l-33 90l-33 95q-16 48 -27 87q-25 89 -25 139q0 52 18 122q26 107 101 172l55 49q32 28 52 47q57 52 91 89h9zM359 328q-24 -24 -24 -42q0 -94 76 -162q25 -22 52 -34q33 -15 71 -15
q65 0 65 37q0 32 -35 78l-30 38q-18 21 -37 41q-44 45 -103 91z" />
    <glyph glyph-name="uniFEE7" unicode="&#x646;" horiz-adv-x="433" arabic-form="initial" 
d="M17 128q72 0 114 4q52 4 83 15q57 21 57 44q0 32 -30 103l-32 69l-38 75q37 66 75 113h5q41 -72 67 -146q33 -91 33 -159q0 -52 -20 -101q-17 -41 -50 -85q-60 -60 -269 -60h-12q-37 0 -55 23q-15 18 -15 44q0 23 15 40q19 21 55 21h17zM75 770q23 31 41 53q21 28 40 49
q60 -44 120 -107q-35 -57 -83 -98q-25 24 -59 53z" />
    <glyph glyph-name="uniFEE8" unicode="&#x646;" horiz-adv-x="451" arabic-form="medial" 
d="M115 630q23 31 41 53q21 28 40 49q60 -44 120 -107q-35 -57 -83 -98q-25 24 -59 53zM22 128q61 0 109 23q52 24 63 65l29 108l69 50l6 -7q-22 -80 -22 -116q0 -57 33 -83q49 -40 124 -40h18v-128h-23q-77 0 -127 23q-55 25 -79 79h-4q-52 -102 -199 -102h-19
q-37 0 -55 23q-15 18 -15 44q0 23 15 40q19 21 55 21h22z" />
    <glyph glyph-name="uniFEE6" unicode="&#x646;" horiz-adv-x="965" arabic-form="final" 
d="M690 422q48 -95 81 -192q20 -62 65 -84q36 -18 115 -18h14v-128h-21q-88 0 -143 45h-3q-8 -158 -62 -231q-52 -67 -151 -114q-99 -48 -188 -48q-140 0 -224 85q-83 84 -83 218q0 87 26 165q11 33 27 66q14 28 33 60l38 -21q-56 -105 -56 -187q0 -60 19 -105
q17 -40 48 -69q71 -67 189 -67q130 0 242 87q73 57 73 103q0 32 -7 65q-8 39 -29 101q-45 105 -79 163q35 62 68 106h8zM371 625q23 31 41 53q21 28 40 49q60 -44 120 -107q-35 -57 -83 -98q-25 24 -59 53z" />
    <glyph glyph-name="afii57470.fina" unicode="&#x647;" horiz-adv-x="764" arabic-form="final" 
d="M45 -56q31 60 77 120q29 38 121 52l25 111q16 68 29 114q41 148 114 257l9 3q6 -12 17 -29l72 -107q25 -40 41 -72q38 -75 38 -133q0 -72 -19 -132h195v-128h-26q-18 0 -39 2q-28 3 -45 8l-5 -2q41 -66 41 -135q0 -68 -32 -120q-23 -39 -63 -65q-43 -29 -87 -29
q-81 0 -142 40q-136 86 -136 257v40q-74 -9 -114 -25q-32 -12 -55 -37zM352 -136q85 -100 191 -100q58 0 58 49q0 13 -1 24q-2 15 -6 29q-9 35 -32 67q-25 37 -62 56q-42 22 -98 22q-52 0 -113 -8q4 -71 63 -139zM385 129q41 5 71 13q66 18 66 51q0 43 -38 111
q-16 27 -40 63q-16 25 -46 67h-5q-24 -71 -49 -154q-23 -76 -45 -159z" />
    <glyph glyph-name="uniFEE9" unicode="&#x647;" horiz-adv-x="1026" arabic-form="isolated" 
d="M293 -8q-76 -21 -129 -21q-56 0 -136 13l-5 16l38 12q21 6 38 12l77 26q42 16 79 32q42 18 82 39q-31 31 -42 82q-4 21 -5 46q-1 10 -1 23v22q0 95 63 182q48 65 98 93q5 50 18 100h8q33 -32 79 -69q36 -29 89 -66l185 -133q123 -93 123 -214q0 -80 -48 -131
q-54 -56 -151 -56q-129 0 -293 59q-79 -43 -167 -67zM555 230q53 37 53 65q0 60 -36 113q-34 49 -68 49q-53 0 -111 -59q-54 -57 -54 -99q0 -26 35 -60q37 -36 91 -57q46 17 90 48zM683 121q49 -9 100 -9q43 0 74 13q32 13 32 32q0 45 -60 102q-27 26 -68 56q-36 26 -87 58
q-12 -125 -76 -229q46 -15 85 -23z" />
    <glyph glyph-name="uniFEEB" unicode="&#x647;" horiz-adv-x="911" arabic-form="initial" 
d="M18 128q44 0 84 6q52 7 94 23q-22 58 -22 137q0 95 63 182q48 65 98 93q5 50 18 100h8q33 -32 79 -69q36 -29 89 -66l47 -33q4 -4 11 -9q2 0 3 -2q1 0 2 -1q1 0 1 -1q4 -2 6 -4l114 -82q124 -94 124 -215q0 -80 -48 -131q-54 -56 -151 -56q-129 0 -341 68
q-164 -68 -274 -68h-23q-37 0 -55 23q-15 18 -15 44q0 23 15 40q19 21 55 21h18zM379 200q30 13 52 26q61 36 61 72q0 60 -35 111q-34 48 -68 48q-53 0 -111 -59q-54 -57 -54 -99q0 -60 110 -116q24 8 45 17zM668 112q43 0 74 13q32 13 32 32q0 45 -60 102q-27 26 -68 56
q-36 26 -87 58q-12 -119 -77 -233q84 -28 186 -28z" />
    <glyph glyph-name="uniFEEC" unicode="&#x647;" horiz-adv-x="632" arabic-form="medial" 
d="M111 128q13 59 25 105q14 57 29 108q41 148 114 257l9 3q6 -12 17 -29l72 -107q25 -40 41 -72q38 -75 38 -133q0 -72 -19 -132h195v-128h-26q-18 0 -39 2q-28 3 -45 8l-5 -2q41 -66 41 -135q0 -68 -32 -120q-23 -39 -63 -65q-43 -29 -87 -29q-81 0 -142 40
q-136 86 -136 257v49q-38 -5 -79 -5h-19q-37 0 -55 23q-15 18 -15 44q0 23 15 40q19 21 55 21h111zM220 -136q85 -100 191 -100q58 0 58 49q0 13 -1 24q-2 15 -6 29q-9 35 -32 67q-25 37 -62 56q-42 22 -98 22t-113 -9q5 -71 63 -138zM250 131q43 3 74 11q66 18 66 51
q0 43 -38 111q-16 27 -40 63q-16 25 -46 67h-5q-27 -78 -49 -151q-25 -79 -45 -155q50 0 83 3z" />
    <glyph glyph-name="uniFEEA" unicode="&#x647;" horiz-adv-x="699" arabic-form="final" 
d="M379 108q-52 -13 -107 -13q-82 0 -130 29q-52 30 -52 88q0 44 33 117q63 134 319 275l-6 75q43 50 79 82h11l4 -233l2 -233q2 -109 38 -141q30 -26 105 -26h24v-128h-22q-80 0 -126 27q-54 32 -81 112q-48 -21 -91 -31zM449 493q-271 -140 -271 -219q0 -28 39 -43
q34 -13 89 -13q61 0 148 28z" />
    <glyph glyph-name="uniFEEE" unicode="&#x648;" horiz-adv-x="690" arabic-form="final" 
d="M690 128v-128h-83q-8 -103 -76 -205q-27 -41 -63 -76q-31 -30 -66 -53q-66 -42 -112 -42q-65 0 -142 29q-69 25 -146 72l17 33q67 -36 147 -36q143 0 278 138q40 42 60 70q25 35 34 70h-49q-308 0 -308 205q0 48 15 91q12 36 36 70q30 44 68 69q41 27 86 27q71 0 132 -90
q63 -94 83 -244h89zM533 128q-17 89 -70 146q-50 56 -106 56q-41 0 -77 -29q-36 -28 -36 -59q0 -36 31 -62q27 -22 78 -37q37 -10 86 -13l46 -2h48z" />
    <glyph glyph-name="uniFBE8" unicode="&#x649;" horiz-adv-x="433" arabic-form="initial" 
d="M17 128q72 0 114 4q52 4 83 15q57 21 57 44q0 32 -30 103l-32 69l-38 75q37 66 75 113h5q41 -72 67 -146q33 -91 33 -159q0 -52 -20 -101q-17 -41 -50 -85q-60 -60 -269 -60h-12q-37 0 -55 23q-15 18 -15 44q0 23 15 40q19 21 55 21h17z" />
    <glyph glyph-name="uniFBE9" unicode="&#x649;" horiz-adv-x="451" arabic-form="medial" 
d="M22 128q61 0 109 23q52 24 63 65l29 108l69 50l6 -7q-22 -80 -22 -116q0 -57 33 -83q49 -40 124 -40h18v-128h-23q-77 0 -127 23q-55 25 -79 79h-4q-52 -102 -199 -102h-19q-37 0 -55 23q-15 18 -15 44q0 23 15 40q19 21 55 21h22z" />
    <glyph glyph-name="uniFEF0" unicode="&#x649;" horiz-adv-x="1017" arabic-form="final" 
d="M1017 128v-128h-58q4 -37 4 -72q0 -22 -18 -67q-14 -37 -27 -58q-95 -85 -226 -136q-127 -50 -240 -50q-92 0 -164 30q-65 28 -111 78q-45 51 -67 123q-20 68 -20 156q0 171 94 330l38 -17q-61 -148 -61 -251q0 -134 80 -218q91 -94 242 -94q143 0 319 86q80 45 90 69
q-44 91 -291 91l-6 14l69 114h353z" />
    <glyph glyph-name="uniFEF3" unicode="&#x64a;" horiz-adv-x="441" arabic-form="initial" 
d="M17 128q72 0 114 4q52 4 83 15q57 21 57 44q0 32 -30 103l-32 69l-38 75q37 66 75 113h5q41 -72 67 -146q33 -91 33 -159q0 -52 -20 -101q-17 -41 -50 -85q-60 -60 -269 -60h-12q-37 0 -55 23q-15 18 -15 44q0 23 15 40q19 21 55 21h17zM115 -399q-59 57 -117 104
q37 52 79 95q53 -41 114 -107q-43 -61 -76 -92zM308 -386q-59 57 -117 104q37 52 79 95q53 -41 114 -107q-43 -61 -76 -92z" />
    <glyph glyph-name="uniFEF4" unicode="&#x64a;" horiz-adv-x="451" arabic-form="medial" 
d="M135 -399q-59 57 -117 104q37 52 79 95q53 -41 114 -107q-43 -61 -76 -92zM328 -386q-59 57 -117 104q37 52 79 95q53 -41 114 -107q-43 -61 -76 -92zM22 128q61 0 109 23q52 24 63 65l29 108l69 50l6 -7q-22 -80 -22 -116q0 -57 33 -83q49 -40 124 -40h18v-128h-23
q-77 0 -127 23q-55 25 -79 79h-4q-52 -102 -199 -102h-19q-37 0 -55 23q-15 18 -15 44q0 23 15 40q19 21 55 21h22z" />
    <glyph glyph-name="uniFEF2" unicode="&#x64a;" horiz-adv-x="1017" arabic-form="final" 
d="M1017 128v-128h-58q4 -37 4 -72q0 -22 -18 -67q-14 -37 -27 -58q-95 -85 -226 -136q-127 -50 -240 -50q-92 0 -164 30q-65 28 -111 78q-45 51 -67 123q-20 68 -20 156q0 171 94 330l38 -17q-61 -148 -61 -251q0 -134 80 -218q91 -94 242 -94q143 0 319 86q80 45 90 69
q-44 91 -291 91l-8 13l71 115h353z" />
    <glyph glyph-name="uniFB51" unicode="&#x671;" horiz-adv-x="436" arabic-form="final" 
d="M436 0h-11q-114 0 -171 57q-42 43 -54 108q-5 30 -7 75q-1 19 -1 45v52q0 133 -7 292l-9 152q-4 72 -10 157q31 34 49 52q25 25 45 41l7 -4q6 -78 9 -171q3 -82 5 -181q1 -44 1 -93q1 -43 1 -93v-243q0 -44 23 -72q18 -23 52 -35q17 -6 37 -9l15 -2h26v-128zM23 1078
l5 73q32 63 59 63q15 0 39 -12q45 63 82 94q44 36 86 36t69 -30q28 -33 28 -90q0 -52 -37 -89q-40 -38 -101 -38q-35 0 -67 7q-26 6 -50 16q-9 3 -19 8l-14 7q-14 7 -17 7q-4 0 -11 -6q-7 -5 -16 -14q-15 -15 -30 -35zM262 1161q32 0 60 12q30 13 31 32q-16 57 -70 59
q-62 0 -126 -79q50 -24 105 -24z" />
    <glyph glyph-name="uni0672.fina" unicode="&#x672;" horiz-adv-x="507" 
d="M507 0h-11q-114 0 -171 57q-42 43 -54 108q-5 30 -7 75q-1 19 -1 45v52q0 133 -7 292l-9 152q-4 72 -10 157q31 34 49 52q25 25 45 41l7 -4q6 -78 9 -171q3 -82 5 -181q1 -44 1 -93q1 -43 1 -93v-243q0 -44 23 -72q18 -23 52 -35q17 -6 37 -9l15 -2h26v-128zM372 1237
q-14 44 -53 44q-26 0 -51 -11q-25 -12 -25 -25q0 -27 34 -45q30 -17 66 -17q32 0 75 11l63 18l2 -5q-24 -41 -55 -85q-76 -16 -125 -39q-18 -8 -34 -18l-36 -26l-13 -7q-13 -7 -32 -7q-21 0 -53 20q-32 19 -48 19q-24 0 -49 -30l-20 23q27 38 51 58q29 25 59 25q19 0 51 -18
l11 -7q6 -4 11 -6q12 -6 20 -6q21 0 36 13v4q-33 14 -53 35q-23 24 -23 53q0 37 47 84q59 57 118 57q64 0 64 -53q0 -21 -29 -60z" />
    <glyph glyph-name="uni0673.fina" unicode="&#x673;" horiz-adv-x="462" 
d="M462 0h-11q-114 0 -171 57q-42 43 -54 108q-5 30 -7 75q-1 19 -1 45v52q0 133 -7 292l-9 152q-4 72 -10 157q31 34 49 52q25 25 45 41l7 -4q6 -78 9 -171q3 -82 5 -181q1 -44 1 -93q1 -43 1 -93v-243q0 -44 23 -72q18 -23 52 -35q17 -6 37 -9l15 -2h26v-128zM357 -166
q-14 44 -53 44q-26 0 -51 -11t-25 -25q0 -26 34 -45q30 -17 66 -17q32 0 75 11l50 14q0 1 3 1l4 2q3 1 6 1l2 -5q-24 -40 -55 -85q-76 -16 -125 -38q-18 -9 -34 -19q-9 -5 -23 -16l-7 -5q-4 -2 -6 -4q-7 -5 -13 -8q-13 -7 -32 -7q-21 0 -53 20q-32 19 -48 19q-24 0 -49 -30
l-20 23q27 39 51 58q29 25 59 25q19 0 51 -18l22 -13q12 -6 20 -6q21 0 36 13v4q-33 15 -53 35q-23 24 -23 53q0 37 47 84q59 57 118 57q64 0 64 -53q0 -20 -29 -60z" />
    <glyph glyph-name="uni0675.fina" unicode="&#x675;" horiz-adv-x="568" 
d="M561 1166q-19 -39 -39 -68q-146 -23 -260 -75l-2 3l24 42q19 24 46 33v3q-78 23 -78 87q0 41 47 88q64 57 121 57q63 0 63 -49q0 -17 -10 -35q-6 -12 -22 -30h-2q-18 35 -32 39q-10 3 -31 3q-25 0 -48 -12q-22 -11 -22 -23q0 -33 49 -50q40 -14 94 -14q23 0 51 1l51 3v-3
zM568 0h-221q-114 0 -171 57q-42 43 -54 108q-5 30 -7 75q-1 19 -1 45v52q0 133 -7 292l-9 152q-4 72 -10 157q31 34 49 52q25 25 45 41l7 -4q6 -78 9 -171q3 -82 5 -181q1 -44 1 -93q1 -43 1 -93v-243q0 -44 23 -72q18 -23 52 -35q17 -6 37 -9l15 -2h236v-128z" />
    <glyph glyph-name="uni0676.fina" unicode="&#x676;" horiz-adv-x="827" 
d="M827 128v-128h-220q-8 -99 -79 -206q-29 -42 -64 -77q-31 -30 -65 -53q-63 -40 -109 -40q-65 0 -142 29q-69 25 -146 72l17 33q67 -36 147 -36q73 0 145 37q67 35 133 101q78 80 94 140h-51q-306 0 -306 205q0 48 15 91q12 36 36 70q30 44 68 69q41 27 86 27
q71 0 132 -90q63 -94 83 -244h226zM533 128q-17 89 -70 146q-50 56 -106 56q-41 0 -77 -29q-36 -28 -36 -59q0 -36 31 -61q27 -22 78 -37q40 -11 91 -14l45 -2h44zM822 716q-19 -39 -39 -68q-146 -23 -260 -75l-2 3l24 42q19 24 46 33v3q-78 23 -78 87q0 41 47 88
q64 57 121 57q63 0 63 -49q0 -17 -10 -35q-6 -12 -22 -30h-2q-18 35 -32 39q-10 3 -31 3q-25 0 -48 -12q-22 -11 -22 -23q0 -33 49 -50q40 -14 94 -14q23 0 51 1l51 3v-3z" />
    <glyph glyph-name="uni0677.fina" unicode="&#x677;" horiz-adv-x="865" 
d="M865 128v-128h-220q-8 -99 -79 -206q-29 -42 -64 -77q-31 -30 -65 -53q-63 -40 -109 -40q-65 0 -142 29q-69 25 -146 72l17 33q67 -36 147 -36q73 0 145 37q67 35 133 101q78 80 94 140h-51q-306 0 -306 205q0 48 15 91q12 36 36 70q30 44 68 69q41 27 86 27
q71 0 132 -90q63 -94 83 -244h226zM571 128q-17 89 -70 146q-50 56 -106 56q-41 0 -77 -29q-36 -28 -36 -59q0 -36 31 -61q27 -22 78 -37q40 -11 91 -14l45 -2h44zM860 716q-19 -39 -39 -68q-146 -23 -260 -75l-2 3l24 42q19 24 46 33v3q-78 23 -78 87q0 41 47 88
q64 57 121 57q63 0 63 -49q0 -17 -10 -35q-6 -12 -22 -30h-2q-18 35 -32 39q-10 3 -31 3q-25 0 -48 -12q-22 -11 -22 -23q0 -33 49 -50q40 -14 94 -14q23 0 51 1l51 3v-3zM385 668q-8 6 -24 11q-20 -25 -49 -48q-25 -19 -57 -36q-26 -15 -56 -28l-47 -18q-20 0 -53 5
q-18 2 -30 5q-14 4 -16 8l-2 5l68 27q39 16 68 29q74 33 114 63q-121 21 -121 102q0 56 44 97q42 40 92 40q34 0 57 -31q29 -38 29 -111q0 -22 -6 -42q22 -3 36 -13zM352 752q3 9 3 18q-1 35 -21 66q-22 32 -49 32q-58 0 -58 -41q0 -50 125 -75z" />
    <glyph glyph-name="uni0678.init" unicode="&#x678;" horiz-adv-x="632" 
d="M251 551q41 -72 67 -146q33 -91 33 -159q0 -52 -20 -101q-17 -41 -50 -85q-60 -60 -269 -60h-12q-37 0 -55 23q-15 18 -15 44q0 23 15 40q19 21 55 21h17q72 0 114 4q52 4 83 15q57 21 57 44q0 32 -30 103l-32 69l-38 75q37 66 75 113h5zM602 766q-19 -39 -39 -68
q-146 -23 -260 -75l-2 3l24 42q19 24 46 33v3q-78 23 -78 87q0 41 47 88q64 57 121 57q63 0 63 -49q0 -17 -10 -35q-6 -12 -22 -30h-2q-18 35 -32 39q-10 3 -31 3q-25 0 -48 -12q-22 -11 -22 -23q0 -33 49 -50q40 -14 94 -14q23 0 51 1l51 3v-3z" />
    <glyph glyph-name="uni0678.medi" unicode="&#x678;" horiz-adv-x="646" 
d="M22 128q61 0 109 23q52 24 63 65l29 108l69 50l6 -7q-22 -80 -22 -116q0 -57 33 -83q49 -40 124 -40h213v-128h-218q-77 0 -127 23q-55 25 -79 79h-4q-52 -102 -199 -102h-19q-37 0 -55 23q-15 18 -15 44q0 23 15 40q19 21 55 21h22zM632 626q-19 -39 -39 -68
q-146 -23 -260 -75l-2 3l24 42q19 24 46 33v3q-78 23 -78 87q0 41 47 88q64 57 121 57q63 0 63 -49q0 -17 -10 -35q-6 -12 -22 -30h-2q-18 35 -32 39q-10 3 -31 3q-25 0 -48 -12q-22 -11 -22 -23q0 -33 49 -50q40 -14 94 -14q23 0 51 1l51 3v-3z" />
    <glyph glyph-name="uni0678.fina" unicode="&#x678;" horiz-adv-x="1285" 
d="M1285 128v-128h-326q4 -37 4 -72q0 -22 -18 -67q-14 -37 -27 -58q-95 -85 -226 -136q-127 -50 -240 -50q-92 0 -164 30q-65 28 -111 78q-45 51 -67 123q-20 68 -20 156q0 171 94 330l38 -17q-61 -148 -61 -251q0 -134 80 -218q91 -94 242 -94q143 0 319 86q80 45 90 69
q-44 91 -291 91l-6 14l69 114h621zM1275 586q-19 -39 -39 -68q-146 -23 -260 -75l-2 3l24 42q19 24 46 33v3q-78 23 -78 87q0 41 47 88q64 57 121 57q63 0 63 -49q0 -17 -10 -35q-6 -12 -22 -30h-2q-18 35 -32 39q-10 3 -31 3q-25 0 -48 -12q-22 -11 -22 -23q0 -33 49 -50
q40 -14 94 -14q23 0 51 1l51 3v-3z" />
    <glyph glyph-name="uniFB68" unicode="&#x679;" horiz-adv-x="441" arabic-form="initial" 
d="M17 128q72 0 114 4q52 4 83 15q57 21 57 44q0 32 -30 103l-32 69l-38 75q37 66 75 113h5q41 -72 67 -146q33 -91 33 -159q0 -52 -20 -101q-17 -41 -50 -85q-60 -60 -269 -60h-12q-37 0 -55 23q-15 18 -15 44q0 23 15 40q19 21 55 21h17zM-45 711l4 6l105 -4q18 33 18 108
q0 36 -2 70l-9 94q-2 18 -2 27q0 16 14 35q5 7 15 17q3 4 8 9l9 10h6q9 -56 41 -111l-36 -31l2 -75q0 -37 -10 -67l3 -2q76 116 150 116q44 0 72 -31q27 -30 27 -74q0 -30 -17 -73q-22 -50 -67 -73q-65 -31 -162 -31h-39q-21 1 -36 3zM331 772q-18 61 -76 61q-43 0 -83 -33
q-35 -29 -71 -86q194 5 230 58z" />
    <glyph glyph-name="uniFB69" unicode="&#x679;" horiz-adv-x="451" arabic-form="medial" 
d="M22 128q61 0 109 23q52 24 63 65l29 108l69 50l6 -7q-22 -80 -22 -116q0 -57 33 -83q49 -40 124 -40h18v-128h-23q-77 0 -127 23q-55 25 -79 79h-4q-52 -102 -199 -102h-19q-37 0 -55 23q-15 18 -15 44q0 23 15 40q19 21 55 21h22zM-5 581l4 6l105 -4q18 33 18 108
q0 36 -2 70l-9 94q-2 18 -2 27q0 16 14 35q5 7 15 17q3 4 8 9l9 10h6q9 -56 41 -111l-36 -31l2 -75q0 -37 -10 -67l3 -2q76 116 150 116q44 0 72 -31q27 -30 27 -74q0 -30 -17 -73q-22 -50 -67 -73q-65 -31 -162 -31h-39q-21 1 -36 3zM371 642q-18 61 -76 61q-43 0 -83 -33
q-35 -29 -71 -86q194 5 230 58z" />
    <glyph glyph-name="uniFB67" unicode="&#x679;" horiz-adv-x="1361" arabic-form="final" 
d="M1361 0h-23q-78 0 -124 18q-53 20 -80 69q-27 -16 -63 -32q-42 -17 -93 -32q-94 -27 -191 -44q-109 -19 -197 -19q-108 0 -190 18q-89 19 -153 59q-69 44 -107 111q-40 71 -40 160q0 64 13 121q15 62 46 121l40 -17q-29 -87 -29 -152q0 -141 132 -221q58 -35 143 -50
q74 -14 175 -14q82 0 173 13q77 11 168 32q77 18 133 43l44 140l68 49l6 -7q-24 -75 -24 -119q0 -52 35 -81q45 -38 120 -38h18v-128zM454 701l4 6l105 -4q18 33 18 108q0 36 -2 70l-9 94q-2 18 -2 27q0 16 14 35q5 7 15 17q3 4 8 9l9 10h6q9 -56 41 -111l-36 -31l2 -75
q0 -37 -10 -67l3 -2q76 116 150 116q44 0 72 -31q27 -30 27 -74q0 -30 -17 -73q-22 -50 -67 -73q-65 -31 -162 -31h-39q-21 1 -36 3zM830 762q-18 61 -76 61q-43 0 -83 -33q-35 -29 -71 -86q194 5 230 58z" />
    <glyph glyph-name="uniFB60" unicode="&#x67a;" horiz-adv-x="436" arabic-form="initial" 
d="M17 128q72 0 114 4q52 4 83 15q57 21 57 44q0 32 -30 103l-32 69l-38 75q37 66 75 113h5q41 -72 67 -146q33 -91 33 -159q0 -52 -20 -101q-17 -41 -50 -85q-60 -60 -269 -60h-12q-37 0 -55 23q-15 18 -15 44q0 23 15 40q19 21 55 21h17zM205 858q-58 53 -118 102
q38 51 79 92q54 -40 115 -104q-42 -58 -76 -90zM263 697q-19 -23 -38 -40q-63 57 -118 101q35 48 79 93q55 -42 115 -105q-24 -33 -38 -49z" />
    <glyph glyph-name="uniFB61" unicode="&#x67a;" horiz-adv-x="451" arabic-form="medial" 
d="M22 128q61 0 109 23q52 24 63 65l29 108l69 50l6 -7q-22 -80 -22 -116q0 -57 33 -83q49 -40 124 -40h18v-128h-23q-77 0 -127 23q-55 25 -79 79h-4q-52 -102 -199 -102h-19q-37 0 -55 23q-15 18 -15 44q0 23 15 40q19 21 55 21h22zM235 728q-58 53 -118 102q38 51 79 92
q54 -40 115 -104q-42 -58 -76 -90zM293 567q-19 -23 -38 -40q-63 57 -118 101q35 48 79 93q55 -42 115 -105q-24 -33 -38 -49z" />
    <glyph glyph-name="uniFB5F" unicode="&#x67a;" horiz-adv-x="1361" arabic-form="final" 
d="M1361 0h-23q-78 0 -124 18q-53 20 -80 69q-28 -17 -63 -32q-43 -18 -93 -33q-93 -27 -191 -43q-109 -19 -197 -19q-108 0 -190 18q-89 19 -153 59q-69 44 -107 111q-40 71 -40 160q0 64 13 121q15 62 46 121l40 -17q-29 -87 -29 -152q0 -141 132 -221q58 -35 143 -50
q74 -14 175 -14q83 0 173 12q79 11 169 32q70 17 132 44l44 140l64 50l6 -7q-9 -27 -16 -56q-7 -34 -7 -56q0 -63 34 -89q48 -38 124 -38h18v-128zM674 828q-58 53 -118 102q38 51 79 92q54 -40 115 -104q-42 -58 -76 -90zM732 667q-19 -23 -38 -40q-63 57 -118 101
q35 48 79 93q55 -42 115 -105q-24 -33 -38 -49z" />
    <glyph glyph-name="uniFB54" unicode="&#x67b;" horiz-adv-x="433" arabic-form="initial" 
d="M17 128q72 0 114 4q52 4 83 15q57 21 57 44q0 32 -30 103l-32 69l-38 75q37 66 75 113h5q41 -72 67 -146q33 -91 33 -159q0 -52 -20 -101q-17 -41 -50 -85q-60 -60 -269 -60h-12q-37 0 -55 23q-15 18 -15 44q0 23 15 40q19 21 55 21h17zM225 -322q-58 53 -118 102
q38 51 79 92q54 -39 115 -104q-42 -58 -76 -90zM283 -483q-19 -22 -38 -40q-63 57 -118 101q35 48 79 93q55 -41 115 -105q-24 -32 -38 -49z" />
    <glyph glyph-name="uniFB55" unicode="&#x67b;" horiz-adv-x="451" arabic-form="medial" 
d="M22 128q61 0 109 23q52 24 63 65l29 108l69 50l6 -7q-22 -80 -22 -116q0 -57 33 -83q49 -40 124 -40h18v-128h-23q-77 0 -127 23q-55 25 -79 79h-4q-52 -102 -199 -102h-19q-37 0 -55 23q-15 18 -15 44q0 23 15 40q19 21 55 21h22zM235 -322q-58 53 -118 102q38 51 79 92
q54 -39 115 -104q-42 -58 -76 -90zM293 -483q-19 -22 -38 -40q-63 57 -118 101q35 48 79 93q55 -41 115 -105q-24 -32 -38 -49z" />
    <glyph glyph-name="uniFB53" unicode="&#x67b;" horiz-adv-x="1361" arabic-form="final" 
d="M1361 0h-23q-78 0 -124 18q-53 20 -80 69q-28 -17 -63 -32q-43 -18 -93 -33q-93 -27 -191 -43q-109 -19 -197 -19q-108 0 -190 18q-89 19 -153 59q-69 44 -107 111q-40 71 -40 160q0 64 13 121q15 62 46 121l40 -17q-29 -87 -29 -152q0 -141 132 -221q58 -35 143 -50
q74 -14 175 -14q83 0 173 12q79 11 169 32q70 17 132 44l44 140l64 50l6 -7q-9 -27 -16 -56q-7 -34 -7 -56q0 -63 34 -89q48 -38 124 -38h18v-128zM664 -342q-58 53 -118 102q38 51 79 92q54 -39 115 -104q-42 -58 -76 -90zM722 -503q-19 -22 -38 -40q-63 57 -118 101
q35 48 79 93q55 -41 115 -105q-24 -32 -38 -49z" />
    <glyph glyph-name="uni067C.init" unicode="&#x67c;" horiz-adv-x="441" 
d="M339 -58q0 -51 -37 -88q-36 -37 -88 -37t-88 37q-37 37 -37 88q0 34 16 62l-43 -3q-26 -1 -50 -1h-12q-37 0 -55 23q-15 18 -15 44q0 23 15 40q19 21 55 21h17q72 0 114 4q52 4 83 15q57 21 57 44q0 32 -30 103l-32 69l-38 75q37 66 75 113h5q41 -72 67 -146
q33 -91 33 -159q0 -56 -22 -106q-19 -43 -56 -88q66 -36 66 -110zM285 650q-59 56 -117 104q37 52 79 95q53 -42 114 -107q-43 -61 -76 -92zM92 637q-59 56 -117 104q37 52 79 95q53 -42 114 -107q-43 -61 -76 -92zM214 -133q75 0 75 75t-75 75t-75 -75t75 -75z" />
    <glyph glyph-name="uni067C.medi" unicode="&#x67c;" horiz-adv-x="581" 
d="M262 507q-59 56 -117 104q37 52 79 95q53 -42 114 -107q-43 -61 -76 -92zM455 520q-59 56 -117 104q37 52 79 95q53 -42 114 -107q-43 -61 -76 -92zM307 -68q0 -49 -35 -84q-35 -36 -85 -36q-49 0 -85 36q-35 35 -35 84q0 38 21 68h-88q-37 0 -55 23q-15 18 -15 44
q0 23 15 40q19 21 55 21h152q61 0 109 23q52 24 63 65l29 108l69 50l6 -7q-22 -80 -22 -116q0 -57 33 -83q49 -40 124 -40h18v-128h-23q-77 0 -127 23q-55 25 -79 79h-4q-27 -52 -84 -78q43 -36 43 -92zM187 -143q75 0 75 75t-75 75t-75 -75t75 -75z" />
    <glyph glyph-name="uni067C.fina" unicode="&#x67c;" horiz-adv-x="1361" 
d="M784 640q-59 56 -117 104q37 52 79 95q53 -42 114 -107q-43 -61 -76 -92zM591 627q-59 56 -117 104q37 52 79 95q53 -42 114 -107q-43 -61 -76 -92zM781 -129q0 -57 -41 -98q-41 -42 -99 -42t-99 42q-41 41 -41 98q0 53 33 90q-179 8 -287 76q-69 44 -107 111
q-40 71 -40 160q0 64 13 121q15 62 46 121l40 -17q-29 -87 -29 -152q0 -141 132 -221q58 -35 143 -50q74 -14 175 -14q82 0 173 13q77 11 168 32q77 18 133 43l44 140l68 49l6 -7q-24 -75 -24 -119q0 -52 35 -81q45 -38 120 -38h18v-128h-23q-78 0 -124 18q-53 20 -80 69
q-27 -16 -63 -32q-42 -17 -93 -32q-119 -34 -239 -52q42 -40 42 -100zM577 -192q27 -27 64 -27q38 0 64 27q26 26 26 63q0 38 -26 64t-64 26q-37 0 -64 -26q-26 -26 -26 -64q0 -37 26 -63z" />
    <glyph glyph-name="uni067D.init" unicode="&#x67d;" horiz-adv-x="440" 
d="M17 128q72 0 114 4q52 4 83 15q57 21 57 44q0 32 -30 103l-32 69l-38 75q37 66 75 113h5q41 -72 67 -146q33 -91 33 -159q0 -52 -20 -101q-17 -41 -50 -85q-60 -60 -269 -60h-12q-37 0 -55 23q-15 18 -15 44q0 23 15 40q19 21 55 21h17zM279 861q-59 56 -117 104
q37 52 79 95q53 -42 114 -107q-43 -61 -76 -92zM86 848q-59 56 -117 104q37 52 79 95q53 -42 114 -107q-43 -61 -76 -92zM226 649q-59 56 -117 104q37 52 79 95q53 -42 114 -107q-43 -61 -76 -92z" />
    <glyph glyph-name="uni067D.medi" unicode="&#x67d;" horiz-adv-x="451" 
d="M22 128q61 0 109 23q52 24 63 65l29 108l69 50l6 -7q-22 -80 -22 -116q0 -57 33 -83q49 -40 124 -40h18v-128h-23q-77 0 -127 23q-55 25 -79 79h-4q-52 -102 -199 -102h-19q-37 0 -55 23q-15 18 -15 44q0 23 15 40q19 21 55 21h22zM309 721q-59 56 -117 104q37 52 79 95
q53 -42 114 -107q-43 -61 -76 -92zM116 708q-59 56 -117 104q37 52 79 95q53 -42 114 -107q-43 -61 -76 -92zM256 509q-59 56 -117 104q37 52 79 95q53 -42 114 -107q-43 -61 -76 -92z" />
    <glyph glyph-name="uni067D.fina" unicode="&#x67d;" horiz-adv-x="1361" 
d="M1361 0h-23q-78 0 -124 18q-53 20 -80 69q-28 -17 -63 -32q-43 -18 -93 -33q-93 -27 -191 -43q-109 -19 -197 -19q-108 0 -190 18q-89 19 -153 59q-69 44 -107 111q-40 71 -40 160q0 64 13 121q15 62 46 121l40 -17q-29 -87 -29 -152q0 -141 132 -221q58 -35 143 -50
q74 -14 175 -14q83 0 173 12q79 11 169 32q70 17 132 44l44 140l64 50l6 -7q-9 -27 -16 -56q-7 -34 -7 -56q0 -63 34 -89q48 -38 124 -38h18v-128zM771 801q-59 56 -117 104q37 52 79 95q53 -42 114 -107q-43 -61 -76 -92zM578 788q-59 56 -117 104q37 52 79 95
q53 -42 114 -107q-43 -61 -76 -92zM718 589q-59 56 -117 104q37 52 79 95q53 -42 114 -107q-43 -61 -76 -92z" />
    <glyph glyph-name="uniFB58" unicode="&#x67e;" horiz-adv-x="441" arabic-form="initial" 
d="M17 128q72 0 114 4q52 4 83 15q57 21 57 44q0 32 -30 103l-32 69l-38 75q37 66 75 113h5q41 -72 67 -146q33 -91 33 -159q0 -52 -20 -101q-17 -41 -50 -85q-60 -60 -269 -60h-12q-37 0 -55 23q-15 18 -15 44q0 23 15 40q19 21 55 21h17zM312 -339q-59 57 -117 104
q37 52 79 95q53 -41 114 -107q-43 -61 -76 -92zM119 -352q-59 57 -117 104q37 52 79 95q53 -41 114 -107q-43 -61 -76 -92zM259 -551q-59 57 -117 104q37 52 79 95q53 -41 114 -107q-43 -61 -76 -92z" />
    <glyph glyph-name="uniFB59" unicode="&#x67e;" horiz-adv-x="451" arabic-form="medial" 
d="M22 128q61 0 109 23q52 24 63 65l29 108l69 50l6 -7q-22 -80 -22 -116q0 -57 33 -83q49 -40 124 -40h18v-128h-23q-77 0 -127 23q-55 25 -79 79h-4q-52 -102 -199 -102h-19q-37 0 -55 23q-15 18 -15 44q0 23 15 40q19 21 55 21h22zM312 -339q-59 57 -117 104q37 52 79 95
q53 -41 114 -107q-43 -61 -76 -92zM119 -352q-59 57 -117 104q37 52 79 95q53 -41 114 -107q-43 -61 -76 -92zM259 -551q-59 57 -117 104q37 52 79 95q53 -41 114 -107q-43 -61 -76 -92z" />
    <glyph glyph-name="uniFB57" unicode="&#x67e;" horiz-adv-x="1361" arabic-form="final" 
d="M1361 0h-23q-78 0 -124 18q-53 20 -80 69q-28 -17 -63 -32q-43 -18 -93 -33q-93 -27 -191 -43q-109 -19 -197 -19q-108 0 -190 18q-89 19 -153 59q-69 44 -107 111q-40 71 -40 160q0 64 13 121q15 62 46 121l40 -17q-29 -87 -29 -152q0 -141 132 -221q58 -35 143 -50
q74 -14 175 -14q83 0 173 12q79 11 169 32q70 17 132 44l44 140l64 50l6 -7q-9 -27 -16 -56q-7 -34 -7 -56q0 -63 34 -89q48 -38 124 -38h18v-128zM781 -339q-59 57 -117 104q37 52 79 95q53 -41 114 -107q-43 -61 -76 -92zM588 -352q-59 57 -117 104q37 52 79 95
q53 -41 114 -107q-43 -61 -76 -92zM728 -551q-59 57 -117 104q37 52 79 95q53 -41 114 -107q-43 -61 -76 -92z" />
    <glyph glyph-name="uniFB64" unicode="&#x67f;" horiz-adv-x="441" arabic-form="initial" 
d="M17 128q72 0 114 4q52 4 83 15q57 21 57 44q0 32 -30 103l-32 69l-38 75q37 66 75 113h5q41 -72 67 -146q33 -91 33 -159q0 -52 -20 -101q-17 -41 -50 -85q-60 -60 -269 -60h-12q-37 0 -55 23q-15 18 -15 44q0 23 15 40q19 21 55 21h17zM134 678q-18 -22 -36 -38
q-52 51 -110 98q37 51 74 89q51 -39 108 -101q-25 -35 -36 -48zM280 652q-53 50 -110 98q36 51 74 89q48 -38 107 -100q-37 -55 -71 -87zM87 830l-55 51l-55 47l37 48l37 41q52 -40 107 -101q-41 -58 -71 -86zM304 880q-18 -22 -36 -38q-52 51 -110 98q39 53 75 89
q50 -40 107 -101q-25 -35 -36 -48z" />
    <glyph glyph-name="uniFB65" unicode="&#x67f;" horiz-adv-x="451" arabic-form="medial" 
d="M22 128q61 0 109 23q52 24 63 65l29 108l69 50l6 -7q-22 -80 -22 -116q0 -57 33 -83q49 -40 124 -40h18v-128h-23q-77 0 -127 23q-55 25 -79 79h-4q-52 -102 -199 -102h-19q-37 0 -55 23q-15 18 -15 44q0 23 15 40q19 21 55 21h22zM174 548q-18 -22 -36 -38
q-52 51 -110 98q37 51 74 89q51 -39 108 -101q-25 -35 -36 -48zM320 522q-53 50 -110 98q36 51 74 89q48 -38 107 -100q-37 -55 -71 -87zM127 700l-55 51l-55 47l37 48l37 41q52 -40 107 -101q-41 -58 -71 -86zM344 750q-18 -22 -36 -38q-52 51 -110 98q39 53 75 89
q50 -40 107 -101q-25 -35 -36 -48z" />
    <glyph glyph-name="uniFB63" unicode="&#x67f;" horiz-adv-x="1361" arabic-form="final" 
d="M1361 0h-23q-78 0 -124 18q-53 20 -80 69q-28 -17 -63 -32q-43 -18 -93 -33q-93 -27 -191 -43q-109 -19 -197 -19q-108 0 -190 18q-89 19 -153 59q-69 44 -107 111q-40 71 -40 160q0 64 13 121q15 62 46 121l40 -17q-29 -87 -29 -152q0 -141 132 -221q58 -35 143 -50
q74 -14 175 -14q83 0 173 12q79 11 169 32q70 17 132 44l44 140l64 50l6 -7q-9 -27 -16 -56q-7 -34 -7 -56q0 -63 34 -89q48 -38 124 -38h18v-128zM634 668q-18 -22 -36 -38q-52 51 -110 98q37 51 74 89q51 -39 108 -101q-25 -35 -36 -48zM780 642q-53 50 -110 98
q36 51 74 89q48 -38 107 -100q-37 -55 -71 -87zM587 820l-55 51l-55 47l37 48l37 41q52 -40 107 -101q-41 -58 -71 -86zM804 870q-18 -22 -36 -38q-52 51 -110 98q39 53 75 89q50 -40 107 -101q-25 -35 -36 -48z" />
    <glyph glyph-name="uniFB5C" unicode="&#x680;" horiz-adv-x="451" arabic-form="initial" 
d="M17 128q72 0 114 4q52 4 83 15q57 21 57 44q0 32 -30 103l-32 69l-38 75q37 66 75 113h5q41 -72 67 -146q33 -91 33 -159q0 -52 -20 -101q-17 -41 -50 -85q-60 -60 -269 -60h-12q-37 0 -55 23q-15 18 -15 44q0 23 15 40q19 21 55 21h17zM169 -491q-18 -22 -36 -39
q-52 51 -110 98q37 51 74 89q51 -38 108 -101q-25 -34 -36 -47zM318 -518q-53 50 -110 98q36 51 74 89q48 -38 107 -100q-37 -54 -71 -87zM122 -340l-55 51l-55 47l37 48q17 20 37 41q52 -40 107 -101q-41 -58 -71 -86zM342 -289q-18 -22 -36 -39q-52 51 -110 98
q39 53 75 89q50 -39 107 -101q-25 -34 -36 -47z" />
    <glyph glyph-name="uniFB5D" unicode="&#x680;" horiz-adv-x="451" arabic-form="medial" 
d="M22 128q61 0 109 23q52 24 63 65l29 108l69 50l6 -7q-22 -80 -22 -116q0 -57 33 -83q49 -40 124 -40h18v-128h-23q-77 0 -127 23q-55 25 -79 79h-4q-52 -102 -199 -102h-19q-37 0 -55 23q-15 18 -15 44q0 23 15 40q19 21 55 21h22zM169 -491q-18 -22 -36 -39
q-52 51 -110 98q37 51 74 89q51 -38 108 -101q-25 -34 -36 -47zM318 -518q-53 50 -110 98q36 51 74 89q48 -38 107 -100q-37 -54 -71 -87zM122 -340l-55 51l-55 47l37 48q17 20 37 41q52 -40 107 -101q-41 -58 -71 -86zM342 -289q-18 -22 -36 -39q-52 51 -110 98
q39 53 75 89q50 -39 107 -101q-25 -34 -36 -47z" />
    <glyph glyph-name="uniFB5B" unicode="&#x680;" horiz-adv-x="1361" arabic-form="final" 
d="M1361 0h-23q-78 0 -124 18q-53 20 -80 69q-28 -17 -63 -32q-43 -18 -93 -33q-93 -27 -191 -43q-109 -19 -197 -19q-108 0 -190 18q-89 19 -153 59q-69 44 -107 111q-40 71 -40 160q0 64 13 121q15 62 46 121l40 -17q-29 -87 -29 -152q0 -141 132 -221q58 -35 143 -50
q74 -14 175 -14q83 0 173 12q79 11 169 32q70 17 132 44l44 140l64 50l6 -7q-9 -27 -16 -56q-7 -34 -7 -56q0 -63 34 -89q48 -38 124 -38h18v-128zM639 -491q-18 -22 -36 -39q-52 51 -110 98q37 51 74 89q51 -38 108 -101q-25 -34 -36 -47zM788 -518q-53 50 -110 98
q36 51 74 89q48 -38 107 -100q-37 -54 -71 -87zM592 -340l-55 51l-55 47l37 48q17 20 37 41q52 -40 107 -101q-41 -58 -71 -86zM812 -289q-18 -22 -36 -39q-52 51 -110 98q39 53 75 89q50 -39 107 -101q-25 -34 -36 -47z" />
    <glyph glyph-name="uni0681.init" unicode="&#x681;" horiz-adv-x="935" 
d="M61 128q233 0 534 181l1 4q-92 34 -166 51q-82 19 -148 19q-83 0 -127 -50l12 -50l-30 -90h-10l-49 132q6 82 67 132q59 48 150 48q53 0 131 -20q85 -22 197 -67q77 -31 171 -32l81 1l3 -2l-53 -105q-59 1 -106 -10q-39 -9 -67 -27l-167 -109q-206 -134 -433 -134h-52
q-37 0 -55 23q-15 18 -15 44q0 23 15 40q19 21 55 21h61zM552 826q-19 -39 -39 -68q-146 -23 -260 -75l-2 3l24 42q19 24 46 33v3q-78 23 -78 87q0 41 47 88q64 57 121 57q63 0 63 -49q0 -17 -10 -35q-6 -12 -22 -30h-2q-18 35 -32 39q-10 3 -31 3q-25 0 -48 -12
q-22 -11 -22 -23q0 -33 49 -50q40 -14 94 -14q23 0 51 1l51 3v-3z" />
    <glyph glyph-name="uni0681.medi" unicode="&#x681;" horiz-adv-x="915" 
d="M596 313q-92 34 -166 51q-82 19 -148 19q-83 0 -127 -50l12 -50l-30 -90h-10l-49 132q6 82 67 132q59 48 150 48q53 0 130 -19q85 -22 198 -67q83 -33 171 -33h87l2 -2l-62 -103q-57 0 -102 -11q-40 -10 -67 -27l-167 -109q-209 -134 -439 -134h-46q-37 0 -55 23
q-15 18 -15 44q0 23 15 40q19 21 55 21h61q233 0 534 181zM708 245l3 -1q3 -61 51 -90q44 -26 126 -26h27v-128h-31q-102 0 -156 38q-59 41 -59 127q0 28 3 56zM552 826q-19 -39 -39 -68q-146 -23 -260 -75l-2 3l24 42q19 24 46 33v3q-78 23 -78 87q0 41 47 88q64 57 121 57
q63 0 63 -49q0 -17 -10 -35q-6 -12 -22 -30h-2q-18 35 -32 39q-10 3 -31 3q-25 0 -48 -12q-22 -11 -22 -23q0 -33 49 -50q40 -14 94 -14q23 0 51 1l51 3v-3z" />
    <glyph glyph-name="uni0681.fina" unicode="&#x681;" horiz-adv-x="939" 
d="M560 327q-151 56 -278 56q-83 0 -127 -50l20 -84l-28 -79l-11 -3l-58 158q6 82 67 132q59 48 150 48q53 0 130 -19q85 -22 198 -68q40 -15 76 -22q43 -9 95 -10l88 1l1 -2l-60 -101q-24 -2 -64 -11q-35 -7 -78 -19q-81 -21 -125 -36q-172 -66 -268 -148
q-102 -88 -102 -185q0 -151 145 -242q138 -86 354 -86q64 0 132 7q59 5 125 15l3 -10q-23 -19 -39 -31q-22 -18 -41 -32q-46 -35 -83 -56q-43 -8 -87 -12q-52 -6 -102 -6q-210 0 -340 99q-68 52 -104 127q-38 79 -38 180q0 174 132 310q125 130 318 176zM708 245l3 -1
q3 -61 51 -90q44 -26 126 -26h51v-128h-55q-102 0 -156 38q-59 41 -59 127q0 28 3 56zM622 826q-19 -39 -39 -68q-146 -23 -260 -75l-2 3l24 42q19 24 46 33v3q-78 23 -78 87q0 41 47 88q64 57 121 57q63 0 63 -49q0 -17 -10 -35q-6 -12 -22 -30h-2q-18 35 -32 39
q-10 3 -31 3q-25 0 -48 -12q-22 -11 -22 -23q0 -33 49 -50q40 -14 94 -14q23 0 51 1l51 3v-3z" />
    <glyph glyph-name="uni0682.init" unicode="&#x682;" horiz-adv-x="935" 
d="M61 128q233 0 534 181l1 4q-92 34 -166 51q-82 19 -148 19q-83 0 -127 -50l12 -50l-30 -90h-10l-49 132q6 82 67 132q59 48 150 48q53 0 131 -20q85 -22 197 -67q77 -31 171 -32l81 1l3 -2l-53 -105q-59 1 -106 -10q-39 -9 -67 -27l-167 -109q-206 -134 -433 -134h-52
q-37 0 -55 23q-15 18 -15 44q0 23 15 40q19 21 55 21h61zM365 846q-58 53 -118 102q38 51 79 92q54 -40 115 -104q-42 -58 -76 -90zM423 685q-19 -23 -38 -40q-63 57 -118 101q35 48 79 93q55 -42 115 -105q-24 -33 -38 -49z" />
    <glyph glyph-name="uni0682.medi" unicode="&#x682;" horiz-adv-x="915" 
d="M596 313q-92 34 -166 51q-82 19 -148 19q-83 0 -127 -50l12 -50l-30 -90h-10l-49 132q6 82 67 132q59 48 150 48q53 0 130 -19q85 -22 198 -67q83 -33 171 -33h87l2 -2l-62 -103q-57 0 -102 -11q-40 -10 -67 -27l-167 -109q-209 -134 -439 -134h-46q-37 0 -55 23
q-15 18 -15 44q0 23 15 40q19 21 55 21h61q233 0 534 181zM708 245l3 -1q3 -61 51 -90q44 -26 126 -26h27v-128h-31q-102 0 -156 38q-59 41 -59 127q0 28 3 56zM365 846q-58 53 -118 102q38 51 79 92q54 -40 115 -104q-42 -58 -76 -90zM423 685q-19 -23 -38 -40
q-63 57 -118 101q35 48 79 93q55 -42 115 -105q-24 -33 -38 -49z" />
    <glyph glyph-name="uni0682.fina" unicode="&#x682;" horiz-adv-x="939" 
d="M560 327q-151 56 -278 56q-83 0 -127 -50l20 -84l-28 -79l-11 -3l-58 158q6 82 67 132q59 48 150 48q53 0 130 -19q85 -22 198 -68q40 -15 76 -22q43 -9 95 -10l88 1l1 -2l-60 -101q-24 -2 -64 -11q-35 -7 -78 -19q-81 -21 -125 -36q-172 -66 -268 -148
q-102 -88 -102 -185q0 -151 145 -242q138 -86 354 -86q64 0 132 7q59 5 125 15l3 -10q-23 -19 -39 -31q-22 -18 -41 -32q-46 -35 -83 -56q-43 -8 -87 -12q-52 -6 -102 -6q-210 0 -340 99q-68 52 -104 127q-38 79 -38 180q0 174 132 310q125 130 318 176zM708 245l3 -1
q3 -61 51 -90q44 -26 126 -26h51v-128h-55q-102 0 -156 38q-59 41 -59 127q0 28 3 56zM445 846q-58 53 -118 102q38 51 79 92q54 -40 115 -104q-42 -58 -76 -90zM503 685q-19 -23 -38 -40q-63 57 -118 101q35 48 79 93q55 -42 115 -105q-24 -33 -38 -49z" />
    <glyph glyph-name="uniFB78" unicode="&#x683;" horiz-adv-x="935" arabic-form="initial" 
d="M61 128q233 0 534 181l1 4q-92 34 -166 51q-82 19 -148 19q-83 0 -127 -50l12 -50l-30 -90h-10l-49 132q6 82 67 132q59 48 150 48q53 0 131 -20q85 -22 197 -67q77 -31 171 -32l81 1l3 -2l-53 -105q-59 1 -106 -10q-39 -9 -67 -27l-167 -109q-206 -134 -433 -134h-52
q-37 0 -55 23q-15 18 -15 44q0 23 15 40q19 21 55 21h61zM325 -349q-59 57 -117 104q37 52 79 95q53 -41 114 -107q-43 -61 -76 -92zM518 -336q-59 57 -117 104q37 52 79 95q53 -41 114 -107q-43 -61 -76 -92z" />
    <glyph glyph-name="uniFB79" unicode="&#x683;" horiz-adv-x="915" arabic-form="medial" 
d="M596 313q-92 34 -166 51q-82 19 -148 19q-83 0 -127 -50l12 -50l-30 -90h-10l-49 132q6 82 67 132q59 48 150 48q53 0 130 -19q85 -22 198 -67q83 -33 171 -33h87l2 -2l-62 -103q-57 0 -102 -11q-40 -10 -67 -27l-167 -109q-209 -134 -439 -134h-46q-37 0 -55 23
q-15 18 -15 44q0 23 15 40q19 21 55 21h61q233 0 534 181zM708 245l3 -1q3 -61 51 -90q44 -26 126 -26h27v-128h-31q-102 0 -156 38q-59 41 -59 127q0 28 3 56zM325 -349q-59 57 -117 104q37 52 79 95q53 -41 114 -107q-43 -61 -76 -92zM518 -336q-59 57 -117 104
q37 52 79 95q53 -41 114 -107q-43 -61 -76 -92z" />
    <glyph glyph-name="uniFB77" unicode="&#x683;" horiz-adv-x="939" arabic-form="final" 
d="M560 327q-151 56 -278 56q-83 0 -127 -50l20 -84l-28 -79l-11 -3l-58 158q6 82 67 132q59 48 150 48q53 0 130 -19q85 -22 198 -68q40 -15 76 -22q43 -9 95 -10l88 1l1 -2l-60 -101q-24 -2 -64 -11q-35 -7 -78 -19q-81 -21 -125 -36q-172 -66 -268 -148
q-102 -88 -102 -185q0 -151 145 -242q138 -86 354 -86q64 0 132 7q59 5 125 15l3 -10q-23 -19 -39 -31q-22 -18 -41 -32q-46 -35 -83 -56q-43 -8 -87 -12q-52 -6 -102 -6q-210 0 -340 99q-68 52 -104 127q-38 79 -38 180q0 174 132 310q125 130 318 176zM708 245l3 -1
q3 -61 51 -90q44 -26 126 -26h51v-128h-55q-102 0 -156 38q-59 41 -59 127q0 28 3 56zM445 -229q-59 57 -117 104q37 52 79 95q53 -41 114 -107q-43 -61 -76 -92zM638 -216q-59 57 -117 104q37 52 79 95q53 -41 114 -107q-43 -61 -76 -92z" />
    <glyph glyph-name="uniFB74" unicode="&#x684;" horiz-adv-x="935" arabic-form="initial" 
d="M61 128q233 0 534 181l1 4q-92 34 -166 51q-82 19 -148 19q-83 0 -127 -50l12 -50l-30 -90h-10l-49 132q6 82 67 132q59 48 150 48q53 0 131 -20q85 -22 197 -67q77 -31 171 -32l81 1l3 -2l-53 -105q-59 1 -106 -10q-39 -9 -67 -27l-167 -109q-206 -134 -433 -134h-52
q-37 0 -55 23q-15 18 -15 44q0 23 15 40q19 21 55 21h61zM395 -282q-58 53 -118 102q38 51 79 92q54 -39 115 -104q-42 -58 -76 -90zM453 -443q-19 -22 -38 -40q-63 57 -118 101q35 48 79 93q55 -41 115 -105q-24 -32 -38 -49z" />
    <glyph glyph-name="uniFB75" unicode="&#x684;" horiz-adv-x="915" arabic-form="medial" 
d="M596 313q-92 34 -166 51q-82 19 -148 19q-83 0 -127 -50l12 -50l-30 -90h-10l-49 132q6 82 67 132q59 48 150 48q53 0 130 -19q85 -22 198 -67q83 -33 171 -33h87l2 -2l-62 -103q-57 0 -102 -11q-40 -10 -67 -27l-167 -109q-209 -134 -439 -134h-46q-37 0 -55 23
q-15 18 -15 44q0 23 15 40q19 21 55 21h61q233 0 534 181zM708 245l3 -1q3 -61 51 -90q44 -26 126 -26h27v-128h-31q-102 0 -156 38q-59 41 -59 127q0 28 3 56zM395 -282q-58 53 -118 102q38 51 79 92q54 -39 115 -104q-42 -58 -76 -90zM453 -443q-19 -22 -38 -40
q-63 57 -118 101q35 48 79 93q55 -41 115 -105q-24 -32 -38 -49z" />
    <glyph glyph-name="uniFB73" unicode="&#x684;" horiz-adv-x="939" arabic-form="final" 
d="M560 327q-151 56 -278 56q-83 0 -127 -50l20 -84l-28 -79l-11 -3l-58 158q6 82 67 132q59 48 150 48q53 0 130 -19q85 -22 198 -68q40 -15 76 -22q43 -9 95 -10l88 1l1 -2l-60 -101q-24 -2 -64 -11q-35 -7 -78 -19q-81 -21 -125 -36q-172 -66 -268 -148
q-102 -88 -102 -185q0 -151 145 -242q138 -86 354 -86q64 0 132 7q59 5 125 15l3 -10q-23 -19 -39 -31q-22 -18 -41 -32q-46 -35 -83 -56q-43 -8 -87 -12q-52 -6 -102 -6q-210 0 -340 99q-68 52 -104 127q-38 79 -38 180q0 174 132 310q125 130 318 176zM708 245l3 -1
q3 -61 51 -90q44 -26 126 -26h51v-128h-55q-102 0 -156 38q-59 41 -59 127q0 28 3 56zM535 -132q-58 53 -118 102q38 51 79 92q54 -40 115 -104q-42 -58 -76 -90zM593 -293q-19 -22 -38 -40q-63 57 -118 101q35 48 79 93q55 -41 115 -105q-24 -32 -38 -49z" />
    <glyph glyph-name="uni0685.init" unicode="&#x685;" horiz-adv-x="935" 
d="M61 128q233 0 534 181l1 4q-92 34 -166 51q-82 19 -148 19q-83 0 -127 -50l12 -50l-30 -90h-10l-49 132q6 82 67 132q59 48 150 48q53 0 131 -20q85 -22 197 -67q77 -31 171 -32l81 1l3 -2l-53 -105q-59 1 -106 -10q-39 -9 -67 -27l-167 -109q-206 -134 -433 -134h-52
q-37 0 -55 23q-15 18 -15 44q0 23 15 40q19 21 55 21h61zM312 647q-59 56 -117 104q37 52 79 95q53 -42 114 -107q-43 -61 -76 -92zM366 860q-59 56 -117 104q37 52 79 95q53 -42 114 -107q-43 -61 -76 -92zM505 660q-59 56 -117 104q37 52 79 95q53 -42 114 -107
q-43 -61 -76 -92z" />
    <glyph glyph-name="uni0685.medi" unicode="&#x685;" horiz-adv-x="915" 
d="M596 313q-92 34 -166 51q-82 19 -148 19q-83 0 -127 -50l12 -50l-30 -90h-10l-49 132q6 82 67 132q59 48 150 48q53 0 130 -19q85 -22 198 -67q83 -33 171 -33h87l2 -2l-62 -103q-57 0 -102 -11q-40 -10 -67 -27l-167 -109q-209 -134 -439 -134h-46q-37 0 -55 23
q-15 18 -15 44q0 23 15 40q19 21 55 21h61q233 0 534 181zM708 245l3 -1q3 -61 51 -90q44 -26 126 -26h27v-128h-31q-102 0 -156 38q-59 41 -59 127q0 28 3 56zM312 647q-59 56 -117 104q37 52 79 95q53 -42 114 -107q-43 -61 -76 -92zM366 860q-59 56 -117 104q37 52 79 95
q53 -42 114 -107q-43 -61 -76 -92zM505 660q-59 56 -117 104q37 52 79 95q53 -42 114 -107q-43 -61 -76 -92z" />
    <glyph glyph-name="uni0685.fina" unicode="&#x685;" horiz-adv-x="939" 
d="M560 327q-151 56 -278 56q-83 0 -127 -50l20 -84l-28 -79l-11 -3l-58 158q6 82 67 132q59 48 150 48q53 0 130 -19q85 -22 198 -68q40 -15 76 -22q43 -9 95 -10l88 1l1 -2l-60 -101q-24 -2 -64 -11q-35 -7 -78 -19q-81 -21 -125 -36q-172 -66 -268 -148
q-102 -88 -102 -185q0 -151 145 -242q138 -86 354 -86q64 0 132 7q59 5 125 15l3 -10q-23 -19 -39 -31q-22 -18 -41 -32q-46 -35 -83 -56q-43 -8 -87 -12q-52 -6 -102 -6q-210 0 -340 99q-68 52 -104 127q-38 79 -38 180q0 174 132 310q125 130 318 176zM708 245l3 -1
q3 -61 51 -90q44 -26 126 -26h51v-128h-55q-102 0 -156 38q-59 41 -59 127q0 28 3 56zM392 637q-59 56 -117 104q37 52 79 95q53 -42 114 -107q-43 -61 -76 -92zM446 850q-59 56 -117 104q37 52 79 95q53 -42 114 -107q-43 -61 -76 -92zM585 650q-59 56 -117 104
q37 52 79 95q53 -42 114 -107q-43 -61 -76 -92z" />
    <glyph glyph-name="uniFB7C" unicode="&#x686;" horiz-adv-x="935" arabic-form="initial" 
d="M61 128q233 0 534 181l1 4q-92 34 -166 51q-82 19 -148 19q-83 0 -127 -50l12 -50l-30 -90h-10l-49 132q6 82 67 132q59 48 150 48q53 0 131 -20q85 -22 197 -67q77 -31 171 -32l81 1l3 -2l-53 -105q-59 1 -106 -10q-39 -9 -67 -27l-167 -109q-206 -134 -433 -134h-52
q-37 0 -55 23q-15 18 -15 44q0 23 15 40q19 21 55 21h61zM518 -291q-59 57 -117 104q37 52 79 95q53 -41 114 -107q-43 -61 -76 -92zM325 -304q-59 57 -117 104q37 52 79 95q53 -41 114 -107q-43 -61 -76 -92zM465 -503q-59 57 -117 104q37 52 79 95q53 -41 114 -107
q-43 -61 -76 -92z" />
    <glyph glyph-name="uniFB7D" unicode="&#x686;" horiz-adv-x="915" arabic-form="medial" 
d="M596 313q-92 34 -166 51q-82 19 -148 19q-83 0 -127 -50l12 -50l-30 -90h-10l-49 132q6 82 67 132q59 48 150 48q53 0 130 -19q85 -22 198 -67q83 -33 171 -33h87l2 -2l-62 -103q-57 0 -102 -11q-40 -10 -67 -27l-167 -109q-209 -134 -439 -134h-46q-37 0 -55 23
q-15 18 -15 44q0 23 15 40q19 21 55 21h61q233 0 534 181zM708 245l3 -1q3 -61 51 -90q44 -26 126 -26h27v-128h-31q-102 0 -156 38q-59 41 -59 127q0 28 3 56zM518 -291q-59 57 -117 104q37 52 79 95q53 -41 114 -107q-43 -61 -76 -92zM325 -304q-59 57 -117 104
q37 52 79 95q53 -41 114 -107q-43 -61 -76 -92zM465 -503q-59 57 -117 104q37 52 79 95q53 -41 114 -107q-43 -61 -76 -92z" />
    <glyph glyph-name="uniFB7B" unicode="&#x686;" horiz-adv-x="939" arabic-form="final" 
d="M560 327q-151 56 -278 56q-83 0 -127 -50l20 -84l-28 -79l-11 -3l-58 158q6 82 67 132q59 48 150 48q53 0 130 -19q85 -22 198 -68q40 -15 76 -22q43 -9 95 -10l88 1l1 -2l-60 -101q-24 -2 -64 -11q-35 -7 -78 -19q-81 -21 -125 -36q-172 -66 -268 -148
q-102 -88 -102 -185q0 -151 145 -242q138 -86 354 -86q64 0 132 7q59 5 125 15l3 -10q-23 -19 -39 -31q-22 -18 -41 -32q-46 -35 -83 -56q-43 -8 -87 -12q-52 -6 -102 -6q-210 0 -340 99q-68 52 -104 127q-38 79 -38 180q0 174 132 310q125 130 318 176zM708 245l3 -1
q3 -61 51 -90q44 -26 126 -26h51v-128h-55q-102 0 -156 38q-59 41 -59 127q0 28 3 56zM604 -309q-18 -22 -36 -39q-52 51 -110 98q37 51 74 89q51 -38 108 -101q-25 -34 -36 -47zM429 -160l-55 51l-55 47l37 48l37 41q52 -40 107 -101q-41 -58 -71 -86zM654 -109
q-18 -22 -36 -39q-52 51 -110 98q39 53 75 89q50 -39 107 -101q-25 -34 -36 -47z" />
    <glyph glyph-name="uni06BF.init" unicode="&#x6bf;" horiz-adv-x="935" 
d="M61 128q233 0 534 181l1 4q-92 34 -166 51q-82 19 -148 19q-83 0 -127 -50l12 -50l-30 -90h-10l-49 132q6 82 67 132q59 48 150 48q53 0 131 -20q85 -22 197 -67q77 -31 171 -32l81 1l3 -2l-53 -105q-59 1 -106 -10q-39 -9 -67 -27l-167 -109q-206 -134 -433 -134h-52
q-37 0 -55 23q-15 18 -15 44q0 23 15 40q19 21 55 21h61zM518 -291q-59 57 -117 104q37 52 79 95q53 -41 114 -107q-43 -61 -76 -92zM325 -304q-59 57 -117 104q37 52 79 95q53 -41 114 -107q-43 -61 -76 -92zM465 -503q-59 57 -117 104q37 52 79 95q53 -41 114 -107
q-43 -61 -76 -92zM265 749q23 31 41 53q21 28 40 49q60 -44 120 -107q-35 -57 -83 -98q-25 24 -59 53z" />
    <glyph glyph-name="uni06BF.medi" unicode="&#x6bf;" horiz-adv-x="915" 
d="M596 313q-92 34 -166 51q-82 19 -148 19q-83 0 -127 -50l12 -50l-30 -90h-10l-49 132q6 82 67 132q59 48 150 48q53 0 130 -19q85 -22 198 -67q83 -33 171 -33h87l2 -2l-62 -103q-57 0 -102 -11q-40 -10 -67 -27l-167 -109q-209 -134 -439 -134h-46q-37 0 -55 23
q-15 18 -15 44q0 23 15 40q19 21 55 21h61q233 0 534 181zM708 245l3 -1q3 -61 51 -90q44 -26 126 -26h27v-128h-31q-102 0 -156 38q-59 41 -59 127q0 28 3 56zM518 -291q-59 57 -117 104q37 52 79 95q53 -41 114 -107q-43 -61 -76 -92zM325 -304q-59 57 -117 104
q37 52 79 95q53 -41 114 -107q-43 -61 -76 -92zM465 -503q-59 57 -117 104q37 52 79 95q53 -41 114 -107q-43 -61 -76 -92zM265 749q23 31 41 53q21 28 40 49q60 -44 120 -107q-35 -57 -83 -98q-25 24 -59 53z" />
    <glyph glyph-name="uni06BF.fina" unicode="&#x6bf;" horiz-adv-x="939" 
d="M560 327q-151 56 -278 56q-83 0 -127 -50l20 -84l-28 -79l-11 -3l-58 158q6 82 67 132q59 48 150 48q53 0 130 -19q85 -22 198 -68q40 -15 76 -22q43 -9 95 -10l88 1l1 -2l-60 -101q-24 -2 -64 -11q-35 -7 -78 -19q-81 -21 -125 -36q-172 -66 -268 -148
q-102 -88 -102 -185q0 -151 145 -242q138 -86 354 -86q64 0 132 7q59 5 125 15l3 -10q-23 -19 -39 -31q-22 -18 -41 -32q-46 -35 -83 -56q-43 -8 -87 -12q-52 -6 -102 -6q-210 0 -340 99q-68 52 -104 127q-38 79 -38 180q0 174 132 310q125 130 318 176zM708 245l3 -1
q3 -61 51 -90q44 -26 126 -26h51v-128h-55q-102 0 -156 38q-59 41 -59 127q0 28 3 56zM604 -309q-18 -22 -36 -39q-52 51 -110 98q37 51 74 89q51 -38 108 -101q-25 -34 -36 -47zM429 -160l-55 51l-55 47l37 48l37 41q52 -40 107 -101q-41 -58 -71 -86zM654 -109
q-18 -22 -36 -39q-52 51 -110 98q39 53 75 89q50 -39 107 -101q-25 -34 -36 -47zM345 749q23 31 41 53q21 28 40 49q60 -44 120 -107q-35 -57 -83 -98q-25 24 -59 53z" />
    <glyph glyph-name="uniFB80" unicode="&#x687;" horiz-adv-x="935" arabic-form="initial" 
d="M61 128q233 0 534 181l1 4q-92 34 -166 51q-82 19 -148 19q-83 0 -127 -50l12 -50l-30 -90h-10l-49 132q6 82 67 132q59 48 150 48q53 0 131 -20q85 -22 197 -67q77 -31 171 -32l81 1l3 -2l-53 -105q-59 1 -106 -10q-39 -9 -67 -27l-167 -109q-206 -134 -433 -134h-52
q-37 0 -55 23q-15 18 -15 44q0 23 15 40q19 21 55 21h61zM374 -442q-18 -22 -36 -39q-52 51 -110 98q37 51 74 89q51 -38 108 -101q-25 -34 -36 -47zM523 -469q-53 50 -110 98q36 51 74 89q48 -38 107 -100q-37 -54 -71 -87zM327 -291l-55 51l-55 47l37 48q17 20 37 41
q52 -40 107 -101q-41 -58 -71 -86zM547 -240q-18 -22 -36 -39q-52 51 -110 98q39 53 75 89q50 -39 107 -101q-25 -34 -36 -47z" />
    <glyph glyph-name="uniFB81" unicode="&#x687;" horiz-adv-x="915" arabic-form="medial" 
d="M596 313q-92 34 -166 51q-82 19 -148 19q-83 0 -127 -50l12 -50l-30 -90h-10l-49 132q6 82 67 132q59 48 150 48q53 0 130 -19q85 -22 198 -67q83 -33 171 -33h87l2 -2l-62 -103q-57 0 -102 -11q-40 -10 -67 -27l-167 -109q-209 -134 -439 -134h-46q-37 0 -55 23
q-15 18 -15 44q0 23 15 40q19 21 55 21h61q233 0 534 181zM708 245l3 -1q3 -61 51 -90q44 -26 126 -26h27v-128h-31q-102 0 -156 38q-59 41 -59 127q0 28 3 56zM374 -442q-18 -22 -36 -39q-52 51 -110 98q37 51 74 89q51 -38 108 -101q-25 -34 -36 -47zM523 -469
q-53 50 -110 98q36 51 74 89q48 -38 107 -100q-37 -54 -71 -87zM327 -291l-55 51l-55 47l37 48q17 20 37 41q52 -40 107 -101q-41 -58 -71 -86zM547 -240q-18 -22 -36 -39q-52 51 -110 98q39 53 75 89q50 -39 107 -101q-25 -34 -36 -47z" />
    <glyph glyph-name="uniFB7F" unicode="&#x687;" horiz-adv-x="939" arabic-form="final" 
d="M560 327q-151 56 -278 56q-83 0 -127 -50l20 -84l-28 -79l-11 -3l-58 158q6 82 67 132q59 48 150 48q53 0 130 -19q85 -22 198 -68q40 -15 76 -22q43 -9 95 -10l88 1l1 -2l-60 -101q-24 -2 -64 -11q-35 -7 -78 -19q-81 -21 -125 -36q-172 -66 -268 -148
q-102 -88 -102 -185q0 -151 145 -242q138 -86 354 -86q64 0 132 7q59 5 125 15l3 -10q-23 -19 -39 -31q-22 -18 -41 -32q-46 -35 -83 -56q-43 -8 -87 -12q-52 -6 -102 -6q-210 0 -340 99q-68 52 -104 127q-38 79 -38 180q0 174 132 310q125 130 318 176zM708 245l3 -1
q3 -61 51 -90q44 -26 126 -26h51v-128h-55q-102 0 -156 38q-59 41 -59 127q0 28 3 56zM447 -331q-25 26 -54 51q-20 18 -54 46q43 57 73 88q50 -39 106 -100q-41 -58 -71 -85zM635 -319l-55 51q-28 25 -54 46q37 52 73 87q26 -19 53 -45q20 -19 53 -53q-37 -54 -70 -86z
M437 -142l-55 51q-28 25 -54 46q17 23 37 47q16 20 36 41q52 -40 106 -100q-42 -58 -70 -85zM659 -92q-18 -21 -36 -38q-25 26 -54 51q-20 18 -54 46q34 48 74 88q56 -45 105 -100q-24 -33 -35 -47z" />
    <glyph glyph-name="uniFB89" unicode="&#x688;" horiz-adv-x="770" arabic-form="final" 
d="M770 0h-19q-73 0 -121 35q-55 39 -83 128h-5q-13 -60 -72 -96q-53 -32 -100 -48q-53 -19 -101 -19q-174 0 -174 185q0 37 3 74l39 3q6 -134 141 -134q38 0 84 15q41 13 79 35q65 37 65 75q0 46 -24 147q-10 43 -26 104l-33 121l34 53q20 30 37 50l6 -4q26 -101 51 -221
l44 -224q27 -151 158 -151h17v-128zM199 914l4 6l105 -4q18 33 18 108q0 36 -2 70l-9 94q-2 18 -2 27q0 16 14 35q5 7 15 17q3 4 8 9l9 10h6q9 -56 41 -111l-36 -31l2 -75q0 -37 -10 -67l3 -2q76 116 150 116q44 0 72 -31q27 -30 27 -74q0 -30 -17 -73q-22 -50 -67 -73
q-65 -31 -162 -31h-39q-21 1 -36 3zM575 975q-18 61 -76 61q-43 0 -83 -33q-35 -29 -71 -86q194 5 230 58z" />
    <glyph glyph-name="uni0689.fina" unicode="&#x689;" horiz-adv-x="770" 
d="M513 -63q0 -54 -38 -92t-92 -38t-92 38t-38 92q0 33 16 63q-174 0 -174 185q0 37 3 74l39 3q6 -134 141 -134q38 0 84 15q41 13 79 35q65 37 65 75q0 46 -24 147q-10 43 -26 104l-33 121l34 53q20 30 37 50l6 -4q26 -101 51 -221l44 -224q27 -151 158 -151h17v-128h-19
q-73 0 -121 35q-55 39 -83 128h-5q-13 -60 -72 -96l-26 -15q69 -37 69 -115zM383 -143q80 0 80 80t-80 80t-80 -80t80 -80z" />
    <glyph glyph-name="uni068A.fina" unicode="&#x68a;" horiz-adv-x="770" 
d="M770 0h-19q-73 0 -121 35q-55 39 -83 128h-5q-13 -60 -72 -96q-53 -32 -100 -48q-53 -19 -101 -19q-174 0 -174 185q0 37 3 74l39 3q6 -134 141 -134q38 0 84 15q41 13 79 35q65 37 65 75q0 46 -24 147q-10 43 -26 104l-33 121l34 53q20 30 37 50l6 -4q26 -101 51 -221
l44 -224q27 -151 158 -151h17v-128zM232 -291q23 31 41 53q21 28 40 49q60 -43 120 -107q-35 -56 -83 -98q-25 24 -59 53z" />
    <glyph glyph-name="uni068B.fina" unicode="&#x68b;" horiz-adv-x="770" 
d="M770 0h-19q-73 0 -121 35q-55 39 -83 128h-5q-13 -60 -72 -96q-53 -32 -100 -48q-53 -19 -101 -19q-174 0 -174 185q0 37 3 74l39 3q6 -134 141 -134q38 0 84 15q41 13 79 35q65 37 65 75q0 46 -24 147q-10 43 -26 104l-33 121l34 53q20 30 37 50l6 -4q26 -101 51 -221
l44 -224q27 -151 158 -151h17v-128zM199 914l4 6l105 -4q18 33 18 108q0 36 -2 70l-9 94q-2 18 -2 27q0 16 14 35q5 7 15 17q3 4 8 9l9 10h6q9 -56 41 -111l-36 -31l2 -75q0 -37 -10 -67l3 -2q76 116 150 116q44 0 72 -31q27 -30 27 -74q0 -30 -17 -73q-22 -50 -67 -73
q-65 -31 -162 -31h-39q-21 1 -36 3zM575 975q-18 61 -76 61q-43 0 -83 -33q-35 -29 -71 -86q194 5 230 58zM252 -291q23 31 41 53q21 28 40 49q60 -43 120 -107q-35 -56 -83 -98q-25 24 -59 53z" />
    <glyph glyph-name="uniFB85" unicode="&#x68c;" horiz-adv-x="770" arabic-form="final" 
d="M770 0h-19q-73 0 -121 35q-55 39 -83 128h-5q-13 -60 -72 -96q-53 -32 -100 -48q-53 -19 -101 -19q-174 0 -174 185q0 37 3 74l39 3q6 -134 141 -134q38 0 84 15q41 13 79 35q65 37 65 75q0 46 -24 147q-10 43 -26 104l-33 121l34 53q20 30 37 50l6 -4q26 -101 51 -221
l44 -224q27 -151 158 -151h17v-128zM532 840q-59 56 -117 104q37 52 79 95q53 -42 114 -107q-43 -61 -76 -92zM339 827q-59 56 -117 104q37 52 79 95q53 -42 114 -107q-43 -61 -76 -92z" />
    <glyph glyph-name="uniFB83" unicode="&#x68d;" horiz-adv-x="770" arabic-form="final" 
d="M770 0h-19q-73 0 -121 35q-55 39 -83 128h-5q-13 -60 -72 -96q-53 -32 -100 -48q-53 -19 -101 -19q-174 0 -174 185q0 37 3 74l39 3q6 -134 141 -134q38 0 84 15q41 13 79 35q65 37 65 75q0 46 -24 147q-10 43 -26 104l-33 121l34 53q20 30 37 50l6 -4q26 -101 51 -221
l44 -224q27 -151 158 -151h17v-128zM242 -399q-59 57 -117 104q37 52 79 95q53 -41 114 -107q-43 -61 -76 -92zM435 -386q-59 57 -117 104q37 52 79 95q53 -41 114 -107q-43 -61 -76 -92z" />
    <glyph glyph-name="uniFB87" unicode="&#x68e;" horiz-adv-x="770" arabic-form="final" 
d="M770 0h-19q-73 0 -121 35q-55 39 -83 128h-5q-13 -60 -72 -96q-53 -32 -100 -48q-53 -19 -101 -19q-174 0 -174 185q0 37 3 74l39 3q6 -134 141 -134q38 0 84 15q41 13 79 35q65 37 65 75q0 46 -24 147q-10 43 -26 104l-33 121l34 53q20 30 37 50l6 -4q26 -101 51 -221
l44 -224q27 -151 158 -151h17v-128zM349 797q-59 56 -117 104q37 52 79 95q53 -42 114 -107q-43 -61 -76 -92zM403 1010q-59 56 -117 104q37 52 79 95q53 -42 114 -107q-43 -61 -76 -92zM542 810q-59 56 -117 104q37 52 79 95q53 -42 114 -107q-43 -61 -76 -92z" />
    <glyph glyph-name="uni068F.fina" unicode="&#x68f;" horiz-adv-x="770" 
d="M770 0h-19q-73 0 -121 35q-55 39 -83 128h-5q-13 -60 -72 -96q-53 -32 -100 -48q-53 -19 -101 -19q-174 0 -174 185q0 37 3 74l39 3q6 -134 141 -134q38 0 84 15q41 13 79 35q65 37 65 75q0 46 -24 147q-10 43 -26 104l-33 121l34 53q20 30 37 50l6 -4q26 -101 51 -221
l44 -224q27 -151 158 -151h17v-128zM531 1031q-59 56 -117 104q37 52 79 95q53 -42 114 -107q-43 -61 -76 -92zM338 1018q-59 56 -117 104q37 52 79 95q53 -42 114 -107q-43 -61 -76 -92zM478 819q-59 56 -117 104q37 52 79 95q53 -42 114 -107q-43 -61 -76 -92z" />
    <glyph glyph-name="uni0690.fina" unicode="&#x690;" horiz-adv-x="770" 
d="M770 0h-19q-73 0 -121 35q-55 39 -83 128h-5q-13 -60 -72 -96q-53 -32 -100 -48q-53 -19 -101 -19q-174 0 -174 185q0 37 3 74l39 3q6 -134 141 -134q38 0 84 15q41 13 79 35q65 37 65 75q0 46 -24 147q-10 43 -26 104l-33 121l34 53q20 30 37 50l6 -4q26 -101 51 -221
l44 -224q27 -151 158 -151h17v-128zM391 838q-18 -22 -36 -38q-52 51 -110 98q37 51 74 89q51 -39 108 -101q-25 -35 -36 -48zM537 812q-53 50 -110 98q36 51 74 89q48 -38 107 -100q-37 -55 -71 -87zM344 990l-55 51l-55 47l37 48l37 41q52 -40 107 -101q-41 -58 -71 -86z
M561 1040q-18 -22 -36 -38q-52 51 -110 98q39 53 75 89q50 -40 107 -101q-25 -35 -36 -48z" />
    <glyph glyph-name="uni06EE.fina" unicode="&#x6ee;" horiz-adv-x="770" 
d="M770 0h-19q-73 0 -121 35q-55 39 -83 128h-5q-13 -60 -72 -96q-53 -32 -100 -48q-53 -19 -101 -19q-174 0 -174 185q0 37 3 74l39 3q6 -134 141 -134q38 0 84 15q41 13 79 35q65 37 65 75q0 46 -24 147q-10 43 -26 104l-33 121l34 53q20 30 37 50l6 -4q26 -101 51 -221
l44 -224q27 -151 158 -151h17v-128zM272 915q134 153 150 212l19 10q5 -28 46 -75q45 -51 129 -120l-23 -97h-8q-121 119 -154 176h-3q-29 -61 -133 -181q-15 34 -23 75z" />
    <glyph glyph-name="uniFB8D" unicode="&#x691;" horiz-adv-x="656" arabic-form="final" 
d="M413 344q23 -56 43 -92q23 -41 47 -67q54 -57 135 -57h18v-128h-21q-66 0 -101 32h-4q2 -24 2 -35q0 -83 -40 -155q-57 -100 -121 -151q-60 -48 -118 -48q-53 0 -122 23q-61 20 -128 55l15 34q46 -22 115 -22q102 0 208 95q108 96 124 205q-9 21 -27 45q-27 39 -49 77
q-19 32 -38 72q26 59 55 116zM112 584l4 6l105 -4q18 33 18 108q0 36 -2 70l-9 94q-2 18 -2 27q0 16 14 35q5 7 15 17q3 4 8 9l9 10h6q9 -56 41 -111l-36 -31l2 -75q0 -37 -10 -67l3 -2q76 116 150 116q44 0 72 -31q27 -30 27 -74q0 -30 -17 -73q-22 -50 -67 -73
q-65 -31 -162 -31h-39q-21 1 -36 3zM488 645q-18 61 -76 61q-43 0 -83 -33q-35 -29 -71 -86q194 5 230 58z" />
    <glyph glyph-name="uni0692.fina" unicode="&#x692;" horiz-adv-x="656" 
d="M413 344q23 -56 43 -92q23 -41 47 -67q54 -57 135 -57h18v-128h-21q-66 0 -101 32h-4q2 -24 2 -35q0 -83 -40 -155q-57 -100 -121 -151q-60 -48 -118 -48q-53 0 -122 23q-61 20 -128 55l15 34q46 -22 115 -22q102 0 208 95q108 96 124 205q-9 21 -27 45q-27 39 -49 77
q-19 32 -38 72q26 59 55 116zM549 693q-134 -153 -150 -212l-19 -10q-5 28 -46 75q-45 51 -129 120l23 97h8q121 -119 154 -176h3q29 61 133 181q15 -34 23 -75z" />
    <glyph glyph-name="uni0693.fina" unicode="&#x693;" horiz-adv-x="696" 
d="M507 -148q54 0 92 -38t38 -92t-38 -92t-92 -38q-109 0 -128 106q-65 -55 -126 -55q-53 0 -122 23q-61 20 -128 55l15 34q46 -22 115 -22q102 0 208 95q108 96 124 205q-9 21 -27 45q-27 39 -49 77q-19 32 -38 72q26 59 55 116l7 1q23 -56 43 -92q23 -41 47 -67
q54 -57 135 -57h58v-128h-61q-66 0 -101 32h-4q2 -24 2 -35q0 -77 -35 -145h10zM507 -358q80 0 80 80t-80 80t-80 -80t80 -80z" />
    <glyph glyph-name="uni0694.fina" unicode="&#x694;" horiz-adv-x="656" 
d="M413 344q23 -56 43 -92q23 -41 47 -67q54 -57 135 -57h18v-128h-21q-66 0 -101 32h-4q2 -24 2 -35q0 -83 -40 -155q-57 -100 -121 -151q-60 -48 -118 -48q-53 0 -122 23q-61 20 -128 55l15 34q46 -22 115 -22q102 0 208 95q108 96 124 205q-9 21 -27 45q-27 39 -49 77
q-19 32 -38 72q26 59 55 116zM365 -511q23 31 41 53q21 28 40 49q60 -43 120 -107q-35 -56 -83 -98q-25 24 -59 53z" />
    <glyph glyph-name="uni0695.fina" unicode="&#x695;" horiz-adv-x="656" 
d="M413 344q23 -56 43 -92q23 -41 47 -67q54 -57 135 -57h18v-128h-21q-66 0 -101 32h-4q2 -24 2 -35q0 -83 -40 -155q-57 -100 -121 -151q-60 -48 -118 -48q-53 0 -122 23q-61 20 -128 55l15 34q46 -22 115 -22q102 0 208 95q108 96 124 205q-9 21 -27 45q-27 39 -49 77
q-19 32 -38 72q26 59 55 116zM539 -517q-134 -153 -150 -212l-19 -10q-5 28 -46 75q-45 51 -129 120l23 97h8q121 -119 154 -176h3q29 62 133 181q15 -34 23 -75z" />
    <glyph glyph-name="uni0696.fina" unicode="&#x696;" horiz-adv-x="656" 
d="M413 344q23 -56 43 -92q23 -41 47 -67q54 -57 135 -57h18v-128h-21q-66 0 -101 32h-4q2 -24 2 -35q0 -83 -40 -155q-57 -100 -121 -151q-60 -48 -118 -48q-53 0 -122 23q-61 20 -128 55l15 34q46 -22 115 -22q102 0 208 95q108 96 124 205q-9 21 -27 45q-27 39 -49 77
q-19 32 -38 72q26 59 55 116zM365 -511q23 31 41 53q21 28 40 49q60 -43 120 -107q-35 -56 -83 -98q-25 24 -59 53zM85 0q23 31 41 53q21 28 40 49q60 -44 120 -107q-35 -56 -83 -98q-25 24 -59 53z" />
    <glyph glyph-name="uni0697.fina" unicode="&#x697;" horiz-adv-x="656" 
d="M413 344q23 -56 43 -92q23 -41 47 -67q54 -57 135 -57h18v-128h-21q-66 0 -101 32h-4q2 -24 2 -35q0 -83 -40 -155q-57 -100 -121 -151q-60 -48 -118 -48q-53 0 -122 23q-61 20 -128 55l15 34q46 -22 115 -22q102 0 208 95q108 96 124 205q-9 21 -27 45q-27 39 -49 77
q-19 32 -38 72q26 59 55 116zM465 480q-59 56 -117 104q37 52 79 95q53 -42 114 -107q-43 -61 -76 -92zM272 467q-59 56 -117 104q37 52 79 95q53 -42 114 -107q-43 -61 -76 -92z" />
    <glyph glyph-name="uniFB8B" unicode="&#x698;" horiz-adv-x="656" arabic-form="final" 
d="M413 344q23 -56 43 -92q23 -41 47 -67q54 -57 135 -57h18v-128h-21q-66 0 -101 32h-4q2 -24 2 -35q0 -83 -40 -155q-57 -100 -121 -151q-60 -48 -118 -48q-53 0 -122 23q-61 20 -128 55l15 34q46 -22 115 -22q102 0 208 95q108 96 124 205q-9 21 -27 45q-27 39 -49 77
q-19 32 -38 72q26 59 55 116zM272 457q-59 56 -117 104q37 52 79 95q53 -42 114 -107q-43 -61 -76 -92zM326 670q-59 56 -117 104q37 52 79 95q53 -42 114 -107q-43 -61 -76 -92zM465 470q-59 56 -117 104q37 52 79 95q53 -42 114 -107q-43 -61 -76 -92z" />
    <glyph glyph-name="uni0699.fina" unicode="&#x699;" horiz-adv-x="656" 
d="M413 344q23 -56 43 -92q23 -41 47 -67q54 -57 135 -57h18v-128h-21q-66 0 -101 32h-4q2 -24 2 -35q0 -83 -40 -155q-57 -100 -121 -151q-60 -48 -118 -48q-53 0 -122 23q-61 20 -128 55l15 34q46 -22 115 -22q102 0 208 95q108 96 124 205q-9 21 -27 45q-27 39 -49 77
q-19 32 -38 72q26 59 55 116zM314 498q-18 -22 -36 -38q-52 51 -110 98q37 51 74 89q51 -39 108 -101q-25 -35 -36 -48zM460 472q-53 50 -110 98q36 51 74 89q48 -38 107 -100q-37 -55 -71 -87zM267 650l-55 51l-55 47l37 48l37 41q52 -40 107 -101q-41 -58 -71 -86z
M484 700q-18 -22 -36 -38q-52 51 -110 98q39 53 75 89q50 -40 107 -101q-25 -35 -36 -48z" />
    <glyph glyph-name="uni06EF.fina" unicode="&#x6ef;" horiz-adv-x="656" 
d="M413 344q23 -56 43 -92q23 -41 47 -67q54 -57 135 -57h18v-128h-21q-66 0 -101 32h-4q2 -24 2 -35q0 -83 -40 -155q-57 -100 -121 -151q-60 -48 -118 -48q-53 0 -122 23q-61 20 -128 55l15 34q46 -22 115 -22q102 0 208 95q108 96 124 205q-9 21 -27 45q-27 39 -49 77
q-19 32 -38 72q26 59 55 116zM201 565q134 153 150 212l19 10q5 -28 46 -75q45 -51 129 -120l-23 -97h-8q-121 119 -154 176h-3q-29 -61 -133 -181q-15 34 -23 75z" />
    <glyph glyph-name="uni069A.init" unicode="&#x69a;" horiz-adv-x="905" 
d="M806 428q8 -53 13 -101q3 -42 3 -77q0 -32 -11 -72q-10 -36 -25 -65q-30 -50 -66 -79q-40 -31 -82 -31q-66 0 -125 83h-8q-37 -40 -77 -61q-46 -25 -98 -25q-87 0 -96 85h-4q-42 -48 -104 -69q-47 -16 -109 -16h-17q-37 0 -55 23q-15 18 -15 44q0 23 15 40q19 21 55 21
h34q72 1 122 21q55 23 89 72l55 79l77 27l4 -5q-34 -54 -49 -85q-19 -38 -19 -59q0 -50 52 -50q48 0 89 29q30 23 71 159l60 35l6 -4q-13 -52 -13 -98q0 -53 34 -86q30 -29 70 -29q53 0 53 45q0 27 -8 74q-6 37 -17 88q42 50 90 90zM405 690q23 31 41 53q21 28 40 49
q60 -44 120 -107q-35 -57 -83 -98q-25 24 -59 53zM395 -290q23 31 41 53q21 28 40 49q60 -43 120 -107q-35 -56 -83 -98q-25 24 -59 53z" />
    <glyph glyph-name="uni069A.medi" unicode="&#x69a;" horiz-adv-x="1024" 
d="M1024 0h-25q-88 0 -140 26q-46 23 -66 68h-6q-80 -94 -171 -94q-39 0 -65 15q-33 20 -44 68h-4q-36 -40 -76 -60q-44 -23 -97 -23q-87 0 -96 85h-4q-42 -48 -104 -69q-47 -16 -109 -16h-17q-37 0 -55 23q-15 18 -15 44q0 23 15 40q19 21 55 21h34q144 2 211 93l50 78
l77 27l4 -5l-26 -46q-13 -23 -21 -39q-18 -38 -18 -58q0 -50 54 -50q48 0 87 30q39 28 65 88l24 59l76 35l4 -4q-41 -104 -41 -150q0 -58 56 -58q22 0 41 7q13 5 28 15q38 26 58 96l8 29q6 23 12 50l76 51l4 -3q-11 -36 -17 -71q-8 -40 -8 -66q0 -56 46 -84q42 -24 118 -24
h22v-128zM445 680q23 31 41 53q21 28 40 49q60 -44 120 -107q-35 -57 -83 -98q-25 24 -59 53zM425 -290q23 31 41 53q21 28 40 49q60 -43 120 -107q-35 -56 -83 -98q-25 24 -59 53z" />
    <glyph glyph-name="uni069A.fina" unicode="&#x69a;" horiz-adv-x="1467" 
d="M753 0q-8 -53 -16 -88q-10 -43 -22 -72q-38 -85 -135 -140q-95 -55 -201 -55q-141 0 -218 88q-73 83 -73 219q0 78 22 154q21 70 57 126l35 -18q-23 -52 -35 -95q-13 -49 -13 -92q0 -117 73 -182q66 -60 171 -60q112 0 207 72q90 68 90 140q0 108 -103 265q23 43 66 107
h4q26 -51 47 -101q19 -44 35 -90q21 -50 64 -50q21 0 43 9q18 7 33 19q17 11 31 29q17 23 27 50l26 74l68 31l4 -5q-30 -94 -30 -146q0 -61 69 -61q52 0 85 44q24 32 38 89l17 70l73 43l4 -5q-11 -41 -16 -72q-8 -40 -8 -65q0 -55 51 -82q43 -22 122 -22h22v-128h-25
q-174 0 -216 94h-6q-80 -94 -175 -94q-39 0 -64 15q-32 20 -43 68h-6q-55 -83 -159 -83h-20zM855 680q23 31 41 53q21 28 40 49q60 -44 120 -107q-35 -57 -83 -98q-25 24 -59 53zM925 -300q23 31 41 53q21 28 40 49q60 -43 120 -107q-35 -56 -83 -98q-25 24 -59 53z" />
    <glyph glyph-name="uni069B.init" unicode="&#x69b;" horiz-adv-x="905" 
d="M806 428q8 -53 13 -101q3 -42 3 -77q0 -32 -11 -72q-10 -36 -25 -65q-30 -50 -66 -79q-40 -31 -82 -31q-66 0 -125 83h-8q-37 -40 -77 -61q-46 -25 -98 -25q-87 0 -96 85h-4q-42 -48 -104 -69q-47 -16 -109 -16h-17q-37 0 -55 23q-15 18 -15 44q0 23 15 40q19 21 55 21
h34q72 1 122 21q55 23 89 72l55 79l77 27l4 -5q-34 -54 -49 -85q-19 -38 -19 -59q0 -50 52 -50q48 0 89 29q30 23 71 159l60 35l6 -4q-13 -52 -13 -98q0 -53 34 -86q30 -29 70 -29q53 0 53 45q0 27 -8 74q-6 37 -17 88q42 50 90 90zM602 -339q-59 57 -117 104q37 52 79 95
q53 -41 114 -107q-43 -61 -76 -92zM409 -352q-59 57 -117 104q37 52 79 95q53 -41 114 -107q-43 -61 -76 -92zM549 -551q-59 57 -117 104q37 52 79 95q53 -41 114 -107q-43 -61 -76 -92z" />
    <glyph glyph-name="uni069B.medi" unicode="&#x69b;" horiz-adv-x="1024" 
d="M1024 0h-25q-88 0 -140 26q-46 23 -66 68h-6q-80 -94 -171 -94q-39 0 -65 15q-33 20 -44 68h-4q-36 -40 -76 -60q-44 -23 -97 -23q-87 0 -96 85h-4q-42 -48 -104 -69q-47 -16 -109 -16h-17q-37 0 -55 23q-15 18 -15 44q0 23 15 40q19 21 55 21h34q144 2 211 93l50 78
l77 27l4 -5l-26 -46q-13 -23 -21 -39q-18 -38 -18 -58q0 -50 54 -50q48 0 87 30q39 28 65 88l24 59l76 35l4 -4q-41 -104 -41 -150q0 -58 56 -58q22 0 41 7q13 5 28 15q38 26 58 96l8 29q6 23 12 50l76 51l4 -3q-11 -36 -17 -71q-8 -40 -8 -66q0 -56 46 -84q42 -24 118 -24
h22v-128zM612 -339q-59 57 -117 104q37 52 79 95q53 -41 114 -107q-43 -61 -76 -92zM419 -352q-59 57 -117 104q37 52 79 95q53 -41 114 -107q-43 -61 -76 -92zM559 -551q-59 57 -117 104q37 52 79 95q53 -41 114 -107q-43 -61 -76 -92z" />
    <glyph glyph-name="uni069B.fina" unicode="&#x69b;" horiz-adv-x="1467" 
d="M753 0q-8 -53 -16 -88q-10 -43 -22 -72q-38 -85 -135 -140q-95 -55 -201 -55q-141 0 -218 88q-73 83 -73 219q0 78 22 154q21 70 57 126l35 -18q-23 -52 -35 -95q-13 -49 -13 -92q0 -117 73 -182q66 -60 171 -60q112 0 207 72q90 68 90 140q0 108 -103 265q23 43 66 107
h4q26 -51 47 -101q19 -44 35 -90q21 -50 64 -50q21 0 43 9q18 7 33 19q17 11 31 29q17 23 27 50l26 74l68 31l4 -5q-30 -94 -30 -146q0 -61 69 -61q52 0 85 44q24 32 38 89l17 70l73 43l4 -5q-11 -41 -16 -72q-8 -40 -8 -65q0 -55 51 -82q43 -22 122 -22h22v-128h-25
q-174 0 -216 94h-6q-80 -94 -175 -94q-39 0 -64 15q-32 20 -43 68h-6q-55 -83 -159 -83h-20zM1132 -339q-59 57 -117 104q37 52 79 95q53 -41 114 -107q-43 -61 -76 -92zM939 -352q-59 57 -117 104q37 52 79 95q53 -41 114 -107q-43 -61 -76 -92zM1079 -551q-59 57 -117 104
q37 52 79 95q53 -41 114 -107q-43 -61 -76 -92z" />
    <glyph glyph-name="uni069C.init" unicode="&#x69c;" horiz-adv-x="905" 
d="M516 710q-59 56 -117 104q37 52 79 95q53 -42 114 -107q-43 -61 -76 -92zM462 497q-59 56 -117 104q37 52 79 95q53 -42 114 -107q-43 -61 -76 -92zM655 510q-59 56 -117 104q37 52 79 95q53 -42 114 -107q-43 -61 -76 -92zM806 428q8 -53 13 -101q3 -42 3 -77
q0 -32 -11 -72q-10 -36 -25 -65q-30 -50 -66 -79q-40 -31 -82 -31q-66 0 -125 83h-8q-37 -40 -77 -61q-46 -25 -98 -25q-87 0 -96 85h-4q-42 -48 -104 -69q-47 -16 -109 -16h-17q-37 0 -55 23q-15 18 -15 44q0 23 15 40q19 21 55 21h34q72 1 122 21q55 23 89 72l55 79l77 27
l4 -5q-34 -54 -49 -85q-19 -38 -19 -59q0 -50 52 -50q48 0 89 29q30 23 71 159l60 35l6 -4q-13 -52 -13 -98q0 -53 34 -86q30 -29 70 -29q53 0 53 45q0 27 -8 74q-6 37 -17 88q42 50 90 90zM622 -339q-59 57 -117 104q37 52 79 95q53 -41 114 -107q-43 -61 -76 -92z
M429 -352q-59 57 -117 104q37 52 79 95q53 -41 114 -107q-43 -61 -76 -92zM569 -551q-59 57 -117 104q37 52 79 95q53 -41 114 -107q-43 -61 -76 -92z" />
    <glyph glyph-name="uni069C.medi" unicode="&#x69c;" horiz-adv-x="1024" 
d="M546 700q-59 56 -117 104q37 52 79 95q53 -42 114 -107q-43 -61 -76 -92zM492 487q-59 56 -117 104q37 52 79 95q53 -42 114 -107q-43 -61 -76 -92zM685 500q-59 56 -117 104q37 52 79 95q53 -42 114 -107q-43 -61 -76 -92zM1024 0h-25q-88 0 -140 26q-46 23 -66 68h-6
q-80 -94 -171 -94q-39 0 -65 15q-33 20 -44 68h-4q-36 -40 -76 -60q-44 -23 -97 -23q-87 0 -96 85h-4q-42 -48 -104 -69q-47 -16 -109 -16h-17q-37 0 -55 23q-15 18 -15 44q0 23 15 40q19 21 55 21h34q144 2 211 93l50 78l77 27l4 -5l-26 -46q-13 -23 -21 -39
q-18 -38 -18 -58q0 -50 54 -50q48 0 87 30q39 28 65 88l24 59l76 35l4 -4q-41 -104 -41 -150q0 -58 56 -58q22 0 41 7q13 5 28 15q38 26 58 96l8 29q6 23 12 50l76 51l4 -3q-11 -36 -17 -71q-8 -40 -8 -66q0 -56 46 -84q42 -24 118 -24h22v-128zM642 -339q-59 57 -117 104
q37 52 79 95q53 -41 114 -107q-43 -61 -76 -92zM449 -352q-59 57 -117 104q37 52 79 95q53 -41 114 -107q-43 -61 -76 -92zM589 -551q-59 57 -117 104q37 52 79 95q53 -41 114 -107q-43 -61 -76 -92z" />
    <glyph glyph-name="uni069C.fina" unicode="&#x69c;" horiz-adv-x="1467" 
d="M1115 510q-59 56 -117 104q37 52 79 95q53 -42 114 -107q-43 -61 -76 -92zM922 497q-59 56 -117 104q37 52 79 95q53 -42 114 -107q-43 -61 -76 -92zM976 710q-59 56 -117 104q37 52 79 95q53 -42 114 -107q-43 -61 -76 -92zM753 0q-8 -53 -16 -88q-10 -43 -22 -72
q-38 -85 -135 -140q-95 -55 -201 -55q-141 0 -218 88q-73 83 -73 219q0 78 22 154q21 70 57 126l35 -18q-23 -52 -35 -95q-13 -49 -13 -92q0 -117 73 -182q66 -60 171 -60q112 0 207 72q90 68 90 140q0 108 -103 265q23 43 66 107h4q26 -51 47 -101q19 -44 35 -90
q21 -50 64 -50q21 0 43 9q18 7 33 19q17 11 31 29q17 23 27 50l26 74l68 31l4 -5q-30 -94 -30 -146q0 -61 69 -61q52 0 85 44q24 32 38 89l17 70l73 43l4 -5q-11 -41 -16 -72q-8 -40 -8 -65q0 -55 51 -82q43 -22 122 -22h22v-128h-25q-174 0 -216 94h-6q-80 -94 -175 -94
q-39 0 -64 15q-32 20 -43 68h-6q-55 -83 -159 -83h-20zM1142 -339q-59 57 -117 104q37 52 79 95q53 -41 114 -107q-43 -61 -76 -92zM949 -352q-59 57 -117 104q37 52 79 95q53 -41 114 -107q-43 -61 -76 -92zM1089 -551q-59 57 -117 104q37 52 79 95q53 -41 114 -107
q-43 -61 -76 -92z" />
    <glyph glyph-name="uni06FA.init" unicode="&#x6fa;" horiz-adv-x="905" 
d="M516 710q-59 56 -117 104q37 52 79 95q53 -42 114 -107q-43 -61 -76 -92zM462 497q-59 56 -117 104q37 52 79 95q53 -42 114 -107q-43 -61 -76 -92zM655 510q-59 56 -117 104q37 52 79 95q53 -42 114 -107q-43 -61 -76 -92zM806 428q8 -53 13 -101q3 -42 3 -77
q0 -32 -11 -72q-10 -36 -25 -65q-30 -50 -66 -79q-40 -31 -82 -31q-66 0 -125 83h-8q-37 -40 -77 -61q-46 -25 -98 -25q-87 0 -96 85h-4q-42 -48 -104 -69q-47 -16 -109 -16h-17q-37 0 -55 23q-15 18 -15 44q0 23 15 40q19 21 55 21h34q72 1 122 21q55 23 89 72l55 79l77 27
l4 -5q-34 -54 -49 -85q-19 -38 -19 -59q0 -50 52 -50q48 0 89 29q30 23 71 159l60 35l6 -4q-13 -52 -13 -98q0 -53 34 -86q30 -29 70 -29q53 0 53 45q0 27 -8 74q-6 37 -17 88q42 50 90 90zM415 -290q23 31 41 53q21 28 40 49q60 -43 120 -107q-35 -56 -83 -98
q-25 24 -59 53z" />
    <glyph glyph-name="uni06FA.medi" unicode="&#x6fa;" horiz-adv-x="1024" 
d="M546 700q-59 56 -117 104q37 52 79 95q53 -42 114 -107q-43 -61 -76 -92zM492 487q-59 56 -117 104q37 52 79 95q53 -42 114 -107q-43 -61 -76 -92zM685 500q-59 56 -117 104q37 52 79 95q53 -42 114 -107q-43 -61 -76 -92zM1024 0h-25q-88 0 -140 26q-46 23 -66 68h-6
q-80 -94 -171 -94q-39 0 -65 15q-33 20 -44 68h-4q-36 -40 -76 -60q-44 -23 -97 -23q-87 0 -96 85h-4q-42 -48 -104 -69q-47 -16 -109 -16h-17q-37 0 -55 23q-15 18 -15 44q0 23 15 40q19 21 55 21h34q144 2 211 93l50 78l77 27l4 -5l-26 -46q-13 -23 -21 -39
q-18 -38 -18 -58q0 -50 54 -50q48 0 87 30q39 28 65 88l24 59l76 35l4 -4q-41 -104 -41 -150q0 -58 56 -58q22 0 41 7q13 5 28 15q38 26 58 96l8 29q6 23 12 50l76 51l4 -3q-11 -36 -17 -71q-8 -40 -8 -66q0 -56 46 -84q42 -24 118 -24h22v-128zM435 -290q23 31 41 53
q21 28 40 49q60 -43 120 -107q-35 -56 -83 -98q-25 24 -59 53z" />
    <glyph glyph-name="uni06FA.fina" unicode="&#x6fa;" horiz-adv-x="1467" 
d="M1115 510q-59 56 -117 104q37 52 79 95q53 -42 114 -107q-43 -61 -76 -92zM922 497q-59 56 -117 104q37 52 79 95q53 -42 114 -107q-43 -61 -76 -92zM976 710q-59 56 -117 104q37 52 79 95q53 -42 114 -107q-43 -61 -76 -92zM753 0q-8 -53 -16 -88q-10 -43 -22 -72
q-38 -85 -135 -140q-95 -55 -201 -55q-141 0 -218 88q-73 83 -73 219q0 78 22 154q21 70 57 126l35 -18q-23 -52 -35 -95q-13 -49 -13 -92q0 -117 73 -182q66 -60 171 -60q112 0 207 72q90 68 90 140q0 108 -103 265q23 43 66 107h4q26 -51 47 -101q19 -44 35 -90
q21 -50 64 -50q21 0 43 9q18 7 33 19q17 11 31 29q17 23 27 50l26 74l68 31l4 -5q-30 -94 -30 -146q0 -61 69 -61q52 0 85 44q24 32 38 89l17 70l73 43l4 -5q-11 -41 -16 -72q-8 -40 -8 -65q0 -55 51 -82q43 -22 122 -22h22v-128h-25q-174 0 -216 94h-6q-80 -94 -175 -94
q-39 0 -64 15q-32 20 -43 68h-6q-55 -83 -159 -83h-20zM925 -300q23 31 41 53q21 28 40 49q60 -43 120 -107q-35 -56 -83 -98q-25 24 -59 53z" />
    <glyph glyph-name="uni069D.init" unicode="&#x69d;" horiz-adv-x="1066" 
d="M22 128q67 0 110 22q46 23 55 66q7 36 12 58q7 31 14 56q26 25 66 52l6 -6q-16 -57 -16 -94q0 -71 60 -111l44 65q25 36 48 65q55 71 114 124q54 48 111 76q67 33 129 33q67 0 119 -34q43 -30 67 -76q14 -29 20 -60q5 -26 5 -57q0 -41 -19 -95q-43 -127 -208 -181
q-90 -31 -249 -31q-211 0 -288 105h-3q-37 -57 -99 -84q-48 -21 -108 -21h-12q-37 0 -55 23q-15 18 -15 44q0 23 15 40q19 21 55 21h22zM568 128q68 0 141 17q66 15 119 40q82 39 82 72q-10 65 -57 108q-49 44 -115 44q-86 0 -184 -73q-92 -70 -173 -187q63 -21 187 -21z
M515 -399q-59 57 -117 104q37 52 79 95q53 -41 114 -107q-43 -61 -76 -92zM708 -386q-59 57 -117 104q37 52 79 95q53 -41 114 -107q-43 -61 -76 -92z" />
    <glyph glyph-name="uni069D.medi" unicode="&#x69d;" horiz-adv-x="1063" 
d="M22 128q67 0 110 22q46 23 55 66q7 36 12 58q7 31 14 56q26 25 66 52l6 -6q-16 -57 -16 -94q0 -74 55 -111l44 65l48 65q55 70 115 122q55 49 103 73q60 30 121 30q103 0 166 -67q60 -62 60 -154q0 -40 -15 -88q-12 -42 -36 -89h133v-128h-26q-151 0 -299 35
q-53 -17 -101 -25q-61 -10 -132 -10q-205 0 -283 105h-3q-37 -57 -99 -84q-48 -21 -108 -21h-12q-37 0 -55 23q-15 18 -15 44q0 23 15 40q19 21 55 21h22zM452 134q48 -6 111 -6q71 0 148 14q68 13 112 31q82 33 82 75q-10 64 -65 107q-54 42 -122 42q-85 0 -172 -67
q-78 -61 -166 -181q29 -10 72 -15zM515 -399q-59 57 -117 104q37 52 79 95q53 -41 114 -107q-43 -61 -76 -92zM708 -386q-59 57 -117 104q37 52 79 95q53 -41 114 -107q-43 -61 -76 -92z" />
    <glyph glyph-name="uni069D.fina" unicode="&#x69d;" horiz-adv-x="1477" 
d="M782 236q25 35 48 64q55 69 115 122q27 23 49 40q28 20 54 33q60 31 121 31q103 0 166 -67q60 -62 60 -154q0 -40 -15 -88q-12 -42 -36 -89h133v-128h-38q-66 0 -136 8q-74 9 -151 27q-53 -17 -101 -25q-61 -10 -132 -10q-42 0 -75 3q-28 2 -49 6l-30 7l-17 6
q-15 -96 -39 -154q-38 -86 -131 -144t-197 -58q-140 0 -218 93q-73 86 -73 224q0 163 76 280l38 -18q-23 -52 -35 -95q-13 -49 -13 -92q0 -118 73 -187q68 -65 171 -65q87 0 171 60q78 56 110 127q-15 177 -108 318q26 48 74 107l8 -1q66 -107 83 -246q24 37 44 65zM866 134
q48 -6 111 -6q151 0 260 45q82 33 82 75q-10 64 -65 107q-54 42 -122 42q-85 0 -172 -67q-78 -61 -166 -181q29 -10 72 -15zM939 -399q-59 57 -117 104q37 52 79 95q53 -41 114 -107q-43 -61 -76 -92zM1132 -386q-59 57 -117 104q37 52 79 95q53 -41 114 -107
q-43 -61 -76 -92z" />
    <glyph glyph-name="uni069E.init" unicode="&#x69e;" horiz-adv-x="1066" 
d="M22 128q67 0 110 22q46 23 55 66q7 36 12 58q7 31 14 56q26 25 66 52l6 -6q-16 -57 -16 -94q0 -71 60 -111l44 65q25 36 48 65q55 71 114 124q54 48 111 76q67 33 129 33q67 0 119 -34q43 -30 67 -76q14 -29 20 -60q5 -26 5 -57q0 -41 -19 -95q-43 -127 -208 -181
q-90 -31 -249 -31q-211 0 -288 105h-3q-37 -57 -99 -84q-48 -21 -108 -21h-12q-37 0 -55 23q-15 18 -15 44q0 23 15 40q19 21 55 21h22zM568 128q68 0 141 17q66 15 119 40q82 39 82 72q-10 65 -57 108q-49 44 -115 44q-86 0 -184 -73q-92 -70 -173 -187q63 -21 187 -21z
M750 670q-59 56 -117 104q37 52 79 95q53 -42 114 -107q-43 -61 -76 -92zM557 657q-59 56 -117 104q37 52 79 95q53 -42 114 -107q-43 -61 -76 -92zM611 870q-59 56 -117 104q37 52 79 95q53 -42 114 -107q-43 -61 -76 -92z" />
    <glyph glyph-name="uni069E.medi" unicode="&#x69e;" horiz-adv-x="1063" 
d="M22 128q67 0 110 22q46 23 55 66q7 36 12 58q7 31 14 56q26 25 66 52l6 -6q-16 -57 -16 -94q0 -74 55 -111l44 65l48 65q55 70 115 122q55 49 103 73q60 30 121 30q103 0 166 -67q60 -62 60 -154q0 -40 -15 -88q-12 -42 -36 -89h133v-128h-26q-151 0 -299 35
q-53 -17 -101 -25q-61 -10 -132 -10q-205 0 -283 105h-3q-37 -57 -99 -84q-48 -21 -108 -21h-12q-37 0 -55 23q-15 18 -15 44q0 23 15 40q19 21 55 21h22zM452 134q48 -6 111 -6q71 0 148 14q68 13 112 31q82 33 82 75q-10 64 -65 107q-54 42 -122 42q-85 0 -172 -67
q-78 -61 -166 -181q29 -10 72 -15zM750 670q-59 56 -117 104q37 52 79 95q53 -42 114 -107q-43 -61 -76 -92zM557 657q-59 56 -117 104q37 52 79 95q53 -42 114 -107q-43 -61 -76 -92zM611 870q-59 56 -117 104q37 52 79 95q53 -42 114 -107q-43 -61 -76 -92z" />
    <glyph glyph-name="uni069E.fina" unicode="&#x69e;" horiz-adv-x="1477" 
d="M782 236q25 35 48 64q55 69 115 122q27 23 49 40q28 20 54 33q60 31 121 31q103 0 166 -67q60 -62 60 -154q0 -40 -15 -88q-12 -42 -36 -89h133v-128h-38q-66 0 -136 8q-74 9 -151 27q-53 -17 -101 -25q-61 -10 -132 -10q-42 0 -75 3q-28 2 -49 6l-30 7l-17 6
q-15 -96 -39 -154q-38 -86 -131 -144t-197 -58q-140 0 -218 93q-73 86 -73 224q0 163 76 280l38 -18q-23 -52 -35 -95q-13 -49 -13 -92q0 -118 73 -187q68 -65 171 -65q87 0 171 60q78 56 110 127q-15 177 -108 318q26 48 74 107l8 -1q66 -107 83 -246q24 37 44 65zM866 134
q48 -6 111 -6q151 0 260 45q82 33 82 75q-10 64 -65 107q-54 42 -122 42q-85 0 -172 -67q-78 -61 -166 -181q29 -10 72 -15zM1084 670q-59 56 -117 104q37 52 79 95q53 -42 114 -107q-43 -61 -76 -92zM891 657q-59 56 -117 104q37 52 79 95q53 -42 114 -107q-43 -61 -76 -92
zM945 870q-59 56 -117 104q37 52 79 95q53 -42 114 -107q-43 -61 -76 -92z" />
    <glyph glyph-name="uni06FB.init" unicode="&#x6fb;" horiz-adv-x="1066" 
d="M525 774q23 31 41 53q21 28 40 49q60 -44 120 -107q-35 -57 -83 -98q-25 24 -59 53zM22 128q67 0 110 22q46 23 55 66q7 36 12 58q7 31 14 56q26 25 66 52l6 -6q-16 -57 -16 -94q0 -71 60 -111l44 65q25 36 48 65q55 71 114 124q54 48 111 76q67 33 129 33q67 0 119 -34
q43 -30 67 -76q14 -29 20 -60q5 -26 5 -57q0 -41 -19 -95q-43 -127 -208 -181q-90 -31 -249 -31q-211 0 -288 105h-3q-37 -57 -99 -84q-48 -21 -108 -21h-12q-37 0 -55 23q-15 18 -15 44q0 23 15 40q19 21 55 21h22zM568 128q68 0 141 17q66 15 119 40q82 39 82 72
q-10 65 -57 108q-49 44 -115 44q-86 0 -184 -73q-92 -70 -173 -187q63 -21 187 -21zM555 -300q23 31 41 53q21 28 40 49q60 -43 120 -107q-35 -56 -83 -98q-25 24 -59 53z" />
    <glyph glyph-name="uni06FB.medi" unicode="&#x6fb;" horiz-adv-x="1063" 
d="M525 769q23 31 41 53q21 28 40 49q60 -44 120 -107q-35 -57 -83 -98q-25 24 -59 53zM22 128q67 0 110 22q46 23 55 66q7 36 12 58q7 31 14 56q26 25 66 52l6 -6q-16 -57 -16 -94q0 -74 55 -111l44 65l48 65q55 70 115 122q55 49 103 73q60 30 121 30q103 0 166 -67
q60 -62 60 -154q0 -40 -15 -88q-12 -42 -36 -89h133v-128h-26q-151 0 -299 35q-53 -17 -101 -25q-61 -10 -132 -10q-205 0 -283 105h-3q-37 -57 -99 -84q-48 -21 -108 -21h-12q-37 0 -55 23q-15 18 -15 44q0 23 15 40q19 21 55 21h22zM452 134q48 -6 111 -6q71 0 148 14
q68 13 112 31q82 33 82 75q-10 64 -65 107q-54 42 -122 42q-85 0 -172 -67q-78 -61 -166 -181q29 -10 72 -15zM555 -300q23 31 41 53q21 28 40 49q60 -43 120 -107q-35 -56 -83 -98q-25 24 -59 53z" />
    <glyph glyph-name="uni06FB.fina" unicode="&#x6fb;" horiz-adv-x="1477" 
d="M859 769q23 31 41 53q21 28 40 49q60 -44 120 -107q-35 -57 -83 -98q-25 24 -59 53zM782 236q25 35 48 64q55 69 115 122q27 23 49 40q28 20 54 33q60 31 121 31q103 0 166 -67q60 -62 60 -154q0 -40 -15 -88q-12 -42 -36 -89h133v-128h-38q-66 0 -136 8q-74 9 -151 27
q-53 -17 -101 -25q-61 -10 -132 -10q-42 0 -75 3q-28 2 -49 6l-30 7l-17 6q-15 -96 -39 -154q-38 -86 -131 -144t-197 -58q-140 0 -218 93q-73 86 -73 224q0 163 76 280l38 -18q-23 -52 -35 -95q-13 -49 -13 -92q0 -118 73 -187q68 -65 171 -65q87 0 171 60q78 56 110 127
q-15 177 -108 318q26 48 74 107l8 -1q66 -107 83 -246q24 37 44 65zM866 134q48 -6 111 -6q151 0 260 45q82 33 82 75q-10 64 -65 107q-54 42 -122 42q-85 0 -172 -67q-78 -61 -166 -181q29 -10 72 -15zM929 -300q23 31 41 53q21 28 40 49q60 -43 120 -107q-35 -56 -83 -98
q-25 24 -59 53z" />
    <glyph glyph-name="uni069F.init" unicode="&#x69f;" horiz-adv-x="925" 
d="M92 128l54 91q15 59 15 199q0 49 -2 113q-2 58 -6 125q-8 124 -17 221q-3 28 -4 49q-2 28 -2 49q0 56 78 115l7 -7q0 -83 85 -220l-65 -50l4 -81l2 -81q3 -87 3 -162q0 -63 -9 -113q-9 -45 -26 -87h4q58 59 113 106q59 51 107 81q96 60 188 60q90 0 149 -56
q75 -70 75 -177q0 -13 -7 -46q-7 -28 -16 -60q-18 -61 -87 -104q-59 -37 -156 -59q-42 -10 -91 -17q-44 -7 -93 -11q-43 -3 -90 -5q-39 -1 -80 -1h-225q-37 0 -55 23q-15 18 -15 44q0 23 15 40q19 21 55 21h92zM249 128q311 0 461 75q41 20 60 46q-1 56 -55 104
q-59 50 -137 50q-94 0 -203 -74q-102 -69 -214 -201h88zM498 671l-55 51l-55 47l37 48l37 41q52 -40 107 -101q-41 -58 -71 -86zM720 721q-18 -22 -36 -38q-52 51 -110 98q39 53 75 89q50 -40 107 -101q-25 -35 -36 -48zM550 864l-55 51l-55 47l37 48l37 41q52 -40 107 -101
q-41 -58 -71 -86z" />
    <glyph glyph-name="uni069F.medi" unicode="&#x69f;" horiz-adv-x="940" 
d="M70 128l76 91q15 59 15 199q0 47 -2 111q-2 58 -6 125q-8 127 -17 223q-3 28 -4 49q-2 28 -2 49q0 56 78 115l7 -7q0 -83 85 -220l-65 -50l4 -81l2 -81q3 -87 3 -162q0 -63 -9 -113q-9 -45 -26 -87h4q58 62 108 106q55 47 104 77q89 55 186 55q96 0 166 -70
q73 -73 73 -176q0 -35 -15 -75q-12 -31 -37 -73q17 -3 47 -4q23 -1 56 -1h39v-128h-24q-169 0 -324 32q-97 -18 -234 -25q-63 -4 -138 -6q-67 -1 -149 -1h-71q-37 0 -55 23q-15 18 -15 44q0 23 15 40q19 21 55 21h70zM249 128q105 0 185 4q90 5 155 15q146 22 177 74
q0 65 -61 117q-63 53 -147 53q-92 0 -190 -68q-46 -32 -101 -82q-48 -45 -111 -113h93zM508 671l-55 51l-55 47l37 48l37 41q52 -40 107 -101q-41 -58 -71 -86zM730 721q-18 -22 -36 -38q-52 51 -110 98q39 53 75 89q50 -40 107 -101q-25 -35 -36 -48zM560 864l-55 51
l-55 47l37 48l37 41q52 -40 107 -101q-41 -58 -71 -86z" />
    <glyph glyph-name="uni069F.fina" unicode="&#x69f;" horiz-adv-x="1179" 
d="M385 219q15 59 15 199q0 51 -2 115q-2 59 -6 125q-7 119 -17 219q-3 28 -4 49q-2 28 -2 49q0 56 78 115l7 -7q0 -83 85 -220l-65 -50l4 -81l2 -81q3 -87 3 -162q0 -63 -9 -113q-9 -45 -26 -87h4q58 62 108 106q55 47 104 77q89 55 186 55q96 0 166 -70q73 -73 73 -176
q0 -35 -15 -75q-12 -31 -37 -73q17 -3 47 -4q23 -1 56 -1h39v-128h-24q-169 0 -324 32q-79 -15 -173 -23q-101 -9 -216 -9q-29 0 -56 1q-32 1 -55 3l-86 -121l-8 8q0 4 1 7l9 52q8 35 24 61l-76 9q-41 32 -73 61q-39 35 -72 69l4 12q144 -30 277 -34zM488 128q105 0 185 4
q90 5 155 15q146 22 177 74q0 65 -61 117q-63 53 -147 53q-92 0 -190 -68q-46 -32 -101 -82q-48 -45 -111 -113h93zM737 671l-55 51l-55 47l37 48l37 41q52 -40 107 -101q-41 -58 -71 -86zM959 721q-18 -22 -36 -38q-52 51 -110 98q39 53 75 89q50 -40 107 -101
q-25 -35 -36 -48zM789 864l-55 51l-55 47l37 48l37 41q52 -40 107 -101q-41 -58 -71 -86z" />
    <glyph glyph-name="uni06A0.init" unicode="&#x6a0;" horiz-adv-x="733" 
d="M410 700q-59 56 -117 104q37 52 79 95q53 -42 114 -107q-43 -61 -76 -92zM217 687q-59 56 -117 104q37 52 79 95q53 -42 114 -107q-43 -61 -76 -92zM271 900q-59 56 -117 104q37 52 79 95q53 -42 114 -107q-43 -61 -76 -92zM63 128q32 0 67 5q41 5 81 16v5q-56 37 -85 83
q-32 51 -32 113q0 59 43 131q37 61 88 96q56 38 119 38q139 0 222 -163l-19 -20q-75 64 -179 64q-75 0 -131 -29q-52 -26 -52 -55q0 -75 86 -142q70 -54 121 -54t127 21q31 8 75 22l84 28l5 -5l-53 -124q-53 -19 -105 -34q-36 -11 -86 -24l-39 -10q-24 -6 -40 -11
q-46 -12 -85 -25l-63 -20q-35 -11 -61 -17q-67 -17 -120 -17h-31q-37 0 -55 23q-15 18 -15 44q0 23 15 40q19 21 55 21h63z" />
    <glyph glyph-name="uni06A0.medi" unicode="&#x6a0;" horiz-adv-x="748" 
d="M42 128q38 0 62 1q33 2 62 6q66 11 138 43v4q-27 18 -70 60q-6 7 -17 17l-18 18l-35 34q-46 42 -69 42h-31l-3 2l39 115l31 4q32 7 61 12q34 7 66 11q74 10 141 10q171 0 290 -50l-35 -109l-174 -161v-4q102 -55 228 -55h40v-128h-30q-182 0 -333 117h-4
q-89 -64 -176 -92q-79 -25 -174 -25h-31q-37 0 -55 23q-15 18 -15 44q0 23 15 40q19 21 55 21h42zM405 226q52 37 90 67q50 40 94 82v4q-50 12 -87 17q-51 8 -99 8q-88 0 -185 -18v-4l36 -34q5 -5 7 -8q9 -9 16 -15q50 -47 124 -99h4zM480 670q-59 56 -117 104q37 52 79 95
q53 -42 114 -107q-43 -61 -76 -92zM287 657q-59 56 -117 104q37 52 79 95q53 -42 114 -107q-43 -61 -76 -92zM341 870q-59 56 -117 104q37 52 79 95q53 -42 114 -107q-43 -61 -76 -92z" />
    <glyph glyph-name="uni06A0.fina" unicode="&#x6a0;" horiz-adv-x="842" 
d="M443 128q-142 -72 -214 -140q-81 -76 -81 -154q0 -126 126 -204q127 -79 331 -79q142 0 255 29l7 -18l-80 -57q-45 -30 -88 -55q-52 -29 -171 -29q-195 0 -315 90q-64 48 -97 116q-36 74 -36 167q0 65 23 126q22 57 63 109q36 48 89 93q46 40 104 76q-25 19 -61 56
l-18 20l-58 58l-18 16q-19 16 -32 16q-10 0 -24 -4l-25 -8l-6 9l43 109l108 20q34 7 66 11q74 10 141 10q176 0 286 -46l-24 -113l-193 -166v-4q101 -54 240 -54h58v-128h-47q-86 0 -181 36q-90 34 -165 92h-6zM460 235l25 16l13 7l12 9q31 19 53 34q61 41 102 80v6
q-49 11 -90 16q-53 7 -101 7q-60 0 -108 -5q-38 -5 -84 -15v-5l174 -149zM565 670q-59 56 -117 104q37 52 79 95q53 -42 114 -107q-43 -61 -76 -92zM372 657q-59 56 -117 104q37 52 79 95q53 -42 114 -107q-43 -61 -76 -92zM426 870q-59 56 -117 104q37 52 79 95
q53 -42 114 -107q-43 -61 -76 -92z" />
    <glyph glyph-name="uni06FC.init" unicode="&#x6fc;" horiz-adv-x="733" 
d="M157 829q23 31 41 53q21 28 40 49q60 -44 120 -107q-35 -57 -83 -98q-25 24 -59 53zM235 -271q23 31 41 53q21 28 40 49q60 -43 120 -107q-35 -56 -83 -98q-25 24 -59 53zM63 128q32 0 67 5q41 5 81 16v5q-56 37 -85 83q-32 51 -32 113q0 59 43 131q37 61 88 96
q56 38 119 38q139 0 222 -163l-19 -20q-75 64 -179 64q-75 0 -131 -29q-52 -26 -52 -55q0 -75 86 -142q70 -54 121 -54t127 21q31 8 75 22l84 28l5 -5l-53 -124q-53 -19 -105 -34q-36 -11 -86 -24l-39 -10q-24 -6 -40 -11q-46 -12 -85 -25l-63 -20q-35 -11 -61 -17
q-67 -17 -120 -17h-31q-37 0 -55 23q-15 18 -15 44q0 23 15 40q19 21 55 21h63z" />
    <glyph glyph-name="uni06FC.medi" unicode="&#x6fc;" horiz-adv-x="748" 
d="M42 128q38 0 62 1q33 2 62 6q66 11 138 43v4q-27 18 -70 60q-6 7 -17 17l-18 18l-35 34q-46 42 -69 42h-31l-3 2l39 115l31 4q32 7 61 12q34 7 66 11q74 10 141 10q171 0 290 -50l-35 -109l-174 -161v-4q102 -55 228 -55h40v-128h-30q-182 0 -333 117h-4
q-89 -64 -176 -92q-79 -25 -174 -25h-31q-37 0 -55 23q-15 18 -15 44q0 23 15 40q19 21 55 21h42zM405 226q52 37 90 67q50 40 94 82v4q-50 12 -87 17q-51 8 -99 8q-88 0 -185 -18v-4l36 -34q5 -5 7 -8q9 -9 16 -15q50 -47 124 -99h4zM265 779q23 31 41 53q21 28 40 49
q60 -44 120 -107q-35 -57 -83 -98q-25 24 -59 53zM275 -271q23 31 41 53q21 28 40 49q60 -43 120 -107q-35 -56 -83 -98q-25 24 -59 53z" />
    <glyph glyph-name="uni06FC.fina" unicode="&#x6fc;" horiz-adv-x="842" 
d="M443 128q-142 -72 -214 -140q-81 -76 -81 -154q0 -126 126 -204q127 -79 331 -79q142 0 255 29l7 -18l-80 -57q-45 -30 -88 -55q-52 -29 -171 -29q-195 0 -315 90q-64 48 -97 116q-36 74 -36 167q0 65 23 126q22 57 63 109q36 48 89 93q46 40 104 76q-25 19 -61 56
l-18 20l-58 58l-18 16q-19 16 -32 16q-10 0 -24 -4l-25 -8l-6 9l43 109l108 20q34 7 66 11q74 10 141 10q176 0 286 -46l-24 -113l-193 -166v-4q101 -54 240 -54h58v-128h-47q-86 0 -181 36q-90 34 -165 92h-6zM460 235l25 16l13 7l12 9q31 19 53 34q61 41 102 80v6
q-49 11 -90 16q-53 7 -101 7q-60 0 -108 -5q-38 -5 -84 -15v-5l174 -149zM335 779q23 31 41 53q21 28 40 49q60 -44 120 -107q-35 -57 -83 -98q-25 24 -59 53zM370 -171q23 31 41 53q21 28 40 49q60 -43 120 -107q-35 -56 -83 -98q-25 24 -59 53z" />
    <glyph glyph-name="uni06A1.init" unicode="&#x6a1;" horiz-adv-x="574" 
d="M84 128q74 0 120 4q59 4 98 16q48 14 83 39q35 24 35 44v11l-2 11q-24 -3 -56 -3q-20 -1 -57 -1q-91 0 -150 25q-65 27 -90 83q-15 35 -15 72q0 119 75 197q65 67 129 67q117 0 191 -198q20 -53 30 -108q12 -62 12 -130q0 -100 -49 -158q-87 -99 -357 -99h-81
q-37 0 -55 23q-15 18 -15 44q0 23 15 40q19 21 55 21h84zM340 501q-50 61 -108 61q-47 0 -85 -30q-35 -29 -35 -59q0 -57 86 -83q73 -23 204 -22q-16 76 -62 133z" />
    <glyph glyph-name="uni06A1.medi" unicode="&#x6a1;" horiz-adv-x="660" 
d="M17 128q36 0 85 8q18 3 40 8l36 8q-22 37 -29 78q-6 29 -6 74q0 63 20 120q23 66 70 115q86 93 151 93q59 0 117 -111q38 -73 38 -142q0 -65 -18 -125q-16 -52 -49 -108q62 -18 156 -18h32v-128h-29q-146 0 -327 64q-181 -64 -286 -64h-18q-37 0 -55 23q-15 18 -15 44
q0 23 15 40q19 21 55 21h17zM431 234q53 40 53 70q0 24 -8 51q-6 19 -16 39q-46 90 -99 90q-55 0 -108 -56q-49 -51 -64 -111q11 -47 42 -78q34 -37 95 -55q53 11 105 50z" />
    </font>
</defs>
</svg>
